<svg xmlns="http://www.w3.org/2000/svg" xmlns:xlink="http://www.w3.org/1999/xlink" width="315.546" height="253.485" viewBox="0 0 315.546 253.485">
  <defs>
    <linearGradient id="linear-gradient" x1="0.297" y1="-0.265" x2="0.623" y2="0.645" gradientUnits="objectBoundingBox">
      <stop offset="0" stop-color="#4e9cff"/>
      <stop offset="1" stop-color="#176ad4"/>
    </linearGradient>
    <linearGradient id="linear-gradient-2" x1="0.429" y1="-0.856" x2="0.495" y2="0.407" gradientUnits="objectBoundingBox">
      <stop offset="0" stop-color="#f2be3c"/>
      <stop offset="1" stop-color="#ffac00"/>
    </linearGradient>
    <linearGradient id="linear-gradient-3" x1="0.396" y1="-0.503" x2="0.49" y2="0.424" xlink:href="#linear-gradient"/>
    <linearGradient id="linear-gradient-4" x1="0.733" y1="1.095" x2="0.279" y2="0.303" xlink:href="#linear-gradient"/>
    <linearGradient id="linear-gradient-5" x1="0.482" y1="-0.342" x2="0.507" y2="0.542" xlink:href="#linear-gradient"/>
    <linearGradient id="linear-gradient-6" x1="0.562" y1="0.221" x2="0.467" y2="1.074" xlink:href="#linear-gradient"/>
    <linearGradient id="linear-gradient-7" x1="0.18" y1="0.679" x2="0.965" y2="0.193" gradientUnits="objectBoundingBox">
      <stop offset="0" stop-color="#f2bfad"/>
      <stop offset="0.745" stop-color="#f2dad4"/>
    </linearGradient>
    <linearGradient id="linear-gradient-8" x1="0.183" y1="0.359" x2="0.897" y2="0.887" gradientUnits="objectBoundingBox">
      <stop offset="0" stop-color="#4e9cff"/>
      <stop offset="0.799" stop-color="#176ad4"/>
    </linearGradient>
    <linearGradient id="linear-gradient-9" x1="0.249" y1="0.49" x2="0.802" y2="0.515" gradientUnits="objectBoundingBox">
      <stop offset="0" stop-color="#4e9cff"/>
      <stop offset="0.991" stop-color="#176ad4"/>
    </linearGradient>
    <linearGradient id="linear-gradient-10" y1="0.5" x2="1" y2="0.5" gradientUnits="objectBoundingBox">
      <stop offset="0" stop-color="#f2bfad"/>
      <stop offset="1" stop-color="#f2dad4"/>
    </linearGradient>
  </defs>
  <g id="Group_5009" data-name="Group 5009" transform="translate(-2237.015 691.414)">
    <g id="Group_5007" data-name="Group 5007" transform="translate(2237.015 -691.414)">
      <g id="Group_5002" data-name="Group 5002" transform="translate(58.105)">
        <path id="Path_13140" data-name="Path 13140" d="M2646.954-578.02a7.763,7.763,0,0,1-7.763-7.764v-31.532a42.3,42.3,0,0,0-42.254-42.254,42.3,42.3,0,0,0-42.254,42.254v31.532a7.764,7.764,0,0,1-7.764,7.764,7.764,7.764,0,0,1-7.764-7.764v-31.532a57.847,57.847,0,0,1,57.781-57.782,57.847,57.847,0,0,1,57.781,57.782v31.532A7.764,7.764,0,0,1,2646.954-578.02Z" transform="translate(-2513.229 675.098)" fill="#d7bfdd"/>
        <path id="Path_13251" data-name="Path 13251" d="M52.629,0h62.885a52.629,52.629,0,0,1,52.629,52.629v62.885a52.629,52.629,0,0,1-52.629,52.629H52.629A52.629,52.629,0,0,1,0,115.514V52.629A52.629,52.629,0,0,1,52.629,0Z" transform="translate(0 85.341)" fill="#67407e"/>
        <g id="Group_5001" data-name="Group 5001" transform="translate(62.629 132.99)">
          <path id="Path_13141" data-name="Path 13141" d="M2636.89-369.64h-23.3a3.5,3.5,0,0,1-2.681-1.249,3.5,3.5,0,0,1-.77-2.855l4.682-26.951a21.285,21.285,0,0,1-11.024-18.733,21.467,21.467,0,0,1,21.443-21.443,21.468,21.468,0,0,1,21.443,21.443,21.287,21.287,0,0,1-11.024,18.733l4.682,26.951a3.5,3.5,0,0,1-.771,2.855A3.5,3.5,0,0,1,2636.89-369.64Z" transform="translate(-2603.797 440.871)" fill="#fff"/>
        </g>
      </g>
      <g id="Group_5003" data-name="Group 5003" transform="translate(0 130.913)">
        <path id="Path_13142" data-name="Path 13142" d="M2487.188-433.1l-47.442-11.427L2392.3-433.1s-4.936,47.032,5.655,68.212,35.49,42.933,41.788,42.933,31.2-21.752,41.788-42.933S2487.188-433.1,2487.188-433.1Z" transform="translate(-2391.155 444.528)" fill="url(#linear-gradient)"/>
        <path id="Path_13143" data-name="Path 13143" d="M2443.846-323.631c-1.546,0-3.966-1.145-7.191-3.4a86.628,86.628,0,0,1-10.207-8.624c-8.456-8.2-15.669-17.632-19.788-25.869-3.887-7.775-5.911-20.234-6.016-37.032-.078-12.463.991-22.8,1-22.905a.836.836,0,0,1,.636-.726l41.366-9.964a.836.836,0,0,1,.393,0l41.366,9.964a.837.837,0,0,1,.637.727c.01.1,1.079,10.442,1,22.9-.1,16.8-2.129,29.258-6.017,37.032-4.119,8.237-11.33,17.667-19.787,25.869a86.707,86.707,0,0,1-10.206,8.624C2447.811-324.776,2445.392-323.631,2443.846-323.631ZM2403.254-420.7c-.22,2.35-1,11.463-.935,22.15.1,16.3,2.122,28.843,5.84,36.277,4.038,8.076,11.13,17.339,19.456,25.416,7.822,7.586,14.086,11.555,16.232,11.555s8.41-3.969,16.231-11.555c8.327-8.077,15.418-17.34,19.456-25.416,3.717-7.434,5.736-19.979,5.84-36.277.067-10.687-.714-19.8-.936-22.15l-40.591-9.777Z" transform="translate(-2395.255 439.191)" fill="#fff"/>
      </g>
      <g id="Group_5005" data-name="Group 5005" transform="translate(169.439 193.889)">
        <rect id="Rectangle_2480" data-name="Rectangle 2480" width="146.107" height="59.596" rx="23.894" fill="url(#linear-gradient-2)"/>
        <g id="Group_5004" data-name="Group 5004" transform="translate(68.329 22.128)">
          <path id="Path_13144" data-name="Path 13144" d="M2867.741-287.79h-54.4a3.425,3.425,0,0,1-3.425-3.425,3.425,3.425,0,0,1,3.425-3.425h54.4a3.425,3.425,0,0,1,3.425,3.425A3.425,3.425,0,0,1,2867.741-287.79Z" transform="translate(-2809.921 294.64)" fill="#fff"/>
          <path id="Path_13145" data-name="Path 13145" d="M2867.741-262.072h-54.4a3.425,3.425,0,0,1-3.425-3.425,3.425,3.425,0,0,1,3.425-3.425h54.4a3.425,3.425,0,0,1,3.425,3.425A3.425,3.425,0,0,1,2867.741-262.072Z" transform="translate(-2809.921 283.524)" fill="#fff"/>
        </g>
        <path id="Path_13146" data-name="Path 13146" d="M2725.769-274.465a8.309,8.309,0,0,1-8.3-8.3,8.309,8.309,0,0,1,8.3-8.3,8.31,8.31,0,0,1,8.3,8.3A8.309,8.309,0,0,1,2725.769-274.465Zm0-11.685a3.389,3.389,0,0,0-3.385,3.386,3.389,3.389,0,0,0,3.385,3.385,3.389,3.389,0,0,0,3.385-3.385A3.389,3.389,0,0,0,2725.769-286.15Z" transform="translate(-2701.632 315.223)" fill="#fff"/>
        <path id="Path_13147" data-name="Path 13147" d="M2766.349-274.465a8.309,8.309,0,0,1-8.3-8.3,8.309,8.309,0,0,1,8.3-8.3,8.309,8.309,0,0,1,8.3,8.3A8.309,8.309,0,0,1,2766.349-274.465Zm0-11.685a3.389,3.389,0,0,0-3.385,3.386,3.389,3.389,0,0,0,3.385,3.385,3.389,3.389,0,0,0,3.385-3.385A3.389,3.389,0,0,0,2766.349-286.15Z" transform="translate(-2719.172 315.223)" fill="#fff"/>
      </g>
      <g id="Group_5006" data-name="Group 5006" transform="translate(221.576 124.091)">
        <path id="Path_13148" data-name="Path 13148" d="M2868.215-283.969c-.437-.061.3.849-.11,1.314s-2.764,1.669-3.969,1.04-.657-2.217-.575-2.655,5.091-3.722,5.474-3.722a5.229,5.229,0,0,1,2.082.594c.267.282.274,0,.4.371s.249,1.852-.1,2.077A8.4,8.4,0,0,1,2868.215-283.969Z" transform="translate(-2816.83 383.693)" fill="url(#linear-gradient-3)"/>
        <path id="Path_13149" data-name="Path 13149" d="M2860.561-296.849c0,1.49-.061,2.877.573,3.722s.994,4.433,1.025,4.735,2.522-1.578,3.271-2.212,2.67-2.04,3.544-1.829,1.327.9,1.327.513a2.46,2.46,0,0,0-1.9-1.6c-1.026-.121-1.086.9-1.478.362a6.011,6.011,0,0,1-1.026-2.684c-.121-1.116.09-3.348-.633-3.468S2860.561-296.849,2860.561-296.849Z" transform="translate(-2815.617 388.586)" fill="url(#linear-gradient-4)"/>
        <path id="Path_13150" data-name="Path 13150" d="M2785.436-282.733c-.665,1.106-.172,2.118.636,2.285s4.668.346,4.668.459-.225.361,0,.406,3.968.271,4.441.248.5-.361.5-.676.09-.812.086-1.795S2785.436-282.733,2785.436-282.733Z" transform="translate(-2783.012 381.421)" fill="url(#linear-gradient-5)"/>
        <path id="Path_13151" data-name="Path 13151" d="M2790.7-293.442a10.731,10.731,0,0,1-1.181,3.857,5.192,5.192,0,0,1-1.425,1.6c-.209.035-2.085-.382-2.433.625s5.351,2.5,5.941,2.259.707-.839,2.322-.839,1.929.09,2.064-.493-.4-4.756-.359-5.788S2790.7-293.442,2790.7-293.442Z" transform="translate(-2783.237 386.049)" fill="url(#linear-gradient-6)"/>
        <path id="Path_13152" data-name="Path 13152" d="M2805.7-350.452c-.874.967-8.748,4.032-10.264,6.866s-1.621,8.831-1.579,11.523-.673,12.875.025,14.214,5.049,1.87,5.468,1.674.893-6.7.977-8.286-.4-10.756,1.057-12.825,3.654-3.775,4.708-3.775h18.143s3.734,2.07,3.978,2.922.57,7.258,1.036,9.634,1.535,9.4,2.113,9.9,5.271-.506,5.344-2.456-.794-7.746-.794-10.582.043-9.025-1.806-11.647-9.111-6.72-10.616-7.164S2805.7-350.452,2805.7-350.452Z" transform="translate(-2786.666 410.775)" fill="#192b59"/>
        <path id="Path_13153" data-name="Path 13153" d="M2782.83-455.384a1.262,1.262,0,0,0-.921.87,7.939,7.939,0,0,0-.5,1.339,12.6,12.6,0,0,0,2.679,3.67c.678.366,7.471,11.7,8.24,12.863s8.667,13.641,9.344,13.915,4.6-1.844,4.6-1.844-5.825-7.881-7.1-9.469-7.2-9.189-7.788-10.248-4.919-6.284-4.972-6.811-.032-2.673-.132-3.071a4.241,4.241,0,0,0-1.316-1.9c-.56-.311-1.59-.634-1.989-.385S2782.83-455.384,2782.83-455.384Z" transform="translate(-2781.404 456.545)" fill="#f2dad4"/>
        <path id="Path_13154" data-name="Path 13154" d="M2785.277-454.432c-.3.185.267.47.332.672a3.833,3.833,0,0,0,.423,1.132.565.565,0,0,0,.525.212c.2-.027.35-.755.2-1.132S2785.682-454.681,2785.277-454.432Z" transform="translate(-2783.04 455.653)" fill="url(#linear-gradient-7)"/>
        <path id="Path_13155" data-name="Path 13155" d="M2822.353-405.654c-2.279.953-7.883,4.47-7.883,5.075s1.372-.005,1.829,1.329,1.3,10.354.542,12.99-3.708,11.973-3.038,12.2a65.8,65.8,0,0,0,10.276,1.3c2.145-.134,6.836-.894,7.64-1.564s1.768-13.452,3.048-13.937,3.633-.9,3.737-1.626.934-7.993-.173-9.2-3.979-3.184-5.017-3.356-1.887-2.145-2.345-2.42a17.191,17.191,0,0,0-5.481-1.3A14.349,14.349,0,0,0,2822.353-405.654Z" transform="translate(-2795.365 434.775)" fill="url(#linear-gradient-8)"/>
        <path id="Path_13156" data-name="Path 13156" d="M2851.546-381.811s-3.968,2.526-3.726,3.112a2.8,2.8,0,0,0,1.412,1.26.635.635,0,0,1,.276-.3c1.28-.484,3.633-.9,3.737-1.626A4.165,4.165,0,0,0,2851.546-381.811Z" transform="translate(-2810.106 424.244)" fill="url(#linear-gradient-9)"/>
        <path id="Path_13157" data-name="Path 13157" d="M2829.861-405.144a10.92,10.92,0,0,1,2.819,3.868c.292,1.108.72,3.239.325,4.227s-.742,1.706-.42,1.9a3.382,3.382,0,0,0,2.151.148c.643-.248,1.483-2.645,1.928-4.326s.618-5.315-.52-6.18-1.631-1.409-2.3-1.409A23.194,23.194,0,0,0,2829.861-405.144Z" transform="translate(-2802.348 435.093)" fill="url(#linear-gradient-10)"/>
        <path id="Path_13158" data-name="Path 13158" d="M2820.262-427.013c-1.431-.22-3.073,1.9-3.615,3.841a33.059,33.059,0,0,1-2.6,6.507,4.133,4.133,0,0,0,3.107,6.078c4.033.655,5.858-4.413,6.854-4.589s3.663,2.021,5.332.879,2.433-3.838.674-6.5-2.67-4.7-3.583-5.714a4.633,4.633,0,0,0-3.417-1.8A2.868,2.868,0,0,0,2820.262-427.013Z" transform="translate(-2795.309 444.345)" fill="#191847"/>
        <path id="Path_13159" data-name="Path 13159" d="M2823.97-422.823c-.362,4.823-2.05,4.01-.944,6.371.607,1.3,2.449,4.587,5.758,5.082s3.638-5.127,3.473-6.119-2.315-5.623-3.473-5.954S2824.06-424.028,2823.97-422.823Z" transform="translate(-2799.234 442.356)" fill="#f2dad4"/>
        <path id="Path_13160" data-name="Path 13160" d="M2841.833-380.546c-.777,1.851-3.142,8.6-3.142,9.763s-.214,10.923-.336,11.991-.252,2.156-.878,2.413a2.667,2.667,0,0,0-2.117,2.448c-.018,1.73,1.6,4.049,2.19,4.2s1.739.209,2.068-.393-.029-1.971.711-1.971,1.26-.657,1.2-1.834-.794-1.916-.547-3.423,2.972-15.058,3.1-16.6a11.4,11.4,0,0,1,1.766-4.986c.738-.793,1.091-2.012.578-2.686s-.964.61-2.023.642S2842.117-381.225,2841.833-380.546Z" transform="translate(-2804.724 424.248)" fill="#f2dad4"/>
      </g>
    </g>
    <g id="Group_5008" data-name="Group 5008" transform="translate(2259.641 -651.25)">
      <path id="Path_13161" data-name="Path 13161" d="M2503.814-601.521h-3.407a1.419,1.419,0,0,1-1.419-1.419,1.419,1.419,0,0,1,1.419-1.419h3.407a1.42,1.42,0,0,1,1.419,1.419A1.42,1.42,0,0,1,2503.814-601.521Z" transform="translate(-2460.388 604.36)" fill="#67407e"/>
      <path id="Path_13162" data-name="Path 13162" d="M2471.936-601.521H2464.9a1.419,1.419,0,0,1-1.419-1.419,1.419,1.419,0,0,1,1.419-1.419h7.039a1.42,1.42,0,0,1,1.42,1.419A1.42,1.42,0,0,1,2471.936-601.521Zm-14.077,0h-7.039a1.419,1.419,0,0,1-1.419-1.419,1.419,1.419,0,0,1,1.419-1.419h7.039a1.419,1.419,0,0,1,1.42,1.419A1.419,1.419,0,0,1,2457.858-601.521Z" transform="translate(-2438.955 604.36)" fill="#67407e"/>
      <path id="Path_13163" data-name="Path 13163" d="M2432.423-598.114a1.42,1.42,0,0,1-1.419-1.419v-3.407a1.42,1.42,0,0,1,1.419-1.419h3.407a1.42,1.42,0,0,1,1.419,1.419,1.42,1.42,0,0,1-1.419,1.419h-1.987v1.987A1.419,1.419,0,0,1,2432.423-598.114Z" transform="translate(-2431.003 604.36)" fill="#67407e"/>
      <path id="Path_13164" data-name="Path 13164" d="M2432.423-527.377A1.42,1.42,0,0,1,2431-528.8v-6.333a1.42,1.42,0,0,1,1.419-1.419,1.419,1.419,0,0,1,1.419,1.419v6.333A1.419,1.419,0,0,1,2432.423-527.377Zm0-12.665a1.42,1.42,0,0,1-1.419-1.42v-6.332a1.42,1.42,0,0,1,1.419-1.419,1.42,1.42,0,0,1,1.419,1.419v6.332A1.419,1.419,0,0,1,2432.423-540.042Zm0-12.664a1.42,1.42,0,0,1-1.419-1.419v-6.332a1.419,1.419,0,0,1,1.419-1.419,1.419,1.419,0,0,1,1.419,1.419v6.332A1.42,1.42,0,0,1,2432.423-552.707Zm0-12.665a1.419,1.419,0,0,1-1.419-1.419v-6.332a1.419,1.419,0,0,1,1.419-1.419,1.419,1.419,0,0,1,1.419,1.419v6.332A1.419,1.419,0,0,1,2432.423-565.372Zm0-12.665a1.42,1.42,0,0,1-1.419-1.419v-6.333a1.42,1.42,0,0,1,1.419-1.419,1.42,1.42,0,0,1,1.419,1.419v6.333A1.419,1.419,0,0,1,2432.423-578.036Z" transform="translate(-2431.003 596.947)" fill="#67407e"/>
      <path id="Path_13165" data-name="Path 13165" d="M2432.423-469.433a1.419,1.419,0,0,1-1.419-1.419v-3.407a1.419,1.419,0,0,1,1.419-1.419,1.419,1.419,0,0,1,1.419,1.419v3.407A1.419,1.419,0,0,1,2432.423-469.433Z" transform="translate(-2431.003 548.742)" fill="#67407e"/>
    </g>
    <path id="Path_13166" data-name="Path 13166" d="M2837.673-472.594a1.419,1.419,0,0,1-1.419-1.419v-6.813a1.419,1.419,0,0,1,1.419-1.419,1.419,1.419,0,0,1,1.42,1.419v6.813A1.419,1.419,0,0,1,2837.673-472.594Zm0-13.627a1.419,1.419,0,0,1-1.419-1.419v-6.813a1.419,1.419,0,0,1,1.419-1.419,1.419,1.419,0,0,1,1.42,1.419v6.813A1.419,1.419,0,0,1,2837.673-486.22Zm0-13.627a1.419,1.419,0,0,1-1.419-1.419v-6.813a1.419,1.419,0,0,1,1.419-1.419,1.419,1.419,0,0,1,1.42,1.419v6.813A1.419,1.419,0,0,1,2837.673-499.847Zm0-13.627a1.419,1.419,0,0,1-1.419-1.419v-6.813a1.419,1.419,0,0,1,1.419-1.42,1.419,1.419,0,0,1,1.42,1.42v6.813A1.419,1.419,0,0,1,2837.673-513.474Zm0-13.627a1.419,1.419,0,0,1-1.419-1.419v-6.813a1.419,1.419,0,0,1,1.419-1.419,1.419,1.419,0,0,1,1.42,1.419v6.813A1.419,1.419,0,0,1,2837.673-527.1Zm0-13.627a1.419,1.419,0,0,1-1.419-1.42v-6.813a1.419,1.419,0,0,1,1.419-1.42,1.419,1.419,0,0,1,1.42,1.42v6.813A1.419,1.419,0,0,1,2837.673-540.727Zm0-13.627a1.419,1.419,0,0,1-1.419-1.419v-6.813a1.419,1.419,0,0,1,1.419-1.419,1.419,1.419,0,0,1,1.42,1.419v6.813A1.419,1.419,0,0,1,2837.673-554.354Zm0-13.627a1.419,1.419,0,0,1-1.419-1.419v-6.813a1.419,1.419,0,0,1,1.419-1.419,1.419,1.419,0,0,1,1.42,1.419v6.813A1.419,1.419,0,0,1,2837.673-567.981Zm0-13.627a1.419,1.419,0,0,1-1.419-1.419v-6.813a1.419,1.419,0,0,1,1.419-1.419,1.419,1.419,0,0,1,1.42,1.419v6.813A1.419,1.419,0,0,1,2837.673-581.608Zm0-13.627a1.419,1.419,0,0,1-1.419-1.419v-5.183a1.417,1.417,0,0,1-.527-1.1,1.42,1.42,0,0,1,1.42-1.419h.526a1.419,1.419,0,0,1,1.42,1.419v6.286A1.419,1.419,0,0,1,2837.673-595.235Zm-7.34-6.286h-6.813a1.42,1.42,0,0,1-1.419-1.419,1.42,1.42,0,0,1,1.419-1.419h6.813a1.42,1.42,0,0,1,1.42,1.419A1.42,1.42,0,0,1,2830.333-601.521Zm-13.627,0h-6.813a1.42,1.42,0,0,1-1.42-1.419,1.42,1.42,0,0,1,1.42-1.419h6.813a1.419,1.419,0,0,1,1.42,1.419A1.419,1.419,0,0,1,2816.706-601.521Zm-13.626,0h-6.813a1.42,1.42,0,0,1-1.42-1.419,1.42,1.42,0,0,1,1.42-1.419h6.813a1.419,1.419,0,0,1,1.419,1.419A1.419,1.419,0,0,1,2803.079-601.521Zm-13.627,0h-6.813a1.42,1.42,0,0,1-1.419-1.419,1.42,1.42,0,0,1,1.419-1.419h6.813a1.419,1.419,0,0,1,1.42,1.419A1.419,1.419,0,0,1,2789.452-601.521Zm-13.626,0h-6.813a1.42,1.42,0,0,1-1.419-1.419,1.42,1.42,0,0,1,1.419-1.419h6.813a1.419,1.419,0,0,1,1.419,1.419A1.419,1.419,0,0,1,2775.826-601.521Z" transform="translate(-316.843 -46.891)" fill="#67407e"/>
  </g>
</svg>
