<svg xmlns="http://www.w3.org/2000/svg" xmlns:xlink="http://www.w3.org/1999/xlink" width="305.736" height="308.751" viewBox="0 0 305.736 308.751">
  <defs>
    <clipPath id="clip-path">
      <path id="Mask" d="M161.789,305.495a119.666,119.666,0,0,0,90.269-40.945c11.572-13.213,41.664,17.375,46.552,0,1.071-3.806,15.483-51.487,0-95.039C272.061,94.832,208.118,0,161.789,0,71.56,0-42.4,277.033,15.94,305.495c34.848,17,57.708-38.322,62.356-33.816A119.564,119.564,0,0,0,161.789,305.495Z" transform="translate(0)" fill="none"/>
    </clipPath>
  </defs>
  <g id="Human" transform="translate(-0.987 -0.027)">
    <ellipse id="Background" cx="119.904" cy="119.799" rx="119.904" ry="119.799" transform="translate(42.871 65.924)" fill="#feb816"/>
    <path id="Mask-2" data-name="Mask" d="M161.789,305.495a119.666,119.666,0,0,0,90.269-40.945c11.572-13.213,41.664,17.375,46.552,0,1.071-3.806,15.483-51.487,0-95.039C272.061,94.832,208.118,0,161.789,0,71.56,0-42.4,277.033,15.94,305.495c34.848,17,57.708-38.322,62.356-33.816A119.564,119.564,0,0,0,161.789,305.495Z" transform="translate(0.987 0.027)" fill="none"/>
    <g id="Human-2" data-name="Human" transform="translate(0.987 0.027)" clip-path="url(#clip-path)">
      <g id="Human-3" data-name="Human" transform="translate(-17.474 -10.016)">
        <g id="Head_Front" data-name="Head/Front" transform="translate(97.348)">
          <path id="Hair_Back" data-name="Hair Back" d="M37.3,76.751c13.568,0,18.5-16.23,26.211-25.136,5.515-6.372,14.928-4.472,17.714-13.393C88.231,15.789,69.479,0,45.016,0S4.059,13.847.5,34.663,12.837,76.751,37.3,76.751Z" transform="translate(35.118 15.42)" fill="#191847"/>
          <g id="Head" transform="translate(64.107 36.77)">
            <path id="Head-2" data-name="Head" d="M0,86.587,9.809,40.909C4.339,34.494.636,26.631,1.254,17.822,3.038-7.562,38.4-1.977,45.282,10.834s6.062,45.309-2.828,47.6c-3.546.913-11.1-1.324-18.787-5.953l4.826,34.108Z" transform="translate(0 0)" fill="#b28b67"/>
          </g>
          <path id="Hair" d="M15.561,51.6h0c-1.576,0-4.115-1.516-6.628-3.954A31.025,31.025,0,0,1,1.978,37.335,24.674,24.674,0,0,1,.4,23.293c1.038-5.567,4.09-10.861,9.072-15.735a26.768,26.768,0,0,1,8.8-5.84A24.562,24.562,0,0,1,27.4,0c8.469,0,15.542,3.966,19,6.33,4.869,3.325,8.437,7.443,8.677,10.014a1.833,1.833,0,0,1-1.718,2.12c-5.75,1.078-16.738,6.489-25.172,13.675a7.476,7.476,0,0,0-3.482-.858A7.223,7.223,0,0,0,17.4,38.4a6.935,6.935,0,0,0,1.465,4.275,22.788,22.788,0,0,0-3.3,8.928Z" transform="translate(57.739 29.211)" fill="#191847"/>
        </g>
        <g id="Bottom_Skinny_Jeans_1" data-name="Bottom/Skinny Jeans 1" transform="translate(0 221.806)">
          <path id="Leg" d="M0,0,44.674,145.923l21.641,124.1H83.284L60.416,0Z" transform="translate(151.958 0)" fill="#997659"/>
          <path id="Leg-2" data-name="Leg" d="M33.21,0c3.034,80.119-.537,121.446-1.216,128.726S22.016,183.2,0,272.464l18.081-6.2c34.793-81.865,46.65-124.412,50.64-135.162S83.311,76.649,100.518,0Z" transform="translate(102.766)" fill="#b28b67"/>
          <g id="Left_Shoe" data-name="Left Shoe" transform="translate(99.722 236.04)">
            <path id="shoe" d="M5.311,5.908a2.375,2.375,0,0,0-3.045,1.6L0,15.483a76.135,76.135,0,0,0,1.07,9.364H68.029s2.61-8.621-3.013-9.308S55.672,14.3,55.672,14.3L24.551.435a1.188,1.188,0,0,0-1.581.631l-2,4.848s-5.206,2.427-8.46,2.427Z" transform="translate(1.187 22.598)" fill="#e4e4e4"/>
          </g>
          <g id="Right_Shoe" data-name="Right Shoe" transform="translate(211.317 236.04)">
            <path id="shoe-2" data-name="shoe" d="M5.311,5.908a2.375,2.375,0,0,0-3.045,1.6L0,15.483a76.135,76.135,0,0,0,1.07,9.364H68.029s2.61-8.621-3.013-9.308S55.672,14.3,55.672,14.3L24.551.435a1.188,1.188,0,0,0-1.581.631l-2,4.848s-5.206,2.427-8.46,2.427Z" transform="translate(1.187 22.598)" fill="#e4e4e4"/>
          </g>
          <path id="Bottom" d="M0,0,18.995,74.346H77.012L68.362,0Z" transform="translate(146.022)" fill="#69a1ac"/>
          <path id="Bottom-2" data-name="Bottom" d="M5.717,0C-3.658,28.077,2.155,74.346,2.155,74.346h59.2L77.64,0Z" transform="translate(129.621 0)" fill="#89c5cc"/>
        </g>
        <g id="Body_Long_Sleeve_1" data-name="Body/Long Sleeve 1" transform="translate(26.118 97.263)">
          <path id="Skin" d="M38.041,100.138c-1.764-2.64-3.741-5.28-9.266-3.6-9.835,3-17.951,9.785-27.692,1.711-1.2-.993-2.206-4.238,1.6-6.129,9.484-4.712,23.408-13.333,25.572-16.51C32.683,69.114,58.294,0,58.294,0L79.321,3.051S45.465,76.442,43.02,80.678c-3.668,6.354.645,17.421,2.331,23.279a7.135,7.135,0,0,1-1.972.308C40.668,104.265,39.419,102.2,38.041,100.138ZM247.1,51.289,210.776,33.177l9.795-20.042,35.836,30.355q15.08,5.217,24.959,12.1c1.52,1.593,3.273,4.724-3.426,3.735s-13.787-1.726-14.877.5,2.793,5.26.7,8.225a.879.879,0,0,1-.76.387Q259.764,68.446,247.1,51.289Z" transform="translate(5.418 91.968)" fill="#b28b67"/>
          <path id="Coat_Back" data-name="Coat Back" d="M0,5.424,12.6,0c21.451,42.4,51.43,82.625,98.444,114.7l-9.213,19.65C61.293,115.031,23.251,100.6,5.461,67.84-.51,56.846.79,19.125,0,5.424Z" transform="matrix(0.996, 0.087, -0.087, 0.996, 152.069, 0.921)" fill="#c5cfd6"/>
          <path id="Shirt" d="M0,128.455s55.984,5.931,88.131,0c2.655-.49,3.074-4.931,1.843-7.946C70.8,73.566,57.649,32.605,57.649,0,52.372,2.658,39.177.8,39.177.8,15.536,34.4,4.669,72.951,0,128.455Z" transform="translate(106.846 2.02)" fill="#323337"/>
          <path id="Coat_Front" data-name="Coat Front" d="M26.821,256.351c2.55-53.238,22.2-116.9,42.547-170.962C54.35,100.317,36.813,125.34,22.638,167L0,161.191C23.071,61.866,90.662,10.641,103.779,1.5l.382-.883h.9C105.676.2,106,0,106,0l-.035.615h9.852c2.294,13.481,9.53,196.023,31.867,255.736Z" transform="translate(34.182 -0.615)" fill="#dde3e9"/>
        </g>
      </g>
    </g>
  </g>
</svg>
