<svg xmlns="http://www.w3.org/2000/svg" xmlns:xlink="http://www.w3.org/1999/xlink" width="337.493" height="312.872" viewBox="0 0 337.493 312.872">
  <defs>
    <clipPath id="clip-path">
      <path id="Mask" d="M166.9,309.473a125.192,125.192,0,0,0,120.5-91.131c3.034-10.785,50.093-46.343,50.093-58.1C337.493,91.185,236.024,0,166.9,0S-46.23,279.766,14.67,309.473c36.374,17.744,60.235-40,65.086-35.3A124.8,124.8,0,0,0,166.9,309.473Z" transform="translate(0)" fill="none"/>
    </clipPath>
    <clipPath id="clip-path-2">
      <path id="Path" d="M62.788,14.651c.536-1.542,4.187-6.32-2.316-10.872-1.169-.818-3.1,0-4.771-.519-1.258-.388-1.683-2.143-3.125-2.449-1.5-.317-3.127,1.121-4.818.995C46.721,1.728,45.122.114,44.043.028c-1.926-.155-3.676,1.661-5.557,1.778C37.4,1.873,36.13.12,35.048.028c-2.634-.226-5.033,1-7.355,1.373-2.139.343-3.134,4.723-4.71,5.759-4.945,3.249-8.82,4.157-12.833,7.491-4.77,3.964-5.683,6.913-7.66,9.554S-.706,36.151.446,42.115c.68,3.518,2.451,13.126,6.409,16.845,5.417,5.091,16.437,6.6,17.416,5.921,4.531-3.146,14.687-20.547,21.891-26.7C51.459,33.663,59.469,24.2,62.788,14.651Z" transform="translate(0 0)" fill="#feb816"/>
    </clipPath>
  </defs>
  <g id="Human" transform="translate(-0.243 -0.027)">
    <path id="Background" d="M125.154,0A125.044,125.044,0,1,1,0,125.044,125.1,125.1,0,0,1,125.154,0Z" transform="translate(41.993 59.412)" fill="#9479a4" opacity="0.38"/>
    <path id="Mask-2" data-name="Mask" d="M166.9,309.473a125.192,125.192,0,0,0,120.5-91.131c3.034-10.785,50.093-46.343,50.093-58.1C337.493,91.185,236.024,0,166.9,0S-46.23,279.766,14.67,309.473c36.374,17.744,60.235-40,65.086-35.3A124.8,124.8,0,0,0,166.9,309.473Z" transform="translate(0.243 0.027)" fill="none"/>
    <g id="Human-2" data-name="Human" transform="translate(0.243 0.027)" clip-path="url(#clip-path)">
      <g id="Human-3" data-name="Human" transform="translate(9.532 -122.345)">
        <g id="Head_Front" data-name="Head/Front" transform="translate(122.363)">
          <g id="Head" transform="translate(16.422 10.874)">
            <path id="Head-2" data-name="Head" d="M0,90.378,10.238,42.7C4.529,36,.664,27.8,1.309,18.6,3.171-7.893,40.085-2.064,47.265,11.308S53.593,58.6,44.313,60.991c-3.7.953-11.585-1.382-19.61-6.214l5.037,35.6Z" transform="translate(0 0)" fill="#784931"/>
          </g>
          <g id="Turban">
            <path id="Path-2" data-name="Path" d="M62.788,14.651c.536-1.542,4.187-6.32-2.316-10.872-1.169-.818-3.1,0-4.771-.519-1.258-.388-1.683-2.143-3.125-2.449-1.5-.317-3.127,1.121-4.818.995C46.721,1.728,45.122.114,44.043.028c-1.926-.155-3.676,1.661-5.557,1.778C37.4,1.873,36.13.12,35.048.028c-2.634-.226-5.033,1-7.355,1.373-2.139.343-3.134,4.723-4.71,5.759-4.945,3.249-8.82,4.157-12.833,7.491-4.77,3.964-5.683,6.913-7.66,9.554S-.706,36.151.446,42.115c.68,3.518,2.451,13.126,6.409,16.845,5.417,5.091,16.437,6.6,17.416,5.921,4.531-3.146,14.687-20.547,21.891-26.7C51.459,33.663,59.469,24.2,62.788,14.651Z" transform="translate(0 0)" fill="#feb816"/>
            <g id="Turban-2" data-name="Turban" transform="translate(0 0)" clip-path="url(#clip-path-2)">
              <path id="Shade" d="M12.63,27.25C15.611,16.688,18.512.384,18.512.384L22.174,0s-6.062,25.553-9.4,35.787C10.52,42.7,8.683,48.561,7.1,53.357c3.253-7.2,7.437-16.435,11.22-25.908,4.069-10.192,8.66-26.1,8.66-26.1h3.683s-8.7,24.78-13.092,34.61C12.867,46.491,9.485,54.494,6.791,59.867A291,291,0,0,0,25.647,27.973c4.209-8.248,9.911-25.258,9.911-25.258l3.427,1.465S30.353,25.709,25.647,34.208C15.419,52.673,5.654,63.814,2.24,66.977c-.591.547-.788.674-.647.395a.134.134,0,0,1-.1-.084,8.96,8.96,0,0,1-.718.954C.5,68.552.3,68.7.178,68.7-1.292,68.7,6.651,48.43,12.63,27.25Z" transform="translate(19.18 -1.828)" fill="rgba(0,0,0,0.2)"/>
            </g>
          </g>
        </g>
        <g id="Bottom_Skinny_Jeans_1" data-name="Bottom/Skinny Jeans 1" transform="translate(0 299.579)">
          <path id="Leg" d="M128.769,0c-23.677,19.306-14.6,188.665-16.176,190.8C111.539,192.218,0,214.941,0,214.941L3.215,228.05S133.7,221.626,141.3,211.941C152.18,198.074,168.148,56.8,168.148,56.8Z" transform="matrix(0.574, -0.819, 0.819, 0.574, 40.941, 139.914)" fill="#b28b67"/>
          <path id="Pant" d="M0,209.8l5.663,21.113c64.847,7.475,107.59-1.727,122.631-16.038s26.92-154.716,26.92-154.716L113.088,0C56.726,42.524,90.39,181.82,88.95,185.007S53.315,190.7,0,209.8Z" transform="matrix(0.574, -0.819, 0.819, 0.574, 48.462, 127.143)" fill="#67407e"/>
          <g id="Right_Show" data-name="Right Show" transform="translate(220.028 230.112) rotate(20)">
            <path id="shoe" d="M4.474,5.033A2,2,0,0,0,1.908,6.381L0,13.106A64.242,64.242,0,0,0,.9,21H57.3s2.2-7.268-2.538-7.848-7.87-1.047-7.87-1.047L20.68.419a1,1,0,0,0-1.332.532L17.663,5.039s-4.385,2.046-7.127,2.046Z" transform="translate(1 19)" fill="#e4e4e4"/>
          </g>
          <path id="Leg-2" data-name="Leg" d="M127.142,0,63.021,153.8,0,283.826H14.869L177.543,0Z" transform="translate(4.208 34.432)" fill="#997659"/>
          <g id="Left_Shot" data-name="Left Shot" transform="translate(0 280.806)">
            <path id="shoe-2" data-name="shoe" d="M5.543,6.152A2.479,2.479,0,0,0,2.365,7.821L0,16.147A79.468,79.468,0,0,0,1.117,25.92h69.89s2.724-9-3.145-9.716-9.752-1.3-9.752-1.3L25.626.44a1.24,1.24,0,0,0-1.65.659L21.887,6.159s-5.434,2.533-8.831,2.533Z" transform="translate(1.239 23.602)" fill="#e4e4e4"/>
          </g>
          <path id="Pant-2" data-name="Pant" d="M0,256.814,33.038,263C58.584,225.482,165.491,71.624,177.212,0H103.662C64.518,51.777,24.35,218.671,0,256.814Z" transform="translate(9.899 34.432)" fill="#420c5d"/>
        </g>
        <g id="Head_Front_Short_Beard" data-name="Head/Front/Short Beard" transform="translate(78.225 100.868)">
          <g id="Head-3" data-name="Head" transform="translate(64.324 36.962)">
            <path id="Head-4" data-name="Head" d="M0,87,9.836,41.1c-5.485-6.446-9.2-14.346-8.578-23.2C3.046-7.6,38.51-1.987,45.408,10.886s6.079,45.525-2.836,47.825c-3.556.918-11.13-1.33-18.84-5.982L28.572,87Z" transform="translate(-0.324 0.038)" fill="#b28b67"/>
          </g>
          <path id="Hair" d="M24.069,53.715c-1.921-5.806-2.652-22.519-2.829-27.457a7.152,7.152,0,0,0-8,7.1,7.135,7.135,0,0,0,2.153,5.118c-1.654,2.336-3.507,4.777-5.63,7.3-7.979-4.791-13.9-18.817-6.1-32.291C5.815,6.883,10.7,3.357,16.46,1.72a20.718,20.718,0,0,1,13.609-1C38.09,1.4,45.253,3.853,47.283,5.307c0,7.6-1.472,9.856-14.04,9.658-3.088,1.632-5.463,4.443-7.935,8.128.018.246,1.679,22.888,8.685,22.888,7.042,0,13.018-4.476,16.109-4.476,2.252,0,1.75,2.822.256,4.914-1.232,1.727-7.231,3.39-7.231,6.066,0,1.511,1.512,1.509,2.827,1.506,1.014,0,1.913,0,1.913.688,0,2.625.834,7.561-3.719,7.561C39.541,62.24,26.332,60.559,24.069,53.715Z" transform="translate(64.191 34.601)" fill="#191847"/>
        </g>
        <g id="Body_Long_Sleeve_1" data-name="Body/Long Sleeve 1" transform="translate(0 204.015)">
          <path id="Skin" d="M39.391,143.946c-1.69-2.839-3.61-5.677-9.445-4.23C19.534,142.3,10.705,148.93,1,139.988c-1.193-1.1-2.068-4.535,2-6.3,10.14-4.391,25.12-12.612,27.549-15.8q4.97-6.53,30.8-74.554l25.393,5.033q-38.3,71.323-41.084,75.6c-4.17,6.419-.279,18.184,1.158,24.379a7.829,7.829,0,0,1-1.768.221C41.99,148.567,40.767,146.257,39.391,143.946ZM242.873,37.906l44.9-19.7Q299.571,6.458,310.559.349c2.19-.7,5.932-.907,1.939,4.919s-7.929,12.134-6.335,14.176,6.216-.212,8.042,3.109q1.827,3.321-23.369,7.945L257.21,56.257Z" transform="translate(0 58.189)" fill="#915b3c"/>
          <path id="Coat_Back" data-name="Coat Back" d="M0,2.763,10.514,0C35.735,20.5,49.959,73.805,66.08,79.616c15.242,5.493,35.435-2.88,59.344-13.891l9.036,16.213c-20.307,26.2-66.295,50.866-86.685,40.868C15.176,106.821,2.186,40.678,0,2.763Z" transform="matrix(0.996, 0.087, -0.087, 0.996, 155.996, 3.849)" fill="#420c5d"/>
          <path id="Shirt" d="M0,141.139H94.809c4.332,0,3.516-6.25,2.89-9.4C90.471,95.335,62.256,56.1,62.256,4.285L34.909,0C12.289,36.347,4.467,81.1,0,141.139Z" transform="translate(109.045)" fill="#dde3e9"/>
          <path id="Coat_Front" data-name="Coat Front" d="M0,175.63Q19.2,56.649,111.211,0h10.828s36.826,125.423,20.305,167.138H57c1.35-20.35,5.68-41.87,11.61-62.853q-28.992,52.249-48.738,75.234Z" transform="translate(30.979)" fill="#67407e"/>
        </g>
      </g>
    </g>
  </g>
</svg>
