<svg width="21" height="15" viewBox="0 0 21 15" fill="none" xmlns="http://www.w3.org/2000/svg">
<path d="M19.041 0.286011H1.269C0.932684 0.286803 0.610369 0.420757 0.372557 0.658569C0.134745 0.896381 0.000792268 1.21869 0 1.55501V12.98C0.000528928 13.3164 0.134397 13.6389 0.372266 13.8767C0.610135 14.1146 0.932603 14.2485 1.269 14.249H19.041C19.3775 14.2487 19.7001 14.115 19.938 13.877C20.176 13.6391 20.3097 13.3165 20.31 12.98V1.55501C20.3095 1.21861 20.1756 0.896149 19.9377 0.658279C19.6999 0.42041 19.3774 0.28654 19.041 0.286011ZM6.982 11.711H3.174C3.08856 11.7144 3.00331 11.7005 2.92337 11.6701C2.84343 11.6398 2.77044 11.5936 2.70879 11.5343C2.64714 11.4751 2.59809 11.404 2.56458 11.3253C2.53108 11.2467 2.51381 11.162 2.51381 11.0765C2.51381 10.991 2.53108 10.9064 2.56458 10.8277C2.59809 10.749 2.64714 10.6779 2.70879 10.6187C2.77044 10.5594 2.84343 10.5132 2.92337 10.4829C3.00331 10.4525 3.08856 10.4386 3.174 10.442H6.982C7.06744 10.4386 7.15269 10.4525 7.23263 10.4829C7.31257 10.5132 7.38556 10.5594 7.44721 10.6187C7.50886 10.6779 7.55791 10.749 7.59142 10.8277C7.62492 10.9064 7.64219 10.991 7.64219 11.0765C7.64219 11.162 7.62492 11.2467 7.59142 11.3253C7.55791 11.404 7.50886 11.4751 7.44721 11.5343C7.38556 11.5936 7.31257 11.6398 7.23263 11.6701C7.15269 11.7005 7.06744 11.7144 6.982 11.711ZM15.233 7.90301C14.654 7.90101 14.0935 7.69933 13.646 7.33201C13.2738 7.6356 12.8231 7.82739 12.3463 7.88511C11.8695 7.94283 11.3861 7.86411 10.9522 7.6581C10.5183 7.45209 10.1517 7.12724 9.89507 6.72126C9.63841 6.31528 9.50217 5.84482 9.50217 5.36451C9.50217 4.8842 9.63841 4.41374 9.89507 4.00776C10.1517 3.60178 10.5183 3.27693 10.9522 3.07092C11.3861 2.86491 11.8695 2.78619 12.3463 2.84391C12.8231 2.90163 13.2738 3.09342 13.646 3.39701C13.9616 3.14236 14.3336 2.96716 14.731 2.88612C15.1283 2.80509 15.5392 2.82059 15.9293 2.93133C16.3194 3.04206 16.6772 3.2448 16.9727 3.5225C17.2682 3.8002 17.4927 4.14476 17.6274 4.52723C17.7621 4.9097 17.8031 5.31892 17.7468 5.7205C17.6906 6.12208 17.5388 6.50429 17.3042 6.83504C17.0696 7.16578 16.7591 7.4354 16.3987 7.62124C16.0382 7.80708 15.6385 7.9037 15.233 7.90301Z" fill="#0F1E72"/>
</svg>
