<svg xmlns="http://www.w3.org/2000/svg" width="10.938" height="12.5" viewBox="0 0 10.938 12.5">
  <path id="Icon_awesome-copy" data-name="Icon awesome-copy" d="M7.812,10.938v.977a.586.586,0,0,1-.586.586H.586A.586.586,0,0,1,0,11.914V2.93a.586.586,0,0,1,.586-.586H2.344V9.57a1.369,1.369,0,0,0,1.367,1.367Zm0-8.4V0h-4.1a.586.586,0,0,0-.586.586V9.57a.586.586,0,0,0,.586.586h6.641a.586.586,0,0,0,.586-.586V3.125H8.4A.588.588,0,0,1,7.812,2.539Zm2.953-.758L9.156.172A.586.586,0,0,0,8.742,0H8.594V2.344h2.344V2.2a.586.586,0,0,0-.172-.414Z" fill="#feb816"/>
</svg>
