<svg xmlns="http://www.w3.org/2000/svg" width="93.657" height="66.558" viewBox="0 0 93.657 66.558">
  <path id="Icon_payment-credit-card" data-name="Icon payment-credit-card" d="M93.444,16.35a5.663,5.663,0,0,1,4.489,2.11,6.618,6.618,0,0,1,1.945,4.871v52.6A6.62,6.62,0,0,1,97.933,80.8a5.654,5.654,0,0,1-4.489,2.11H12.655A5.655,5.655,0,0,1,8.165,80.8a6.613,6.613,0,0,1-1.945-4.871V23.33A6.614,6.614,0,0,1,8.165,18.46a5.662,5.662,0,0,1,4.489-2.11H93.444ZM12.655,21.869q-.749,0-.9.487a1.452,1.452,0,0,0-.449.974v9.74H94.79V23.33a1.452,1.452,0,0,0-.449-.974q-.151-.487-.9-.487H12.655Zm80.789,55.52q.747,0,.9-.487a1.452,1.452,0,0,0,.449-.974v-26.3H11.307v26.3a1.452,1.452,0,0,0,.449.974q.147.487.9.487ZM16.4,71.868V66.187H26.72v5.681Zm15.411,0V66.187H47.068v5.681Z" transform="translate(-6.221 -16.35)" fill="#67407e"/>
</svg>
