<svg xmlns="http://www.w3.org/2000/svg" width="177.457" height="120.195" viewBox="0 0 177.457 120.195">
  <g id="driver-license" transform="translate(0.95 0.95)">
    <g id="Group_6139" data-name="Group 6139" transform="translate(0 0)">
      <circle id="Ellipse_422" data-name="Ellipse 422" cx="3.429" cy="3.429" r="3.429" transform="translate(89.05 111.437)" fill="#67407e" stroke="#fff" stroke-width="1.9"/>
      <path id="Path_17676" data-name="Path 17676" d="M174.208,93.972a17.132,17.132,0,0,0-15.8-10.472H17.144A17.132,17.132,0,0,0,0,100.644v84.006a17.132,17.132,0,0,0,17.144,17.144H77.049a3.429,3.429,0,0,0,0-6.858H17.144A10.326,10.326,0,0,1,6.858,184.651V104.073H168.7v80.578a10.326,10.326,0,0,1-10.286,10.286h-50.5a3.429,3.429,0,1,0,0,6.858h50.5a17.133,17.133,0,0,0,17.145-17.144V100.644a17.012,17.012,0,0,0-1.348-6.673ZM17.144,90.358H158.412a10.331,10.331,0,0,1,9.69,6.858H7.455A10.331,10.331,0,0,1,17.144,90.358Z" transform="translate(0 -83.5)" fill="#67407e" stroke="#fff" stroke-width="1.9"/>
      <circle id="Ellipse_423" data-name="Ellipse 423" cx="3.429" cy="3.429" r="3.429" transform="translate(132.01 83.835)" fill="#67407e" stroke="#fff" stroke-width="1.9"/>
      <circle id="Ellipse_424" data-name="Ellipse 424" cx="3.429" cy="3.429" r="3.429" transform="translate(116.58 83.835)" fill="#67407e" stroke="#fff" stroke-width="1.9"/>
      <circle id="Ellipse_425" data-name="Ellipse 425" cx="3.429" cy="3.429" r="3.429" transform="translate(85.721 83.835)" fill="#67407e" stroke="#fff" stroke-width="1.9"/>
      <circle id="Ellipse_426" data-name="Ellipse 426" cx="3.429" cy="3.429" r="3.429" transform="translate(101.151 83.835)" fill="#67407e" stroke="#fff" stroke-width="1.9"/>
      <path id="Path_17677" data-name="Path 17677" d="M253.429,278.858h23.316a3.429,3.429,0,0,0,0-6.858H253.429a3.429,3.429,0,0,0,0,6.858Z" transform="translate(-164.279 -207.366)" fill="#67407e" stroke="#fff" stroke-width="1.9"/>
      <path id="Path_17678" data-name="Path 17678" d="M253.429,238.858h46.289a3.429,3.429,0,0,0,0-6.858H253.429a3.429,3.429,0,0,0,0,6.858Z" transform="translate(-164.279 -181.082)" fill="#67407e" stroke="#fff" stroke-width="1.9"/>
      <path id="Path_17679" data-name="Path 17679" d="M253.429,198.858h46.289a3.429,3.429,0,0,0,0-6.858H253.429a3.429,3.429,0,0,0,0,6.858Z" transform="translate(-164.279 -154.797)" fill="#67407e" stroke="#fff" stroke-width="1.9"/>
      <path id="Path_17680" data-name="Path 17680" d="M55,239a3.429,3.429,0,0,0,3.429,3.429H99.575A3.429,3.429,0,0,0,103,239a24.025,24.025,0,0,0-13.3-21.475,15.43,15.43,0,1,0-21.4,0A24.025,24.025,0,0,0,55,239ZM70.43,206.43A8.572,8.572,0,1,1,79,215,8.582,8.582,0,0,1,70.43,206.43ZM79,221.859a17.175,17.175,0,0,1,16.8,13.715H62.2A17.175,17.175,0,0,1,79,221.859Z" transform="translate(-36.141 -154.14)" fill="#67407e" stroke="#fff" stroke-width="1.9"/>
    </g>
  </g>
</svg>
