<svg xmlns="http://www.w3.org/2000/svg" width="218.56" height="261.426" viewBox="0 0 218.56 261.426">
  <g id="Group_6160" data-name="Group 6160" transform="translate(-78.096 -312.312)">
    <g id="Group_6159" data-name="Group 6159">
      <g id="Group_6158" data-name="Group 6158">
        <g id="Group_6157" data-name="Group 6157">
          <g id="Group_4530" data-name="Group 4530" transform="translate(78.096 312.312)" opacity="0.27">
            <g id="Group_4396" data-name="Group 4396" transform="translate(0 0)">
              <path id="Path_12414" data-name="Path 12414" d="M947.807,2314.26a2.045,2.045,0,0,1,1.393,1.266,1.853,1.853,0,0,1-1.807,2.43c-1.263.019-2.526,0-3.79.005-1.474,0-2.947-.021-4.421.01a7.818,7.818,0,0,0-7.734,7.754c-.044,2.7-.009,5.4-.014,8.1a1.893,1.893,0,0,1-1.279,1.9,1.846,1.846,0,0,1-2.418-1.748c-.014-1.895-.021-3.789,0-5.683a36.9,36.9,0,0,1,.142-4.062,11.418,11.418,0,0,1,8.941-9.688c.568-.121,1.147-.193,1.721-.288Z" transform="translate(-927.724 -2314.26)" fill="#af9bbb"/>
              <path id="Path_12415" data-name="Path 12415" d="M977.966,2334.331a2.041,2.041,0,0,1-1.265,1.393,1.854,1.854,0,0,1-2.432-1.8c-.019-1.028,0-2.058-.005-3.086,0-1.707.023-3.415-.011-5.119a7.816,7.816,0,0,0-7.743-7.74c-2.7-.045-5.4-.014-8.1-.012a1.892,1.892,0,0,1-1.7-.86,1.834,1.834,0,0,1,.9-2.723c.1-.039.189-.081.284-.121h9.265a1.77,1.77,0,0,0,.267.059,11.509,11.509,0,0,1,10.26,9.062c.118.558.188,1.125.281,1.686Z" transform="translate(-759.405 -2314.26)" fill="#af9bbb"/>
              <path id="Path_12416" data-name="Path 12416" d="M977.966,2353.685c-.095.574-.165,1.155-.288,1.723a11.492,11.492,0,0,1-9.688,8.953,11.066,11.066,0,0,1-1.4.121q-4.158.019-8.316.007a1.846,1.846,0,0,1-1.779-2.419,1.886,1.886,0,0,1,1.895-1.277c2.574,0,5.147-.009,7.72,0a8.06,8.06,0,0,0,3.793-.844,7.7,7.7,0,0,0,4.267-5.928,9.537,9.537,0,0,0,.088-1.468q.013-3.806,0-7.613a1.888,1.888,0,0,1,.858-1.7,1.835,1.835,0,0,1,2.726.9c.037.095.079.19.119.284Z" transform="translate(-770.138 -2103.069)" fill="#af9bbb"/>
              <path id="Path_12417" data-name="Path 12417" d="M943.122,2364.436c-1.6,0-3.209.091-4.8-.018a11.416,11.416,0,0,1-10.288-9,12.512,12.512,0,0,1-.283-2.432c-.035-2.725-.017-5.451-.012-8.176a1.861,1.861,0,0,1,1.477-1.844,1.812,1.812,0,0,1,2.039,1.065,2.5,2.5,0,0,1,.176.953c.014,2.572.009,5.146.007,7.719a7.83,7.83,0,0,0,2.686,6.125,7.29,7.29,0,0,0,4.744,1.928c2.807.063,5.614.024,8.423.032a1.9,1.9,0,0,1,1.909,1.261,1.848,1.848,0,0,1-1.723,2.435c-1.449.018-2.9,0-4.351,0Z" transform="translate(-927.723 -2103.071)" fill="#af9bbb"/>
            </g>
          </g>
          <g id="id" transform="translate(101.132 361.953)">
            <path id="Path_17681" data-name="Path 17681" d="M135.02,169.027H17.743a2.535,2.535,0,0,0,0,5.07H135.02a2.535,2.535,0,0,0,0-5.07Zm0-10.139H17.743a2.535,2.535,0,0,0,0,5.07H135.02a2.535,2.535,0,0,0,0-5.07Zm15.209-33.036a2.535,2.535,0,0,0-2.535,2.535v48.245a7.613,7.613,0,0,1-7.6,7.6H12.674a7.613,7.613,0,0,1-7.6-7.6V95.645a7.613,7.613,0,0,1,7.6-7.6h79.2a2.535,2.535,0,0,0,0-5.07h-79.2A12.688,12.688,0,0,0,0,95.645v80.986a12.688,12.688,0,0,0,12.674,12.674H140.089a12.688,12.688,0,0,0,12.674-12.674V128.386A2.535,2.535,0,0,0,150.228,125.852ZM136.261,50.188A36.783,36.783,0,0,0,101.23,98.18H83.648a2.535,2.535,0,1,0,0,5.07h19.639a36.841,36.841,0,0,0,3.042,5.07H83.648a2.535,2.535,0,1,0,0,5.07H110.7a36.772,36.772,0,1,0,25.561-63.2Zm0,68.492a31.711,31.711,0,1,1,31.711-31.711A31.747,31.747,0,0,1,136.261,118.68ZM24.44,153.339a14.249,14.249,0,0,0,3.442.479H58.173c6.447.126,12.807-5.634,12.674-12.674v-30.29A12.688,12.688,0,0,0,58.173,98.18H27.883a12.688,12.688,0,0,0-12.674,12.674v30.29A12.694,12.694,0,0,0,24.44,153.339Zm3.745-4.591a15.566,15.566,0,0,1,29.684,0ZM33.319,123.1a9.709,9.709,0,1,1,9.709,9.709A9.72,9.72,0,0,1,33.319,123.1ZM20.278,110.854a7.613,7.613,0,0,1,7.6-7.6H58.173a7.613,7.613,0,0,1,7.6,7.6v30.29a7.6,7.6,0,0,1-3.068,6.1A20.784,20.784,0,0,0,51.96,134.861a14.778,14.778,0,1,0-17.865,0,20.785,20.785,0,0,0-10.749,12.383,7.6,7.6,0,0,1-3.068-6.1ZM148.91,78.07,131.326,95.655a.631.631,0,0,1-.891,0l-6.823-6.823a2.535,2.535,0,0,0-3.585,3.585l6.823,6.823a5.706,5.706,0,0,0,8.061,0L152.5,81.655a2.535,2.535,0,0,0-3.585-3.585ZM135.02,138.609H83.648a2.535,2.535,0,0,0,0,5.07H135.02a2.535,2.535,0,0,0,0-5.07Zm0,10.139H83.648a2.535,2.535,0,1,0,0,5.07H135.02a2.535,2.535,0,1,0,0-5.07Z" transform="translate(0 -50.188)" fill="#67407e" stroke="#fff" stroke-width="1"/>
          </g>
        </g>
      </g>
    </g>
  </g>
</svg>
