<svg xmlns="http://www.w3.org/2000/svg" width="16.078" height="18.76" viewBox="0 0 16.078 18.76">
  <g id="Icon_ionic-md-finger-print" data-name="Icon ionic-md-finger-print" transform="translate(-4.5 -2.25)">
    <path id="Path_13438" data-name="Path 13438" d="M5.09,11.012a.587.587,0,0,1-.511-.879,8.841,8.841,0,0,1,7.96-4.192,9.362,9.362,0,0,1,5.586,1.692A9.477,9.477,0,0,1,20.475,10.1a.582.582,0,0,1-.155.812.6.6,0,0,1-.821-.155A7.918,7.918,0,0,0,12.54,7.106,7.671,7.671,0,0,0,5.6,10.719.578.578,0,0,1,5.09,11.012Z" transform="translate(0 -1.493)" fill="#67407e"/>
    <path id="Path_13439" data-name="Path 13439" d="M15.48,23.984a.583.583,0,0,1-.147-.017,7.8,7.8,0,0,1-4.983-4.677l-.008-.033c-.029-.1-.75-2.592.356-4.049a2.712,2.712,0,0,1,2.295-1,2.445,2.445,0,0,1,2.1.913,4.57,4.57,0,0,1,.691,1.721c.314,1.244.54,1.9,1.847,1.964a1.349,1.349,0,0,0,1.164-.6,3.5,3.5,0,0,0,.243-3.2,6.693,6.693,0,0,0-6.047-4.225,6.139,6.139,0,0,0-3.97,1.4,6.444,6.444,0,0,0-1.985,2.923c-.645,2.043.2,5.255.209,5.285a.581.581,0,0,1-.419.712.6.6,0,0,1-.724-.415c-.038-.147-.942-3.572-.2-5.934A7.442,7.442,0,0,1,17.75,11.334a8.17,8.17,0,0,1,2.387,3.241,4.629,4.629,0,0,1-.394,4.3,2.508,2.508,0,0,1-2.177,1.08c-2.236-.113-2.638-1.692-2.931-2.843-.3-1.181-.494-1.75-1.646-1.75a1.578,1.578,0,0,0-1.353.54,2.854,2.854,0,0,0-.364,1.842,6.014,6.014,0,0,0,.2,1.164c.092.234,1.29,3.2,4.158,3.924a.582.582,0,0,1,.427.708A.594.594,0,0,1,15.48,23.984Z" transform="translate(-0.449 -2.975)" fill="#67407e"/>
    <path id="Path_13440" data-name="Path 13440" d="M12.389,25.241a.6.6,0,0,1-.431-.184A9.407,9.407,0,0,1,9.4,19.7v-.013A6.255,6.255,0,0,1,10.714,14.9a4.854,4.854,0,0,1,3.79-1.528,4.7,4.7,0,0,1,4.317,2.575,7.239,7.239,0,0,1,.812,2.492.592.592,0,0,1-1.177.121h0a6.061,6.061,0,0,0-.691-2.081A3.532,3.532,0,0,0,14.5,14.542a3.714,3.714,0,0,0-2.906,1.135,5.144,5.144,0,0,0-1.026,3.861,8.258,8.258,0,0,0,2.249,4.723.579.579,0,0,1-.029.825A.594.594,0,0,1,12.389,25.241Z" transform="translate(-1.964 -4.499)" fill="#67407e"/>
    <path id="Path_13441" data-name="Path 13441" d="M22.1,26.777a4.87,4.87,0,0,1-3.178-1.051A5.868,5.868,0,0,1,17,21.953a.59.59,0,0,1,1.177-.092,4.753,4.753,0,0,0,1.5,2.969,4.061,4.061,0,0,0,3.12.737.589.589,0,0,1,.653.515.581.581,0,0,1-.519.645A7.167,7.167,0,0,1,22.1,26.777Z" transform="translate(-5.055 -7.714)" fill="#67407e"/>
    <path id="Path_13442" data-name="Path 13442" d="M19.532,3.531A10.082,10.082,0,0,0,14.039,2.25,9.854,9.854,0,0,0,8.482,3.577a.457.457,0,0,0-.071.054.013.013,0,0,1-.008,0h0A.582.582,0,0,0,8.8,4.654a.6.6,0,0,0,.343-.109h0l0,0c.017-.013,1.52-1.131,4.9-1.131s4.887,1.122,4.9,1.131l0,0,.008-.008a.587.587,0,1,0,.586-1Z" transform="translate(-1.499)" fill="#67407e"/>
  </g>
</svg>
