<svg xmlns="http://www.w3.org/2000/svg" width="16.94" height="16.883" viewBox="0 0 16.94 16.883">
  <g id="money-flow" transform="translate(0.16 -0.026)">
    <path id="Path_12793" data-name="Path 12793" d="M3.809,14.434l-.266-1.881a.489.489,0,0,0-.969.137l.06.421A7.341,7.341,0,0,1,9.835,1.3a.49.49,0,1,0,.2-.957,8.321,8.321,0,0,0-8.17,13.38L1.4,13.634a.49.49,0,1,0-.185.961l1.978.38a.491.491,0,0,0,.619-.541Z" transform="translate(0 0)" fill="#fafafa" stroke="#67407e" stroke-width="0.2"/>
    <path id="Path_12794" data-name="Path 12794" d="M201.1,59.383A8.34,8.34,0,0,0,199.755,57l.473.091a.49.49,0,1,0,.185-.961l-1.979-.38a.491.491,0,0,0-.618.541l.266,1.881a.489.489,0,1,0,.969-.137l-.06-.421a7.335,7.335,0,0,1-7.2,11.81.49.49,0,1,0-.2.957,8.31,8.31,0,0,0,9.519-11Z" transform="translate(-184.958 -53.76)" fill="#fafafa" stroke="#67407e" stroke-width="0.2"/>
    <circle id="Ellipse_373" data-name="Ellipse 373" cx="5" cy="5" r="5" transform="translate(3.262 3.158)" fill="#fafafa"/>
    <path id="Path_13390" data-name="Path 13390" d="M198.24,161.68v-.333a1.152,1.152,0,1,0,.02-2.3h-.837a.355.355,0,1,1,.006-.71h.8a.536.536,0,0,1,.382.174.4.4,0,0,0,.582-.544,1.336,1.336,0,0,0-.954-.426V157.2a.4.4,0,0,0-.8,0v.333a1.152,1.152,0,1,0-.02,2.3h.837a.355.355,0,0,1,0,.71h-.88a.541.541,0,0,1-.3-.1.4.4,0,0,0-.455.654,1.33,1.33,0,0,0,.815.244v.333a.4.4,0,1,0,.8,0Z" transform="translate(-189.509 -150.933)" fill="#562f6d"/>
  </g>
</svg>
