<svg xmlns="http://www.w3.org/2000/svg" width="22.843" height="13.706" viewBox="0 0 22.843 13.706">
  <g id="Group_5928" data-name="Group 5928" transform="translate(-103.175 -760.185)">
    <ellipse id="Ellipse_382" data-name="Ellipse 382" cx="4.028" cy="5.754" rx="4.028" ry="5.754" transform="translate(111.03 761.123)" fill="#ffa600"/>
    <path id="Icon_awesome-money-bill" data-name="Icon awesome-money-bill" d="M21.7,4.5H1.142A1.142,1.142,0,0,0,0,5.642V17.063a1.142,1.142,0,0,0,1.142,1.142H21.7a1.142,1.142,0,0,0,1.142-1.142V5.642A1.142,1.142,0,0,0,21.7,4.5ZM1.713,16.492V14.208A2.284,2.284,0,0,1,4,16.492Zm0-7.995V6.213H4A2.284,2.284,0,0,1,1.713,8.5Zm9.708,6.282a3.18,3.18,0,0,1-2.855-3.426,3.18,3.18,0,0,1,2.855-3.426,3.18,3.18,0,0,1,2.855,3.426A3.18,3.18,0,0,1,11.421,14.779Zm9.708,1.713H18.845a2.284,2.284,0,0,1,2.284-2.284Zm0-7.995a2.284,2.284,0,0,1-2.284-2.284h2.284Z" transform="translate(103.175 755.685)" fill="#67407e"/>
  </g>
</svg>
