<svg xmlns="http://www.w3.org/2000/svg" width="29.367" height="19.236" viewBox="0 0 29.367 19.236">
  <path id="Icon_payment-credit-card" data-name="Icon payment-credit-card" d="M33.571,16.35a2.086,2.086,0,0,1,2.017,2.017v15.2a2.086,2.086,0,0,1-2.017,2.017H8.238a1.836,1.836,0,0,1-1.408-.61,1.836,1.836,0,0,1-.61-1.408v-15.2a1.836,1.836,0,0,1,.61-1.408,1.839,1.839,0,0,1,1.408-.61H33.571Zm-25.333,1.6q-.235,0-.282.141a.406.406,0,0,0-.141.282v2.815H33.993V18.367a.406.406,0,0,0-.141-.282q-.047-.141-.282-.141H8.238ZM33.571,33.99q.234,0,.282-.141a.405.405,0,0,0,.141-.282v-7.6H7.816v7.6a.406.406,0,0,0,.141.282q.046.141.282.141Zm-24.16-1.6V30.753h3.237v1.642Zm4.832,0V30.753h4.785v1.642Z" transform="translate(-6.221 -16.35)" fill="#67407e"/>
</svg>
