<svg width="16" height="16" viewBox="0 0 16 16" fill="none" xmlns="http://www.w3.org/2000/svg">
<path d="M6.71333 0.447617C7.07369 0.158503 7.5293 0 8 0C8.4707 0 8.92631 0.158503 9.28667 0.447617L15.2867 5.26469C15.51 5.44388 15.6896 5.66754 15.8128 5.91999C15.936 6.17245 15.9999 6.44759 16 6.72611V14.727C16 15.0646 15.8595 15.3884 15.6095 15.6271C15.3594 15.8659 15.0203 16 14.6667 16H11C10.6464 16 10.3072 15.8659 10.0572 15.6271C9.80714 15.3884 9.66667 15.0646 9.66667 14.727V10.2714H6.33333V14.727C6.33333 15.0646 6.19286 15.3884 5.94281 15.6271C5.69276 15.8659 5.35362 16 5 16H1.33333C0.979711 16 0.640573 15.8659 0.390524 15.6271C0.140476 15.3884 0 15.0646 0 14.727V6.72547C7.37732e-05 6.44695 0.0639639 6.17181 0.18719 5.91936C0.310416 5.6669 0.489995 5.44324 0.713333 5.26406L6.71333 0.446981V0.447617Z" fill="#0F1E72"/>
</svg>
