<svg xmlns="http://www.w3.org/2000/svg" width="77.373" height="58.28" viewBox="0 0 77.373 58.28">
  <g id="id-card" transform="translate(0.5 -2.5)">
    <g id="Group_5029" data-name="Group 5029" transform="translate(0 3)">
      <path id="Path_13215" data-name="Path 13215" d="M68.418,60.28H7.956A7.967,7.967,0,0,1,0,52.324V10.956A7.967,7.967,0,0,1,7.956,3H68.418a7.967,7.967,0,0,1,7.956,7.956V52.324A7.967,7.967,0,0,1,68.418,60.28ZM7.956,6.182a4.779,4.779,0,0,0-4.773,4.773V52.324A4.779,4.779,0,0,0,7.956,57.1H68.418a4.779,4.779,0,0,0,4.773-4.773V10.956a4.779,4.779,0,0,0-4.773-4.773Z" transform="translate(0 -3)" fill="#67407e" stroke="#fff" stroke-width="1"/>
    </g>
    <g id="Group_5030" data-name="Group 5030" transform="translate(15.911 15.729)">
      <path id="Path_13216" data-name="Path 13216" d="M12.956,22.911a7.956,7.956,0,1,1,7.956-7.956A7.967,7.967,0,0,1,12.956,22.911Zm0-12.729a4.773,4.773,0,1,0,4.773,4.773A4.779,4.779,0,0,0,12.956,10.182Z" transform="translate(-5 -7)" fill="#67407e" stroke="#fff" stroke-width="1"/>
    </g>
    <g id="Group_5031" data-name="Group 5031" transform="translate(9.547 34.822)">
      <path id="Path_13217" data-name="Path 13217" d="M30.049,25.729a1.592,1.592,0,0,1-1.591-1.591V20.956a4.779,4.779,0,0,0-4.773-4.773H10.956a4.779,4.779,0,0,0-4.773,4.773v3.182a1.591,1.591,0,0,1-3.182,0V20.956A7.967,7.967,0,0,1,10.956,13H23.684a7.967,7.967,0,0,1,7.956,7.956v3.182A1.592,1.592,0,0,1,30.049,25.729Z" transform="translate(-3 -13)" fill="#67407e" stroke="#fff" stroke-width="1"/>
    </g>
    <g id="Group_5032" data-name="Group 5032" transform="translate(44.551 18.911)">
      <path id="Path_13218" data-name="Path 13218" d="M34.684,11.182H15.591a1.591,1.591,0,0,1,0-3.182H34.684a1.591,1.591,0,0,1,0,3.182Z" transform="translate(-14 -8)" fill="#67407e" stroke="#fff" stroke-width="1"/>
    </g>
    <g id="Group_5033" data-name="Group 5033" transform="translate(44.551 31.64)">
      <path id="Path_13219" data-name="Path 13219" d="M34.684,15.182H15.591a1.591,1.591,0,0,1,0-3.182H34.684a1.591,1.591,0,0,1,0,3.182Z" transform="translate(-14 -12)" fill="#67407e" stroke="#fff" stroke-width="1"/>
    </g>
    <g id="Group_5034" data-name="Group 5034" transform="translate(44.551 44.369)">
      <path id="Path_13220" data-name="Path 13220" d="M34.684,19.182H15.591a1.591,1.591,0,0,1,0-3.182H34.684a1.591,1.591,0,0,1,0,3.182Z" transform="translate(-14 -16)" fill="#67407e" stroke="#fff" stroke-width="1"/>
    </g>
  </g>
</svg>
