<svg xmlns="http://www.w3.org/2000/svg" width="218.56" height="261.426" viewBox="0 0 218.56 261.426">
  <g id="Group_6169" data-name="Group 6169" transform="translate(-78.096 -312.312)">
    <g id="Group_6168" data-name="Group 6168">
      <g id="Group_6167" data-name="Group 6167">
        <g id="Group_6166" data-name="Group 6166">
          <g id="Group_4530" data-name="Group 4530" transform="translate(78.096 312.312)" opacity="0.27">
            <g id="Group_4396" data-name="Group 4396" transform="translate(0 0)">
              <path id="Path_12414" data-name="Path 12414" d="M947.807,2314.26a2.045,2.045,0,0,1,1.393,1.266,1.853,1.853,0,0,1-1.807,2.43c-1.263.019-2.526,0-3.79.005-1.474,0-2.947-.021-4.421.01a7.818,7.818,0,0,0-7.734,7.754c-.044,2.7-.009,5.4-.014,8.1a1.893,1.893,0,0,1-1.279,1.9,1.846,1.846,0,0,1-2.418-1.748c-.014-1.895-.021-3.789,0-5.683a36.9,36.9,0,0,1,.142-4.062,11.418,11.418,0,0,1,8.941-9.688c.568-.121,1.147-.193,1.721-.288Z" transform="translate(-927.724 -2314.26)" fill="#af9bbb"/>
              <path id="Path_12415" data-name="Path 12415" d="M977.966,2334.331a2.041,2.041,0,0,1-1.265,1.393,1.854,1.854,0,0,1-2.432-1.8c-.019-1.028,0-2.058-.005-3.086,0-1.707.023-3.415-.011-5.119a7.816,7.816,0,0,0-7.743-7.74c-2.7-.045-5.4-.014-8.1-.012a1.892,1.892,0,0,1-1.7-.86,1.834,1.834,0,0,1,.9-2.723c.1-.039.189-.081.284-.121h9.265a1.77,1.77,0,0,0,.267.059,11.509,11.509,0,0,1,10.26,9.062c.118.558.188,1.125.281,1.686Z" transform="translate(-759.405 -2314.26)" fill="#af9bbb"/>
              <path id="Path_12416" data-name="Path 12416" d="M977.966,2353.685c-.095.574-.165,1.155-.288,1.723a11.492,11.492,0,0,1-9.688,8.953,11.066,11.066,0,0,1-1.4.121q-4.158.019-8.316.007a1.846,1.846,0,0,1-1.779-2.419,1.886,1.886,0,0,1,1.895-1.277c2.574,0,5.147-.009,7.72,0a8.06,8.06,0,0,0,3.793-.844,7.7,7.7,0,0,0,4.267-5.928,9.537,9.537,0,0,0,.088-1.468q.013-3.806,0-7.613a1.888,1.888,0,0,1,.858-1.7,1.835,1.835,0,0,1,2.726.9c.037.095.079.19.119.284Z" transform="translate(-770.138 -2103.069)" fill="#af9bbb"/>
              <path id="Path_12417" data-name="Path 12417" d="M943.122,2364.436c-1.6,0-3.209.091-4.8-.018a11.416,11.416,0,0,1-10.288-9,12.512,12.512,0,0,1-.283-2.432c-.035-2.725-.017-5.451-.012-8.176a1.861,1.861,0,0,1,1.477-1.844,1.812,1.812,0,0,1,2.039,1.065,2.5,2.5,0,0,1,.176.953c.014,2.572.009,5.146.007,7.719a7.83,7.83,0,0,0,2.686,6.125,7.29,7.29,0,0,0,4.744,1.928c2.807.063,5.614.024,8.423.032a1.9,1.9,0,0,1,1.909,1.261,1.848,1.848,0,0,1-1.723,2.435c-1.449.018-2.9,0-4.351,0Z" transform="translate(-927.723 -2103.071)" fill="#af9bbb"/>
            </g>
          </g>
          <g id="driver-license" transform="translate(100 378.258)">
            <g id="Group_6139" data-name="Group 6139" transform="translate(0 0)">
              <circle id="Ellipse_422" data-name="Ellipse 422" cx="3.429" cy="3.429" r="3.429" transform="translate(89.05 111.437)" fill="#67407e" stroke="#fff" stroke-width="1.9"/>
              <path id="Path_17676" data-name="Path 17676" d="M174.208,93.972a17.132,17.132,0,0,0-15.8-10.472H17.144A17.132,17.132,0,0,0,0,100.644v84.006a17.132,17.132,0,0,0,17.144,17.144H77.049a3.429,3.429,0,0,0,0-6.858H17.144A10.326,10.326,0,0,1,6.858,184.651V104.073H168.7v80.578a10.326,10.326,0,0,1-10.286,10.286h-50.5a3.429,3.429,0,1,0,0,6.858h50.5a17.133,17.133,0,0,0,17.145-17.144V100.644a17.012,17.012,0,0,0-1.348-6.673ZM17.144,90.358H158.412a10.331,10.331,0,0,1,9.69,6.858H7.455A10.331,10.331,0,0,1,17.144,90.358Z" transform="translate(0 -83.5)" fill="#67407e" stroke="#fff" stroke-width="1.9"/>
              <circle id="Ellipse_423" data-name="Ellipse 423" cx="3.429" cy="3.429" r="3.429" transform="translate(132.01 83.835)" fill="#67407e" stroke="#fff" stroke-width="1.9"/>
              <circle id="Ellipse_424" data-name="Ellipse 424" cx="3.429" cy="3.429" r="3.429" transform="translate(116.58 83.835)" fill="#67407e" stroke="#fff" stroke-width="1.9"/>
              <circle id="Ellipse_425" data-name="Ellipse 425" cx="3.429" cy="3.429" r="3.429" transform="translate(85.721 83.835)" fill="#67407e" stroke="#fff" stroke-width="1.9"/>
              <circle id="Ellipse_426" data-name="Ellipse 426" cx="3.429" cy="3.429" r="3.429" transform="translate(101.151 83.835)" fill="#67407e" stroke="#fff" stroke-width="1.9"/>
              <path id="Path_17677" data-name="Path 17677" d="M253.429,278.858h23.316a3.429,3.429,0,0,0,0-6.858H253.429a3.429,3.429,0,0,0,0,6.858Z" transform="translate(-164.279 -207.366)" fill="#67407e" stroke="#fff" stroke-width="1.9"/>
              <path id="Path_17678" data-name="Path 17678" d="M253.429,238.858h46.289a3.429,3.429,0,1,0,0-6.858H253.429a3.429,3.429,0,0,0,0,6.858Z" transform="translate(-164.279 -181.082)" fill="#67407e" stroke="#fff" stroke-width="1.9"/>
              <path id="Path_17679" data-name="Path 17679" d="M253.429,198.858h46.289a3.429,3.429,0,0,0,0-6.858H253.429a3.429,3.429,0,0,0,0,6.858Z" transform="translate(-164.279 -154.797)" fill="#67407e" stroke="#fff" stroke-width="1.9"/>
              <path id="Path_17680" data-name="Path 17680" d="M55,239a3.429,3.429,0,0,0,3.429,3.429H99.575A3.429,3.429,0,0,0,103,239a24.025,24.025,0,0,0-13.3-21.475,15.43,15.43,0,1,0-21.4,0A24.025,24.025,0,0,0,55,239ZM70.43,206.43A8.572,8.572,0,1,1,79,215,8.582,8.582,0,0,1,70.43,206.43ZM79,221.859a17.175,17.175,0,0,1,16.8,13.715H62.2A17.175,17.175,0,0,1,79,221.859Z" transform="translate(-36.141 -154.14)" fill="#67407e" stroke="#fff" stroke-width="1.9"/>
            </g>
          </g>
        </g>
      </g>
    </g>
  </g>
</svg>
