<svg xmlns="http://www.w3.org/2000/svg" width="218.561" height="261.426" viewBox="0 0 218.561 261.426">
  <g id="Group_6165" data-name="Group 6165" transform="translate(-78.095 -312.312)">
    <g id="Group_6164" data-name="Group 6164">
      <g id="Group_6163" data-name="Group 6163">
        <g id="Group_6162" data-name="Group 6162">
          <g id="Group_6161" data-name="Group 6161">
            <g id="Group_6141" data-name="Group 6141" transform="translate(125.158 404.384)">
              <g id="Group_6140" data-name="Group 6140">
                <path id="Path_17682" data-name="Path 17682" d="M95.9,134.152a37.316,37.316,0,1,0,37.316,37.316A37.317,37.317,0,0,0,95.9,134.152Zm27.617,23.323H110.069a60.41,60.41,0,0,0-5.346-15.673A31.037,31.037,0,0,1,123.518,157.475ZM105.23,171.468a66.113,66.113,0,0,1-.494,7.774H87.067a61.654,61.654,0,0,1-.006-15.548h17.682A66.816,66.816,0,0,1,105.23,171.468ZM95,140.462c.307-.009.6-.091.9-.091s.6.084.914.093a51.677,51.677,0,0,1,6.89,17.011H88.1A51.607,51.607,0,0,1,95,140.462ZM87.08,141.8a60.591,60.591,0,0,0-5.342,15.673H68.285A31.044,31.044,0,0,1,87.08,141.8ZM64.8,171.468a30.722,30.722,0,0,1,1.1-7.774H80.793a73.371,73.371,0,0,0-.44,7.774,72.183,72.183,0,0,0,.449,7.774H65.908A30.721,30.721,0,0,1,64.8,171.468Zm3.48,13.994H81.753a61.668,61.668,0,0,0,5.318,15.67A31.04,31.04,0,0,1,68.285,185.462ZM96.8,202.474c-.307.009-.594.091-.9.091s-.6-.082-.9-.091a52.051,52.051,0,0,1-6.89-17.012H103.7A51.946,51.946,0,0,1,96.8,202.474Zm7.931-1.342a61.494,61.494,0,0,0,5.316-15.67h13.467A31.046,31.046,0,0,1,104.735,201.132ZM111,179.243a72.5,72.5,0,0,0,.448-7.774,73.384,73.384,0,0,0-.439-7.774h14.883a27.926,27.926,0,0,1,0,15.548Z" transform="translate(-58.585 -134.152)" fill="#67407e" stroke="#fff" stroke-width="3"/>
              </g>
            </g>
            <g id="Group_6143" data-name="Group 6143" transform="translate(131.378 497.675)">
              <g id="Group_6142" data-name="Group 6142">
                <rect id="Rectangle_2699" data-name="Rectangle 2699" width="62.194" height="6.219" fill="#67407e" stroke="#fff" stroke-width="3"/>
              </g>
            </g>
            <g id="Group_6145" data-name="Group 6145" transform="translate(233.648 452.875)">
              <g id="Group_6144" data-name="Group 6144" transform="translate(0 0)">
                <rect id="Rectangle_2700" data-name="Rectangle 2700" width="12.439" height="6.219" transform="matrix(0.259, -0.966, 0.966, 0.259, 0, 12.015)" fill="#67407e" stroke="#fff" stroke-width="3"/>
              </g>
            </g>
            <g id="Group_6147" data-name="Group 6147" transform="translate(219.161 476.893)">
              <g id="Group_6146" data-name="Group 6146" transform="translate(0 0)">
                <rect id="Rectangle_2701" data-name="Rectangle 2701" width="43.535" height="6.219" transform="matrix(0.259, -0.966, 0.966, 0.259, 0, 42.05)" fill="#67407e" stroke="#fff" stroke-width="3"/>
              </g>
            </g>
            <g id="Group_6156" data-name="Group 6156">
              <path id="Path_12414" data-name="Path 12414" d="M947.807,2314.26a2.045,2.045,0,0,1,1.393,1.266,1.853,1.853,0,0,1-1.807,2.43c-1.263.019-2.526,0-3.79.005-1.474,0-2.947-.021-4.421.01a7.818,7.818,0,0,0-7.734,7.754c-.044,2.7-.009,5.4-.014,8.1a1.893,1.893,0,0,1-1.279,1.9,1.846,1.846,0,0,1-2.418-1.748c-.014-1.895-.021-3.789,0-5.683a36.9,36.9,0,0,1,.142-4.062,11.418,11.418,0,0,1,8.941-9.688c.568-.121,1.147-.193,1.721-.288Z" transform="translate(-849.629 -2001.948)" fill="#af9bbb"/>
              <path id="Path_12415" data-name="Path 12415" d="M977.966,2334.331a2.041,2.041,0,0,1-1.265,1.393,1.854,1.854,0,0,1-2.432-1.8c-.019-1.028,0-2.058-.005-3.086,0-1.707.023-3.415-.011-5.119a7.816,7.816,0,0,0-7.743-7.74c-2.7-.045-5.4-.014-8.1-.012a1.892,1.892,0,0,1-1.7-.86,1.834,1.834,0,0,1,.9-2.723c.1-.039.189-.081.284-.121h9.265a1.77,1.77,0,0,0,.267.059,11.509,11.509,0,0,1,10.26,9.062c.118.558.188,1.125.281,1.686Z" transform="translate(-681.31 -2001.948)" fill="#af9bbb"/>
              <path id="Path_12416" data-name="Path 12416" d="M977.966,2353.685c-.095.574-.165,1.155-.288,1.723a11.492,11.492,0,0,1-9.688,8.953,11.066,11.066,0,0,1-1.4.121q-4.158.019-8.316.007a1.846,1.846,0,0,1-1.779-2.419,1.886,1.886,0,0,1,1.895-1.277c2.574,0,5.147-.009,7.72,0a8.06,8.06,0,0,0,3.793-.844,7.7,7.7,0,0,0,4.267-5.928,9.537,9.537,0,0,0,.088-1.468q.013-3.806,0-7.613a1.888,1.888,0,0,1,.858-1.7,1.835,1.835,0,0,1,2.726.9c.037.095.079.19.119.284Z" transform="translate(-692.042 -1790.757)" fill="#af9bbb"/>
              <path id="Path_12417" data-name="Path 12417" d="M943.122,2364.436c-1.6,0-3.209.091-4.8-.018a11.416,11.416,0,0,1-10.288-9,12.512,12.512,0,0,1-.283-2.432c-.035-2.725-.017-5.451-.012-8.176a1.861,1.861,0,0,1,1.477-1.844,1.812,1.812,0,0,1,2.039,1.065,2.5,2.5,0,0,1,.176.953c.014,2.572.009,5.146.007,7.719a7.83,7.83,0,0,0,2.686,6.125,7.29,7.29,0,0,0,4.744,1.928c2.807.063,5.614.024,8.423.032a1.9,1.9,0,0,1,1.909,1.261,1.848,1.848,0,0,1-1.723,2.435c-1.449.018-2.9,0-4.351,0Z" transform="translate(-849.627 -1790.759)" fill="#af9bbb"/>
              <g id="Group_6149" data-name="Group 6149" transform="translate(106.5 352.238)">
                <g id="Group_6148" data-name="Group 6148">
                  <path id="Path_17683" data-name="Path 17683" d="M175.5,19.743,103.416.427a12.425,12.425,0,0,0-15.234,8.8l-6.5,24.266H16.8a6.219,6.219,0,0,0-6.219,6.219V164.1a6.219,6.219,0,0,0,6.219,6.219H88.639l43.405,11.63a12.425,12.425,0,0,0,15.234-8.8L184.3,34.977A12.439,12.439,0,0,0,175.5,19.743ZM16.8,164.1V39.708H110.1a6.226,6.226,0,0,1,6.219,6.219V157.876A6.226,6.226,0,0,1,110.1,164.1ZM178.294,33.368,141.271,171.54a6.205,6.205,0,0,1-7.618,4.4l-21.687-5.811a12.406,12.406,0,0,0,10.568-12.25V108.571l3.186.854,3.22-12.015-6.008-1.61-.4,1.486V47.862l6.347,1.7,7.355,24.046,5.149,1.38L140.9,52.782l9.1,2.438,4,7.05,3.433.92-.59-9.816,5.419-8.206-3.433-.92-6.986,4.107-9.1-2.438L154.262,26.93l-5.149-1.38L130.721,42.7l-9.7-2.6a12.387,12.387,0,0,0-10.925-6.61H88.117l6.071-22.656a6.205,6.205,0,0,1,7.618-4.4L173.9,25.752a6.221,6.221,0,0,1,4.4,7.616Z" transform="translate(-10.585 0)" fill="#67407e" stroke="#fff" stroke-width="3"/>
                </g>
              </g>
            </g>
            <g id="Group_6151" data-name="Group 6151" transform="translate(233.659 436.435)">
              <g id="Group_6150" data-name="Group 6150" transform="translate(0 0)">
                <rect id="Rectangle_2702" data-name="Rectangle 2702" width="6.219" height="6.114" transform="translate(0 6.012) rotate(-75.179)" fill="#67407e" stroke="#fff" stroke-width="3"/>
              </g>
            </g>
            <g id="Group_6153" data-name="Group 6153" transform="translate(245.463 439.571)">
              <g id="Group_6152" data-name="Group 6152">
                <rect id="Rectangle_2703" data-name="Rectangle 2703" width="6.219" height="6.114" transform="translate(0 6.012) rotate(-75.179)" fill="#67407e" stroke="#fff" stroke-width="3"/>
              </g>
            </g>
            <g id="Group_6155" data-name="Group 6155" transform="translate(221.855 433.309)">
              <g id="Group_6154" data-name="Group 6154" transform="translate(0)">
                <rect id="Rectangle_2704" data-name="Rectangle 2704" width="6.219" height="6.114" transform="translate(0 6.012) rotate(-75.179)" fill="#67407e" stroke="#fff" stroke-width="3"/>
              </g>
            </g>
          </g>
        </g>
      </g>
    </g>
  </g>
</svg>
