<svg id="Group_5910" data-name="Group 5910" xmlns="http://www.w3.org/2000/svg" width="22.76" height="21.216" viewBox="0 0 22.76 21.216">
  <path id="Path_13428" data-name="Path 13428" d="M392.213,207.68c-3.384,4.372-4.52,2.41-6.316-2.047a17.806,17.806,0,0,1-1.071-3.942c-.084-.567-.141-1.14-.171-1.721-.006-.123-.013-.245-.015-.368.664-.216,1.341-.406,2.027-.56a21.682,21.682,0,0,1,7.338-.383q1.036.126,2.074.355a21.045,21.045,0,0,1,2.065.565,19.467,19.467,0,0,0-.2-2.192q-1.07-.309-2.153-.509t-2.151-.3a23.52,23.52,0,0,0-6.828.356c-.711.14-1.417.314-2.109.521q-1.067.316-2.09.726c-.028.624-.027,1.256.005,1.9.005.1.014.2.019.3a20.01,20.01,0,0,0,.255,2.126,19.559,19.559,0,0,0,.473,2.036,19.267,19.267,0,0,0,.679,1.946,19.533,19.533,0,0,0,3.968,6.119,15.291,15.291,0,0,0,1.531-1.344,15.665,15.665,0,0,0,2.667-3.577Z" transform="translate(-379.231 -196.471)" fill="#67407e" fill-rule="evenodd"/>
  <path id="Path_13426" data-name="Path 13426" d="M378.491,230.924c5.479.744,4.345,2.707,1.383,6.49a17.617,17.617,0,0,1-1.347,1.529,18.241,18.241,0,0,1-1.533,1.372,17.123,17.123,0,0,1-1.405,1.008c-.1.069-.208.134-.307.2q-.786-.7-1.5-1.475a21.626,21.626,0,0,1-4-6.165q-.412-.961-.732-1.975a21.342,21.342,0,0,1-.542-2.072,19.345,19.345,0,0,0-1.8,1.271q.27,1.081.632,2.119c.242.69.514,1.359.813,2.014a23.626,23.626,0,0,0,3.722,5.735q.72.82,1.509,1.566c.534.512,1.095,1,1.669,1.447q.835-.435,1.642-.953c.084-.056.169-.112.249-.167a19.223,19.223,0,0,0,1.713-1.282,19.571,19.571,0,0,0,2.876-2.988,19.56,19.56,0,0,0,3.315-6.5,16.18,16.18,0,0,0-1.93-.652,15.56,15.56,0,0,0-4.428-.52Z" transform="translate(-366.709 -222.769)" fill="#ffa600" fill-rule="evenodd"/>
  <path id="Path_13427" data-name="Path 13427" d="M404.6,222.337c-2.095-5.116.171-5.116,4.932-4.443a17.25,17.25,0,0,1,3.947,1.045c.534.211,1.059.446,1.58.713.106.054.216.112.322.17q-.215,1.029-.527,2.035a21.58,21.58,0,0,1-3.337,6.548q-.63.836-1.346,1.616a20.381,20.381,0,0,1-1.522,1.507,19.82,19.82,0,0,0,2,.922c.533-.515,1.042-1.053,1.517-1.609s.923-1.123,1.337-1.711a23.465,23.465,0,0,0,3.106-6.092c.235-.683.434-1.379.6-2.087s.311-1.445.417-2.168c-.529-.338-1.077-.651-1.648-.944-.09-.047-.179-.09-.269-.137a21.017,21.017,0,0,0-1.968-.84,19.192,19.192,0,0,0-2-.608c-.671-.164-1.345-.292-2.02-.389a19.642,19.642,0,0,0-7.287.38,15.558,15.558,0,0,0,2.164,6.093Z" transform="translate(-394.869 -211.617)" fill="#67407e" fill-rule="evenodd"/>
</svg>
