<svg xmlns="http://www.w3.org/2000/svg" width="159.071" height="26.953" viewBox="0 0 159.071 26.953">
  <g id="Group_4992" data-name="Group 4992" transform="translate(-250.482 -297.376)">
    <g id="Group_4991" data-name="Group 4991" transform="translate(250.482 297.376)">
      <path id="Path_13119" data-name="Path 13119" d="M362.039,317.758l5.612-8.181h6.244l-9.169,12.014Z" transform="translate(-303.864 -303.215)" fill="#ffa600"/>
      <path id="Path_13120" data-name="Path 13120" d="M250.482,323.736v-26.36h12.844a10.725,10.725,0,0,1,7,2.074q2.529,2.075,2.53,6.3a8.7,8.7,0,0,1-.711,3.419,7.834,7.834,0,0,1-2.095,2.885,6.931,6.931,0,0,1-3.478,1.561l-.4-2.174,8.023,12.291h-8.142l-6.6-11.5,2.846,2.411h-5.414v9.09Zm6.4-13.793h5.375a3.813,3.813,0,0,0,2.688-.909,4.906,4.906,0,0,0,.1-5.77,3.272,3.272,0,0,0-2.509-.949h-5.652Z" transform="translate(-250.482 -297.376)" fill="#67407e"/>
      <path id="Path_13121" data-name="Path 13121" d="M311.834,329.551a11.04,11.04,0,0,1-5.315-1.245,8.82,8.82,0,0,1-3.6-3.557,11.179,11.179,0,0,1-1.284-5.514q0-5.217,2.589-8.082t7.41-2.865a9.16,9.16,0,0,1,5.355,1.423,8.135,8.135,0,0,1,2.983,4.149,19.728,19.728,0,0,1,.909,6.639H305.669l-.633-3.755h10.987l-.87,1.858a8.746,8.746,0,0,0-.909-4.505,3.168,3.168,0,0,0-2.845-1.3,3.7,3.7,0,0,0-2,.553,3.58,3.58,0,0,0-1.383,1.838,10.15,10.15,0,0,0-.494,3.537,6.409,6.409,0,0,0,1.363,4.387,5.554,5.554,0,0,0,4.367,1.541,9.5,9.5,0,0,0,2.194-.257,16.765,16.765,0,0,0,2.035-.613q.948-.356,1.62-.633v5.059a18.1,18.1,0,0,1-3.182.968A19.8,19.8,0,0,1,311.834,329.551Z" transform="translate(-274.961 -302.598)" fill="#67407e"/>
      <path id="Path_13122" data-name="Path 13122" d="M354.675,329.171l-5.454,7.983h-6.2l8.971-11.737Z" transform="translate(-294.762 -310.794)" fill="#67407e"/>
      <path id="Path_13123" data-name="Path 13123" d="M364.657,329.575h-7l-14.267-20h6.956Z" transform="translate(-294.943 -303.215)" fill="#67407e"/>
      <path id="Path_13124" data-name="Path 13124" d="M395.725,323.736l-7.39-26.36h7l4.624,20.472h-1.067l5.928-20.472h4.94l6.047,20.748h-1.186l4.664-20.748h7l-7.39,26.36h-6.323l-5.81-18.97H407.9l-5.849,18.97Z" transform="translate(-316.448 -297.376)" fill="#67407e"/>
      <path id="Path_13125" data-name="Path 13125" d="M468.215,329.828V310.107H474.1l.039,19.721Z" transform="translate(-354.672 -303.468)" fill="#67407e"/>
      <path id="Path_13126" data-name="Path 13126" d="M489.661,329.031v-17.9a8.3,8.3,0,0,1,1.976-1.087,24.326,24.326,0,0,1,3.261-1.107,14.184,14.184,0,0,1,3.7-.494,12.183,12.183,0,0,1,2.924.277,4.455,4.455,0,0,1,1.621.711v4.308a11.535,11.535,0,0,0-1.7-.237q-1.028-.08-2.134-.1t-2.094.019a12.779,12.779,0,0,0-1.66.159v15.452Z" transform="translate(-364.935 -302.67)" fill="#67407e"/>
      <path id="Path_13127" data-name="Path 13127" d="M528.806,329.551a11.036,11.036,0,0,1-5.315-1.245,8.819,8.819,0,0,1-3.6-3.557,11.185,11.185,0,0,1-1.285-5.514q0-5.217,2.589-8.082t7.41-2.865a9.162,9.162,0,0,1,5.356,1.423,8.138,8.138,0,0,1,2.983,4.149,19.742,19.742,0,0,1,.909,6.639H522.642l-.633-3.755H533l-.87,1.858a8.741,8.741,0,0,0-.909-4.505,3.167,3.167,0,0,0-2.845-1.3,3.7,3.7,0,0,0-2,.553,3.575,3.575,0,0,0-1.383,1.838,10.135,10.135,0,0,0-.495,3.537,6.407,6.407,0,0,0,1.364,4.387,5.553,5.553,0,0,0,4.367,1.541,9.49,9.49,0,0,0,2.193-.257,16.761,16.761,0,0,0,2.035-.613q.949-.356,1.62-.633v5.059a18.1,18.1,0,0,1-3.181.968A19.8,19.8,0,0,1,528.806,329.551Z" transform="translate(-378.787 -302.598)" fill="#67407e"/>
    </g>
  </g>
</svg>
