<svg width="235" height="282" viewBox="0 0 235 282" fill="none" xmlns="http://www.w3.org/2000/svg">
<path d="M100.853 252.501L99.0465 276.457L88.6279 276.244L87.2014 251.314L100.853 252.501Z" fill="#FFBE9D"/>
<path d="M99.373 273.298V273.964C99.373 273.964 111.078 278.797 111.185 281.023L87.8546 280.69L88.2879 272.931C90.001 273.784 91.8777 274.259 93.7905 274.322C95.7033 274.385 97.6073 274.036 99.373 273.298Z" fill="#0F1E72"/>
<path d="M103.046 277.677C102.959 277.677 102.826 277.191 103.093 276.644C103.359 276.097 103.832 275.891 103.872 275.977C103.912 276.064 103.619 276.351 103.406 276.804C103.193 277.257 103.146 277.671 103.046 277.677Z" fill="#263238"/>
<path d="M90.6076 275.477C90.3849 275.547 90.1947 275.694 90.0722 275.893C89.9497 276.091 89.9031 276.327 89.941 276.557C90.0023 276.782 90.1462 276.976 90.3438 277.099C90.5415 277.223 90.7785 277.267 91.0075 277.224C91.2453 277.153 91.4486 276.996 91.5789 276.785C91.7091 276.574 91.7572 276.322 91.7141 276.077C91.6322 275.846 91.4632 275.655 91.243 275.545C91.0228 275.436 90.7686 275.416 90.5343 275.491" fill="white"/>
<path d="M99.4464 274.064C99.4464 274.178 98.8731 274.224 98.3065 274.584C97.7399 274.944 97.4333 275.411 97.3333 275.364C97.2334 275.317 97.4067 274.664 98.0999 274.244C98.7931 273.824 99.473 273.964 99.4464 274.064Z" fill="#263238"/>
<path d="M101.879 275.111C101.879 275.224 101.413 275.411 101.019 275.884C100.626 276.357 100.506 276.871 100.393 276.864C100.28 276.857 100.213 276.197 100.713 275.631C101.213 275.064 101.879 275.004 101.879 275.111Z" fill="#263238"/>
<path d="M87.8546 280.737L87.9546 278.97L110.458 279.964C110.821 280.244 111.073 280.643 111.171 281.09L87.8546 280.737Z" fill="#263238"/>
<path d="M155.465 44.3359C155.465 44.3359 159.831 40.0231 160.991 39.2966C162.151 38.57 163.578 36.9369 164.477 36.5636C165.509 36.0295 166.504 35.4283 167.457 34.7638L169.23 32.5708C169.23 32.5708 170.563 32.4308 170.27 33.904L173.57 33.2374C173.57 33.2374 174.456 34.004 173.05 34.9105C172.366 35.4344 171.506 35.6733 170.65 35.5771L169.263 37.1235L169.503 37.9367L177.502 38.9833C177.463 39.3475 177.291 39.6846 177.02 39.9304C176.748 40.1762 176.395 40.3136 176.029 40.3164C174.696 40.3164 169.87 40.1098 169.87 40.1098L177.309 42.9161C177.309 42.9161 177.702 44.0559 175.376 43.7226C173.336 43.3486 171.32 42.8568 169.337 42.2495L168.67 42.8361L170.703 44.0226L172.603 46.4756C172.197 46.6573 171.744 46.7029 171.31 46.6056C170.876 46.5082 170.486 46.2732 170.197 45.9356L168.97 44.7358H167.19C167.19 44.7358 162.351 48.1153 160.731 47.3288L159.358 48.7086L155.465 44.3359Z" fill="#FFBE9D"/>
<path d="M169.643 38.4767C169.683 38.4767 169.823 38.7766 169.917 39.3099C170.035 40.0213 169.98 40.7506 169.757 41.4363C169.53 42.1324 169.08 42.7344 168.477 43.1494C168.03 43.4693 167.704 43.5693 167.684 43.5293C167.664 43.4893 167.937 43.3094 168.35 42.9561C168.859 42.5249 169.239 41.9623 169.45 41.3296C169.917 39.8165 169.517 38.49 169.643 38.4767Z" fill="#EB996E"/>
<path d="M162.831 44.1826C163.553 44.0958 164.241 43.8275 164.831 43.4027C165.471 42.9125 165.995 42.2865 166.364 41.5696C166.825 40.6425 167.191 39.671 167.457 38.67V38.63L167.497 38.59C168.451 37.7645 169.204 36.7316 169.697 35.5704C169.938 34.9823 170.096 34.3629 170.163 33.7307C170.189 33.4617 170.108 33.1934 169.937 32.9841C169.755 32.819 169.516 32.7307 169.27 32.7375L169.39 32.6641C168.353 34.2572 167.023 35.6391 165.471 36.7369C165.026 37.0499 164.558 37.3285 164.071 37.5701C163.899 37.6674 163.715 37.7414 163.524 37.7901C163.524 37.7434 164.251 37.4035 165.351 36.5703C166.836 35.4399 168.111 34.0567 169.117 32.4842L169.163 32.4108H169.243C169.417 32.3973 169.592 32.4206 169.756 32.4791C169.921 32.5377 170.071 32.6303 170.197 32.7508C170.315 32.8858 170.405 33.0434 170.461 33.214C170.518 33.3847 170.539 33.565 170.523 33.744C170.46 34.4179 170.296 35.0785 170.037 35.7037C169.519 36.9191 168.725 37.9965 167.717 38.85L167.777 38.77C167.492 39.7859 167.101 40.7689 166.61 41.7029C166.213 42.4477 165.644 43.0873 164.951 43.5693C164.502 43.8889 163.983 44.0969 163.438 44.1759C163.238 44.2226 163.031 44.2249 162.831 44.1826Z" fill="#EB996E"/>
<path d="M96.3468 76.2982L128.176 62.8133L155.645 42.9361L161.205 48.8419C161.205 48.8419 141.954 68.8925 136.941 72.9853C131.929 77.0781 104.846 94.3157 104.846 94.3157L96.3468 76.2982Z" fill="#0F1E72"/>
<path d="M114.651 80.3709C113.838 80.1838 112.987 80.2489 112.211 80.5576C111.958 80.6842 111.698 80.9642 111.838 81.2242C111.925 81.3775 112.131 81.4175 112.305 81.4508C115.464 81.9374 118.304 82.8839 121.457 83.3772L121.99 83.1506C119.716 81.8206 117.235 80.8811 114.651 80.3709Z" fill="#FAFAFA"/>
<path d="M120.364 78.4445C120.88 80.013 121.55 81.5268 122.363 82.9639L122.677 82.7839C122.74 81.1855 122.646 79.5847 122.397 78.0046C122.208 76.4715 121.557 75.0322 120.53 73.8785C119.99 75.3439 119.931 76.9436 120.364 78.4445Z" fill="#FAFAFA"/>
<path d="M125.556 76.6581C124.89 78.5179 124.256 80.3043 123.556 82.164L124.89 80.7975C126.13 79.2414 127.12 77.5005 127.822 75.6382C127.905 75.4261 127.944 75.1993 127.936 74.9717C127.928 74.8548 127.889 74.7421 127.823 74.645C127.758 74.5478 127.668 74.4697 127.563 74.4184C127.436 74.386 127.304 74.3848 127.178 74.415C127.051 74.4452 126.934 74.5059 126.836 74.5917C126.217 75.1406 125.772 75.859 125.556 76.6581Z" fill="#FAFAFA"/>
<path d="M147.98 54.5145C148.721 54.5094 149.442 54.2767 150.046 53.8479C150.239 53.6879 150.406 53.3813 150.233 53.1813C150.169 53.132 150.096 53.0974 150.017 53.0801C149.939 53.0628 149.858 53.0632 149.78 53.0813C146.947 53.3346 144.294 53.1213 141.461 53.3746L141.047 53.6812C143.295 54.3483 145.638 54.63 147.98 54.5145Z" fill="#FAFAFA"/>
<path d="M143.414 57.4141C142.643 56.1666 141.749 54.9988 140.747 53.9279L140.514 54.1545C140.802 55.548 141.227 56.9099 141.781 58.2206C142.269 59.5074 143.142 60.6127 144.28 61.3869C144.423 60.0041 144.119 58.6119 143.414 57.4141Z" fill="#FAFAFA"/>
<path d="M139.314 60.0671C139.494 58.3206 139.661 56.6409 139.841 54.8944L139.008 56.3476C138.271 57.961 137.79 59.679 137.581 61.4402C137.553 61.6478 137.569 61.859 137.628 62.0601C137.659 62.1611 137.717 62.2518 137.795 62.3223C137.874 62.3928 137.971 62.4404 138.074 62.4601C138.19 62.4607 138.304 62.4331 138.406 62.3797C138.508 62.3262 138.596 62.2486 138.661 62.1534C139.081 61.5382 139.308 60.8119 139.314 60.0671Z" fill="#FAFAFA"/>
<path d="M32.7688 216.172L8.65881 224.085L4.65936 213.833L28.4161 202.361L32.7688 216.172Z" fill="#FFBE9D"/>
<path d="M11.8717 223.131L11.2051 223.405C11.2051 223.405 11.2051 236.783 9.08542 237.783L0 214.879L7.74561 212.16C7.60695 214.177 7.90362 216.201 8.61551 218.094C9.3274 219.987 10.4379 221.705 11.8717 223.131Z" fill="#0F1E72"/>
<path d="M6.20579 215.452C6.05139 215.256 5.82937 215.124 5.58295 215.082C5.33653 215.04 5.08333 215.091 4.87264 215.226C4.66838 215.374 4.52985 215.596 4.48631 215.845C4.44278 216.094 4.49765 216.35 4.63934 216.559C4.80461 216.763 5.0396 216.9 5.29919 216.942C5.55878 216.983 5.82467 216.928 6.04582 216.786C6.23706 216.61 6.3534 216.367 6.37076 216.108C6.38813 215.848 6.30521 215.592 6.13914 215.392" fill="white"/>
<path d="M0 214.879L1.86641 214.213L9.86532 236.403C9.86532 236.403 9.86531 237.603 9.06542 237.769L0 214.879Z" fill="#263238"/>
<path d="M11.1585 223.511C11.0452 223.551 10.7719 223.011 10.1919 222.605C9.61202 222.198 9.0321 222.091 9.0321 221.971C9.0321 221.851 9.74534 221.758 10.4386 222.265C11.1318 222.771 11.2718 223.491 11.1585 223.511Z" fill="#263238"/>
<path d="M11.1185 226.311C11.0185 226.378 10.6385 225.971 10.012 225.778C9.38538 225.584 8.84545 225.671 8.80546 225.558C8.76546 225.444 9.37205 225.124 10.1386 225.378C10.9052 225.631 11.2251 226.264 11.1185 226.311Z" fill="#263238"/>
<path d="M8.78549 228.817C8.71884 228.724 9.21877 228.344 9.94533 228.391C10.6719 228.437 11.1252 228.857 11.0452 228.944C10.9652 229.031 10.5186 228.837 9.91867 228.804C9.31875 228.771 8.83882 228.924 8.78549 228.817Z" fill="#263238"/>
<path d="M97.7266 161.313C97.7266 161.313 80.049 197.308 75.303 200.075C70.557 202.841 15.9112 222.291 15.9112 222.291L11.7051 209.307L61.1583 183.19C61.1583 183.19 67.6174 165.579 70.0238 152.201C71.4969 144.002 74.8764 139.196 79.7357 132.81C81.2222 130.857 83.7352 128.064 85.0217 127.205L107.239 131.411L97.7266 161.313Z" fill="#FEB816"/>
<path d="M113.351 132.53L89.4944 128.531L84.655 156.58L89.501 215.486C89.501 215.486 86.1682 235.963 86.7347 249.434C87.248 262.139 87.7413 266.932 87.7413 266.932C87.7413 266.932 97.9999 266.979 100.333 266.979C101.313 266.979 110.078 203.221 110.078 203.221L113.351 132.53Z" fill="#FEB816"/>
<path d="M102.426 147.915C102.382 148.056 102.329 148.194 102.266 148.328C102.139 148.628 101.973 148.995 101.759 149.501L99.873 153.788C98.2865 157.447 96.1202 162.453 93.7338 167.972C91.3475 173.491 88.9211 178.431 87.0681 181.93C86.1415 183.677 85.375 185.083 84.8151 186.043L84.1485 187.143C84.0814 187.275 84.001 187.4 83.9085 187.516C83.9532 187.374 84.0136 187.238 84.0885 187.11C84.2418 186.823 84.4351 186.443 84.6751 185.976L86.8214 181.817C88.6079 178.291 90.9609 173.358 93.3805 167.819C95.8002 162.28 97.9866 157.314 99.6464 153.688C100.473 151.888 101.153 150.435 101.646 149.441L102.213 148.302C102.268 148.165 102.339 148.035 102.426 147.915Z" fill="#455A64"/>
<path d="M14.3181 211.973C14.3581 212.059 14.0514 212.286 13.6515 212.486C13.2515 212.686 12.8716 212.779 12.8249 212.693C12.7783 212.606 13.0916 212.373 13.4915 212.173C13.8914 211.973 14.2714 211.9 14.3181 211.973Z" fill="#455A64"/>
<path d="M20.2839 209.1C20.3305 209.187 19.6906 209.58 18.8707 209.98C18.3928 210.274 17.8597 210.467 17.3043 210.546C17.2576 210.46 17.8975 210.066 18.7174 209.667C19.1954 209.373 19.7285 209.18 20.2839 209.1Z" fill="#455A64"/>
<path d="M26.2498 206.194C26.2964 206.28 25.6565 206.674 24.8366 207.08C24.3581 207.374 23.8254 207.569 23.2702 207.653C23.2235 207.567 23.8634 207.167 24.6833 206.767C25.1618 206.473 25.6945 206.278 26.2498 206.194Z" fill="#455A64"/>
<path d="M32.1956 203.307C31.3153 203.994 30.3035 204.493 29.2227 204.774C30.0966 204.077 31.1107 203.577 32.1956 203.307Z" fill="#455A64"/>
<path d="M38.1281 200.321C38.1748 200.408 37.5415 200.808 36.7216 201.221C36.2469 201.519 35.716 201.716 35.1618 201.801C35.1152 201.714 35.7484 201.314 36.5683 200.908C37.0436 200.609 37.5741 200.41 38.1281 200.321Z" fill="#455A64"/>
<path d="M44.054 197.342C44.1006 197.428 43.4674 197.828 42.6542 198.241C42.1806 198.544 41.6496 198.746 41.0944 198.835C41.4962 198.444 41.9721 198.138 42.4942 197.935C42.9683 197.633 43.499 197.431 44.054 197.342Z" fill="#455A64"/>
<path d="M49.9931 194.309C49.1266 195.019 48.1206 195.539 47.0402 195.835C47.4367 195.436 47.9109 195.123 48.4334 194.915C48.908 194.612 49.4382 194.406 49.9931 194.309Z" fill="#455A64"/>
<path d="M55.819 191.209C55.8657 191.296 55.2458 191.709 54.4392 192.142C53.975 192.456 53.4506 192.669 52.8994 192.769C53.2927 192.369 53.7618 192.052 54.2792 191.836C54.7434 191.522 55.2678 191.309 55.819 191.209Z" fill="#455A64"/>
<path d="M61.5983 187.976C61.6449 188.056 61.045 188.496 60.2651 188.956C59.8087 189.283 59.2886 189.51 58.7386 189.623C59.1146 189.212 59.5676 188.879 60.0718 188.643C60.5272 188.314 61.0477 188.087 61.5983 187.976Z" fill="#455A64"/>
<path d="M65.2044 183.017C65.2656 183.57 65.2272 184.13 65.0911 184.67C65.0581 184.875 65.0359 185.082 65.0244 185.29C65.0216 185.334 65.0216 185.379 65.0244 185.423C65.0298 185.496 65.011 185.569 64.9711 185.63C64.9213 185.711 64.8607 185.785 64.7911 185.85C64.5512 186.063 64.3779 186.13 64.3445 186.096C64.3112 186.063 64.4378 185.916 64.6045 185.683C64.6487 185.629 64.6846 185.568 64.7111 185.503C64.7147 185.486 64.7147 185.467 64.7111 185.45C64.7028 185.399 64.7028 185.347 64.7111 185.297C64.6914 185.075 64.6914 184.852 64.7111 184.63C64.7484 184.061 64.9173 183.509 65.2044 183.017Z" fill="#455A64"/>
<path d="M66.7442 176.564C66.7793 177.126 66.6999 177.688 66.5109 178.217C66.4295 178.773 66.2344 179.307 65.9376 179.784C65.9031 179.223 65.9824 178.66 66.1709 178.131C66.2557 177.576 66.4506 177.043 66.7442 176.564Z" fill="#455A64"/>
<path d="M68.4439 170.159C68.379 171.273 68.0863 172.362 67.5841 173.358C67.5541 172.797 67.6427 172.236 67.844 171.712C67.9362 171.159 68.1403 170.63 68.4439 170.159Z" fill="#455A64"/>
<path d="M70.2237 163.766C70.1546 164.882 69.8478 165.971 69.3238 166.959C69.3035 166.399 69.3988 165.841 69.6038 165.319C69.7028 164.765 69.9137 164.236 70.2237 163.766Z" fill="#455A64"/>
<path d="M72.0634 157.394C72.0786 157.955 71.9764 158.514 71.7635 159.033C71.6614 159.586 71.4482 160.112 71.1369 160.58C71.2142 159.464 71.5302 158.377 72.0634 157.394Z" fill="#455A64"/>
<path d="M73.9898 151.041C73.8895 152.155 73.558 153.236 73.0166 154.214C73.0102 153.651 73.1191 153.093 73.3366 152.574C73.446 152.024 73.6684 151.502 73.9898 151.041Z" fill="#455A64"/>
<path d="M76.2029 144.795C76.1126 145.345 75.9513 145.881 75.723 146.389C75.5866 146.931 75.3392 147.44 74.9964 147.882C75.0228 147.318 75.1611 146.765 75.403 146.255C75.5276 145.703 75.8048 145.197 76.2029 144.795Z" fill="#455A64"/>
<path d="M79.7757 139.21C79.6181 139.75 79.3503 140.251 78.9892 140.683C78.4759 141.436 77.9893 142.016 77.9093 141.956C78.0691 141.415 78.3392 140.914 78.7025 140.483C79.2158 139.729 79.7024 139.156 79.7757 139.21Z" fill="#455A64"/>
<path d="M83.6819 133.85C83.7618 133.91 83.3819 134.517 82.8353 135.283C82.2887 136.05 81.7888 136.57 81.7088 136.517C81.8904 135.984 82.1784 135.494 82.5554 135.077C83.1019 134.344 83.6085 133.79 83.6819 133.85Z" fill="#455A64"/>
<path d="M86.7147 129.884C86.7881 129.944 86.6214 130.284 86.3415 130.651C86.0615 131.017 85.7749 131.257 85.6749 131.204C85.5749 131.151 85.7682 130.804 86.0482 130.437C86.3281 130.071 86.6548 129.824 86.7147 129.884Z" fill="#455A64"/>
<path d="M89.5344 179.197C89.4411 179.197 89.3344 178.844 89.3011 178.384C89.2678 177.924 89.3011 177.544 89.4077 177.538C89.5144 177.531 89.6077 177.898 89.641 178.358C89.6744 178.817 89.6344 179.191 89.5344 179.197Z" fill="#455A64"/>
<path d="M90.0544 186.083C89.8457 185.539 89.7439 184.959 89.7544 184.377C89.651 183.802 89.6669 183.212 89.8011 182.644C90.0097 183.188 90.1115 183.767 90.101 184.35C90.2006 184.925 90.1847 185.514 90.0544 186.083Z" fill="#455A64"/>
<path d="M90.5143 192.975C90.305 192.429 90.2075 191.847 90.2276 191.262C90.1364 190.686 90.159 190.097 90.2943 189.529C90.4976 190.077 90.5927 190.659 90.5743 191.242C90.6652 191.819 90.6448 192.407 90.5143 192.975Z" fill="#455A64"/>
<path d="M90.8475 199.861C90.6508 199.313 90.5669 198.73 90.6009 198.148C90.5141 197.57 90.5482 196.98 90.7009 196.415C90.9802 197.542 91.0301 198.714 90.8475 199.861Z" fill="#455A64"/>
<path d="M91.0075 206.76C90.8293 206.203 90.7614 205.617 90.8076 205.034C90.7419 204.454 90.7917 203.868 90.9542 203.307C91.2035 204.443 91.2216 205.617 91.0075 206.76Z" fill="#455A64"/>
<path d="M90.9609 213.659C90.8019 213.096 90.7521 212.508 90.8143 211.926C90.7645 211.345 90.8325 210.76 91.0142 210.206C91.1742 210.767 91.224 211.353 91.1609 211.933C91.2109 212.516 91.1429 213.103 90.9609 213.659Z" fill="#455A64"/>
<path d="M90.6875 220.558C90.5439 219.992 90.5144 219.403 90.6009 218.825C90.5715 218.241 90.6576 217.657 90.8542 217.105C90.9987 217.671 91.0304 218.26 90.9475 218.839C90.9729 219.423 90.8846 220.007 90.6875 220.558Z" fill="#455A64"/>
<path d="M90.201 227.444C90.0599 226.289 90.1482 225.118 90.461 223.998C90.5948 224.566 90.6107 225.156 90.5076 225.731C90.5173 226.317 90.4132 226.898 90.201 227.444Z" fill="#455A64"/>
<path d="M89.621 234.316C89.5045 233.745 89.5045 233.155 89.621 232.583C89.6145 232.001 89.7233 231.424 89.941 230.884C90.0535 231.456 90.0535 232.044 89.941 232.617C89.9475 233.199 89.8388 233.777 89.621 234.316Z" fill="#455A64"/>
<path d="M89.0744 241.202C88.9489 240.633 88.9353 240.044 89.0345 239.469C89.0205 238.884 89.1225 238.302 89.3344 237.756C89.4601 238.328 89.4759 238.918 89.3811 239.496C89.3943 240.079 89.29 240.66 89.0744 241.202Z" fill="#455A64"/>
<path d="M88.7012 248.095C88.5605 247.528 88.5289 246.94 88.6079 246.361C88.5809 245.779 88.6669 245.198 88.8612 244.648C89.006 245.212 89.0377 245.799 88.9545 246.375C88.9878 246.959 88.9017 247.545 88.7012 248.095Z" fill="#455A64"/>
<path d="M88.6545 255C88.4774 254.443 88.4161 253.856 88.4745 253.274C88.4154 252.691 88.4697 252.103 88.6345 251.541C88.8104 252.098 88.8739 252.685 88.8211 253.267C88.8748 253.85 88.8183 254.438 88.6545 255Z" fill="#455A64"/>
<path d="M89.0211 261.886C88.8097 261.343 88.7078 260.763 88.7212 260.18C88.6172 259.605 88.6331 259.015 88.7678 258.447C89.0819 259.564 89.168 260.734 89.0211 261.886Z" fill="#455A64"/>
<path d="M89.6744 266.979C89.5811 266.979 89.4478 266.639 89.3811 266.179C89.3144 265.719 89.3278 265.346 89.4278 265.332C89.5277 265.319 89.6544 265.679 89.7211 266.132C89.7877 266.585 89.7677 266.965 89.6744 266.979Z" fill="#455A64"/>
<path d="M96.9534 132.65C96.8651 132.888 96.7439 133.113 96.5934 133.317C96.2295 133.905 95.8334 134.472 95.4069 135.017C94.0211 136.86 92.2429 138.371 90.201 139.443C88.12 140.494 85.7438 140.806 83.4619 140.329C82.7793 140.179 82.1216 139.932 81.5088 139.596C81.2791 139.487 81.0677 139.343 80.8823 139.17C81.7225 139.574 82.6058 139.883 83.5152 140.089C85.7392 140.482 88.0307 140.146 90.0477 139.13C92.0428 138.075 93.8009 136.623 95.2136 134.863C96.3268 133.544 96.9067 132.65 96.9534 132.65Z" fill="#455A64"/>
<path d="M108.858 133.077C108.837 133.722 108.738 134.362 108.565 134.983C108.216 136.503 107.738 137.99 107.139 139.43C106.537 140.869 105.812 142.254 104.972 143.569C104.65 144.13 104.263 144.651 103.819 145.122C104.095 144.542 104.409 143.981 104.759 143.442C106.31 140.768 107.509 137.905 108.325 134.923C108.464 134.297 108.642 133.681 108.858 133.077Z" fill="#455A64"/>
<path d="M105.985 133.637C105.985 133.69 105.665 133.717 105.446 134.11C105.389 134.211 105.354 134.322 105.343 134.437C105.331 134.551 105.344 134.667 105.379 134.777C105.443 134.898 105.539 135 105.656 135.071C105.774 135.142 105.908 135.179 106.045 135.179C106.183 135.179 106.317 135.142 106.435 135.071C106.552 135 106.648 134.898 106.712 134.777C106.745 134.667 106.756 134.551 106.744 134.436C106.731 134.321 106.695 134.211 106.639 134.11C106.419 133.724 106.085 133.697 106.099 133.644C106.112 133.59 106.179 133.597 106.325 133.644C106.535 133.697 106.718 133.822 106.845 133.997C106.944 134.129 107.011 134.282 107.041 134.443C107.071 134.605 107.063 134.772 107.019 134.93C106.938 135.122 106.802 135.286 106.628 135.401C106.454 135.517 106.251 135.578 106.042 135.578C105.834 135.578 105.63 135.517 105.456 135.401C105.282 135.286 105.147 135.122 105.066 134.93C105.019 134.772 105.011 134.605 105.041 134.443C105.071 134.281 105.139 134.128 105.239 133.997C105.362 133.82 105.544 133.693 105.752 133.637C105.925 133.59 105.985 133.617 105.985 133.637Z" fill="#455A64"/>
<path d="M72.9767 46.7955C70.8074 45.7275 68.3035 45.5621 66.0125 46.3353C63.7216 47.1085 61.83 48.7575 60.7517 50.9216C59.6918 53.0613 59.4185 55.6477 57.8387 57.4207C56.4056 59.0005 54.2126 59.5805 52.1928 60.267C50.1731 60.9536 48.0267 62.0068 47.2335 63.9932C46.5669 65.6863 47.0135 67.766 45.9804 69.2658C44.9472 70.7656 42.8008 71.0522 40.9477 71.1722C41.0496 71.5875 41.282 71.9592 41.6107 72.2328C41.9394 72.5063 42.3472 72.6672 42.7741 72.692C41.4188 73.4743 39.8516 73.8101 38.2947 73.6519C38.788 75.9049 40.7744 77.6046 42.9608 78.3179C45.1471 79.0311 47.5068 79.0245 49.8065 78.8778C52.4128 78.7178 55.1991 78.3512 57.1388 76.6114C59.4785 74.5184 60.2184 70.7323 63.0913 69.4524C64.5578 68.7859 66.2976 68.9725 67.7574 68.2926C69.7571 67.3594 70.757 65.0264 70.9769 62.82C71.1969 60.6136 70.8369 58.3873 70.9769 56.1543C71.1169 53.9212 71.9968 51.5882 73.9232 50.495L72.9767 46.7955Z" fill="#263238"/>
<path d="M73.4833 46.1423C73.6766 45.7157 73.1833 45.2291 72.71 45.2491C72.2411 45.3301 71.8198 45.5847 71.5302 45.9623C70.3397 47.1873 69.5674 48.7576 69.3238 50.4484C69.2102 51.2941 69.2924 52.1547 69.564 52.9637C69.8356 53.7727 70.2893 54.5085 70.8903 55.1144C71.1469 55.4045 71.5045 55.5857 71.8901 55.621C72.0914 55.6078 72.2863 55.5448 72.4573 55.4378C72.6283 55.3308 72.7701 55.183 72.87 55.0077C73.0662 54.6564 73.1972 54.2725 73.2566 53.8746C73.7771 51.3029 73.9697 48.6757 73.8299 46.0556L73.4833 46.1423Z" fill="#0F1E72"/>
<path d="M71.4568 55.0677C71.4568 50.3017 72.2234 45.2424 75.2963 41.6096C78.036 38.3767 82.6686 36.277 86.8547 35.6104C89.0692 35.3808 91.307 35.6449 93.4072 36.3836C96.1335 37.2635 97.7399 39.8498 99.4463 42.1562C102.859 46.7689 103.979 53.7346 102.779 55.9809L83.7885 71.6188C79.6091 70.4323 74.9497 68.6059 73.1233 64.6731C71.8435 61.9934 71.4702 57.994 71.4568 55.0677Z" fill="#263238"/>
<path d="M77.8293 45.7423L90.4276 39.0166C94.6137 37.4968 98.7864 42.0895 100.126 46.3489C101.619 51.0683 103.252 56.8941 103.572 60.6203C104.239 68.0993 98.9064 70.379 98.9064 70.379L101.479 78.8311L104.432 88.2298L85.3083 76.8981L76.1829 48.8686C76.0161 48.236 76.0927 47.5638 76.3976 46.985C76.7024 46.4061 77.2133 45.9627 77.8293 45.7423Z" fill="#FFBE9D"/>
<path d="M99.9263 51.2283C99.9895 51.4695 99.955 51.726 99.8302 51.9419C99.7053 52.1579 99.5003 52.3158 99.2597 52.3814C99.1447 52.4205 99.023 52.4359 98.9019 52.4266C98.7808 52.4174 98.6628 52.3837 98.555 52.3277C98.4473 52.2716 98.352 52.1943 98.2749 52.1005C98.1978 52.0066 98.1406 51.8981 98.1065 51.7815C98.0451 51.5403 98.0804 51.2847 98.205 51.0692C98.3295 50.8537 98.5334 50.6955 98.7731 50.6283C98.8881 50.5902 99.0097 50.5756 99.1305 50.5853C99.2513 50.595 99.3689 50.6288 99.4764 50.6847C99.5839 50.7406 99.6791 50.8176 99.7564 50.9109C99.8337 51.0043 99.8914 51.1122 99.9263 51.2283Z" fill="#263238"/>
<path d="M99.453 48.8886C99.3864 49.0485 98.5265 48.8019 97.5666 49.1619C96.6067 49.5218 96.0801 50.2617 95.9335 50.1817C95.7869 50.1017 95.9335 49.8951 96.1201 49.5551C96.4314 49.116 96.8683 48.7814 97.3733 48.5953C97.8727 48.4066 98.4194 48.3833 98.9331 48.5286C99.3197 48.6619 99.4863 48.8219 99.453 48.8886Z" fill="#263238"/>
<path d="M90.8609 53.8745C90.9223 54.1157 90.887 54.3714 90.7624 54.5869C90.6379 54.8024 90.4339 54.9606 90.1943 55.0277C90.0788 55.0659 89.9568 55.0806 89.8356 55.071C89.7143 55.0614 89.5962 55.0276 89.4882 54.9718C89.3801 54.9159 89.2843 54.839 89.2064 54.7456C89.1285 54.6522 89.07 54.5441 89.0344 54.4278C88.973 54.1866 89.0083 53.9309 89.1329 53.7155C89.2575 53.5 89.4614 53.3418 89.701 53.2746C89.8166 53.2374 89.9383 53.2234 90.0593 53.2334C90.1802 53.2434 90.298 53.2773 90.4059 53.3331C90.5137 53.3888 90.6094 53.4654 90.6875 53.5583C90.7656 53.6513 90.8245 53.7587 90.8609 53.8745Z" fill="#263238"/>
<path d="M89.941 51.8082C89.861 51.9548 89.0278 51.6149 88.0413 51.8615C87.0548 52.1081 86.4415 52.788 86.3015 52.6881C86.1615 52.5881 86.3015 52.4014 86.5615 52.0948C86.9112 51.6925 87.3769 51.4084 87.8946 51.2816C88.4104 51.1495 88.9549 51.1869 89.4478 51.3882C89.8277 51.5482 89.9877 51.7415 89.941 51.8082Z" fill="#263238"/>
<path d="M95.3203 58.7872C95.8043 58.5028 96.3214 58.279 96.86 58.1206C97.1133 58.0273 97.34 57.9207 97.34 57.734C97.2969 57.4666 97.171 57.2195 96.98 57.0275C96.5934 56.4675 96.1801 55.8876 95.7535 55.281C94.0338 52.788 92.7206 50.7083 92.8206 50.615C92.9206 50.5217 94.4004 52.5147 96.1201 55.0077L97.32 56.7675C97.5547 57.0359 97.689 57.3776 97.6999 57.734C97.6843 57.8323 97.6468 57.9258 97.5903 58.0077C97.5338 58.0896 97.4596 58.1578 97.3733 58.2073C97.243 58.2799 97.1042 58.3359 96.96 58.3739C96.4332 58.5808 95.8822 58.7196 95.3203 58.7872Z" fill="#263238"/>
<path d="M98.9198 70.3723C95.5471 71.2618 91.994 71.1995 88.6545 70.1923C88.6545 70.1923 92.4274 74.585 99.4664 72.1254L98.9198 70.3723Z" fill="#EB996E"/>
<path d="M92.5007 61.4535C92.5895 61.1967 92.7408 60.966 92.941 60.7822C93.1411 60.5983 93.3838 60.4671 93.6472 60.4003C94.0107 60.2836 94.3987 60.2659 94.7713 60.3491C95.1439 60.4323 95.4876 60.6133 95.7669 60.8736C95.9826 61.1255 96.0966 61.4487 96.0868 61.7801C96.0535 61.9601 96.0868 61.8668 95.9935 62.0068C95.6859 62.5328 95.2532 62.9747 94.7337 63.2933C94.4494 63.4442 94.1262 63.5058 93.8063 63.4702C93.4864 63.4345 93.1847 63.3031 92.9406 63.0933C92.7234 62.887 92.5673 62.6247 92.4897 62.3354C92.4121 62.046 92.4159 61.7408 92.5007 61.4535Z" fill="#EB996E"/>
<path d="M92.5673 60.2004C92.7273 60.147 92.9939 61.2269 94.1071 61.7668C95.2202 62.3067 96.3401 61.9001 96.3868 62.0468C96.4334 62.1934 96.1801 62.3201 95.7202 62.4534C95.0905 62.6183 94.4229 62.5569 93.8338 62.2801C93.2703 62.0099 92.8331 61.5322 92.6139 60.9469C92.4406 60.507 92.494 60.2137 92.5673 60.2004Z" fill="#263238"/>
<path d="M89.641 49.3285C89.641 49.6285 88.5878 49.7418 87.4547 50.1751C86.3215 50.6083 85.4549 51.1549 85.2483 50.9483C85.1483 50.8483 85.2483 50.555 85.5683 50.2017C85.9893 49.749 86.5127 49.4038 87.0947 49.1952C87.6752 48.9783 88.2985 48.9007 88.9145 48.9686C89.3811 49.0552 89.6544 49.2152 89.641 49.3285Z" fill="#263238"/>
<path d="M98.3998 46.3689C98.2799 46.6356 97.54 46.5689 96.7134 46.7622C95.8869 46.9555 95.2336 47.2888 95.0136 47.0955C94.9137 46.9955 94.967 46.7422 95.2203 46.4289C95.5604 46.0662 96.0057 45.8191 96.4934 45.7224C96.9783 45.6075 97.4871 45.6495 97.9466 45.8423C98.2999 46.029 98.4532 46.2356 98.3998 46.3689Z" fill="#263238"/>
<path d="M80.249 57.1808C80.1357 57.1808 75.9229 56.8541 76.9161 60.8736C77.9093 64.893 81.7421 63.0533 81.7221 62.94C81.7021 62.8267 80.249 57.1808 80.249 57.1808Z" fill="#FFBE9D"/>
<path d="M80.129 61.7202C80.129 61.7202 80.069 61.7868 79.9624 61.8735C79.814 61.9863 79.6274 62.0365 79.4424 62.0134C78.9825 61.9668 78.4559 61.3802 78.2559 60.6803C78.1596 60.3376 78.1414 59.9777 78.2026 59.6271C78.2088 59.4923 78.2478 59.3611 78.3164 59.2449C78.3849 59.1288 78.4809 59.0311 78.5959 58.9605C78.6709 58.9204 78.7575 58.9071 78.8411 58.9228C78.9248 58.9386 79.0005 58.9825 79.0558 59.0472C79.1358 59.1472 79.1291 59.2338 79.1558 59.2338C79.1825 59.2338 79.2224 59.1472 79.1558 58.9872C79.107 58.8962 79.0297 58.8236 78.9358 58.7806C78.8706 58.7523 78.8003 58.7377 78.7292 58.7377C78.6581 58.7377 78.5878 58.7523 78.5225 58.7806C78.3652 58.8537 78.2297 58.9665 78.1291 59.108C78.0286 59.2494 77.9667 59.4145 77.9493 59.5871C77.8536 59.9746 77.8536 60.3795 77.9493 60.767C78.0205 61.1286 78.196 61.4615 78.4542 61.7245C78.7125 61.9875 79.0421 62.169 79.4024 62.2468C79.5179 62.2496 79.6326 62.2273 79.7385 62.1812C79.8444 62.1352 79.939 62.0665 80.0157 61.9801C80.1423 61.8201 80.1423 61.7268 80.129 61.7202Z" fill="#EB996E"/>
<path d="M79.1158 63.3799C79.1158 63.3799 78.9825 63.5932 79.1158 63.9465C79.1451 64.0554 79.1979 64.1566 79.2704 64.243C79.343 64.3293 79.4336 64.3988 79.5358 64.4464C79.668 64.4889 79.8084 64.4989 79.9453 64.4757C80.0822 64.4525 80.2115 64.3967 80.3223 64.3131C80.4385 64.2433 80.5358 64.146 80.6056 64.0298C80.6753 63.9135 80.7154 63.7819 80.7223 63.6466C80.7156 63.4226 80.6224 63.21 80.4623 63.0533C80.189 62.7933 79.929 62.8267 79.9357 62.8467C79.9424 62.8667 80.149 62.9067 80.3557 63.1533C80.468 63.2931 80.5291 63.4672 80.529 63.6466C80.5192 63.7519 80.4844 63.8534 80.4276 63.9426C80.3708 64.0319 80.2936 64.1063 80.2024 64.1598C80.1183 64.2246 80.0207 64.2697 79.9168 64.2916C79.813 64.3135 79.7055 64.3118 79.6024 64.2865C79.442 64.2128 79.3174 64.0786 79.2558 63.9132C79.1885 63.7415 79.1415 63.5625 79.1158 63.3799Z" fill="#FAFAFA"/>
<path d="M100.493 46.4156C99.6117 45.425 98.4488 44.7272 97.16 44.4158C95.8935 44.0492 94.5671 43.8759 93.3006 43.496C90.3609 42.6068 87.8553 40.6593 86.2682 38.0301C87.1607 37.3053 88.2086 36.7964 89.3302 36.5432C90.4517 36.29 91.6166 36.2993 92.734 36.5703C94.9761 37.1371 96.9553 38.4574 98.3399 40.3097C99.7145 42.1568 100.67 44.2815 101.139 46.5356" fill="#263238"/>
<path d="M76.6895 44.5425C78.9825 41.003 84.2285 38.0901 88.4279 38.4833C88.6679 42.0095 87.0281 46.4289 85.4017 49.5685C83.7752 52.708 83.5019 57.634 78.2026 57.2607C77.836 57.2607 77.5361 57.6407 77.1695 57.534C76.8792 57.4087 76.643 57.1842 76.5029 56.9008C75.3962 55.0223 74.8282 52.8754 74.8611 50.6954C74.894 48.5155 75.5266 46.3867 76.6895 44.5425Z" fill="#263238"/>
<path d="M88.3479 38.75C88.3642 39.0598 88.3464 39.3706 88.2946 39.6765C88.2279 40.2698 88.1346 41.123 87.9879 42.1828C87.6423 44.9496 87.042 47.6786 86.1949 50.335C85.7081 51.7965 85.0854 53.2092 84.3351 54.5545C83.8091 55.725 82.9427 56.7099 81.8488 57.3807C81.4613 57.5885 81.0286 57.6972 80.589 57.6972C80.1493 57.6972 79.7166 57.5885 79.3291 57.3807C79.1237 57.2654 78.9444 57.1088 78.8025 56.9208C78.7092 56.7875 78.6759 56.7075 78.6892 56.7008C79.0558 57.1318 79.5646 57.4171 80.1234 57.5052C80.6823 57.5932 81.2542 57.4781 81.7355 57.1808C82.7602 56.5027 83.5661 55.5417 84.0552 54.4145C84.779 53.0763 85.3857 51.6779 85.8682 50.2351C86.7023 47.5946 87.3307 44.8936 87.748 42.1562C87.908 41.1563 88.0479 40.3231 88.1613 39.6698C88.1963 39.3583 88.2588 39.0505 88.3479 38.75Z" fill="#263238"/>
<path d="M44.3672 67.526C44.3162 67.3935 44.2848 67.2543 44.2739 67.1127C44.2314 66.7096 44.2539 66.3022 44.3406 65.9062C44.4818 65.2732 44.7568 64.6778 45.1471 64.1598C45.6612 63.4634 46.368 62.9328 47.1802 62.6334C48.1852 62.3363 49.2547 62.3363 50.2598 62.6334C51.3443 62.9759 52.5081 62.9759 53.5926 62.6334C54.7506 62.1173 55.6931 61.2148 56.2589 60.0804C56.8797 58.8606 57.2792 57.5403 57.4388 56.1809C57.6129 54.798 57.8801 53.4284 58.2387 52.0815C58.6173 50.8214 59.2478 49.6513 60.0918 48.642C61.2827 47.2052 62.8659 46.1459 64.6483 45.5932C66.4308 45.0404 68.3355 45.0182 70.1304 45.529C70.517 45.6411 70.8956 45.7791 71.2636 45.9423C71.3945 45.9961 71.5196 46.0631 71.6368 46.1423C71.6368 46.1756 71.1036 45.909 70.0904 45.6624C68.6714 45.3067 67.1906 45.2748 65.7576 45.569C63.627 46.0043 61.7124 47.163 60.3384 48.8486C59.5287 49.8297 58.9236 50.9629 58.5586 52.1815C58.2137 53.5165 57.9554 54.8725 57.7854 56.2409C57.6174 57.6363 57.2021 58.9906 56.5589 60.2404C55.952 61.4305 54.9507 62.3729 53.726 62.9067C53.1398 63.1296 52.5112 63.2184 51.8862 63.1666C51.3156 63.1124 50.7498 63.0166 50.1931 62.88C49.2392 62.5771 48.2178 62.5586 47.2535 62.8267C46.4776 63.0987 45.7969 63.5895 45.2938 64.2398C44.9083 64.7286 44.627 65.2912 44.4672 65.8929C44.3399 66.4274 44.3061 66.98 44.3672 67.526Z" fill="#263238"/>
<path d="M72.5034 45.2091C72.5774 44.9917 72.6805 44.7854 72.81 44.5958C73.1417 44.0588 73.5429 43.568 74.0032 43.136C75.544 41.7163 77.4511 40.7558 79.5091 40.3631C81.5473 39.9919 83.6279 39.9133 85.6883 40.1298C86.4748 40.2031 87.1081 40.2764 87.548 40.3431C87.7754 40.3555 87.9999 40.4004 88.2146 40.4764C87.3624 40.4887 86.5102 40.4553 85.6616 40.3764C83.6251 40.2339 81.5787 40.3436 79.5691 40.703C77.5702 41.088 75.7066 41.9888 74.1632 43.316C73.5574 43.899 73.0022 44.5323 72.5034 45.2091Z" fill="#455A64"/>
<path d="M78.0426 38.9633C78.5349 38.6935 79.0653 38.5002 79.6157 38.39C80.9221 38.0504 82.2654 37.8735 83.6152 37.8634C84.3608 37.8521 85.1059 37.9079 85.8415 38.0301C86.4699 38.1268 87.0474 38.432 87.4813 38.8966C87.7739 39.2134 87.942 39.6254 87.9546 40.0565C87.9546 40.3564 87.8612 40.5097 87.8479 40.5031C87.8346 40.4964 87.8479 40.3364 87.8479 40.0631C87.7852 39.6831 87.6031 39.3329 87.328 39.0633C86.9123 38.6656 86.3792 38.4131 85.8082 38.3434C85.0909 38.241 84.3662 38.1986 83.6418 38.2167C82.3183 38.2252 80.9988 38.3637 79.7024 38.63C79.1553 38.7699 78.6013 38.8811 78.0426 38.9633Z" fill="#455A64"/>
<path d="M70.8503 61.3269C70.7959 61.2436 70.7574 61.1509 70.737 61.0536C70.641 60.7914 70.5783 60.5182 70.5504 60.2404C70.4496 59.2019 70.6485 58.1563 71.1236 57.2274C71.8092 55.848 72.8432 54.6716 74.1232 53.8146C75.6834 52.8126 77.2966 51.8959 78.9559 51.0683C81.8872 49.4531 84.3652 47.1265 86.1615 44.3025C86.7091 43.452 87.1905 42.5606 87.6014 41.6362C87.735 41.2878 87.8932 40.9492 88.0746 40.623C88.0624 40.7191 88.0377 40.8133 88.0013 40.903C87.9413 41.083 87.868 41.3563 87.728 41.6896C87.3637 42.6439 86.9177 43.565 86.3949 44.4425C84.6259 47.35 82.1252 49.7426 79.1425 51.3816C77.4942 52.1883 75.8879 53.0782 74.3298 54.0479C73.0813 54.8661 72.0608 55.9875 71.3636 57.3074C70.8854 58.1943 70.6552 59.1937 70.697 60.2004C70.737 60.9603 70.8903 61.3269 70.8503 61.3269Z" fill="#455A64"/>
<path d="M86.6548 88.2232C86.6015 88.2232 86.6081 87.5566 86.4215 86.4634C86.1835 85.0571 85.7007 83.7035 84.995 82.464C84.3615 81.1964 83.3446 80.1608 82.0888 79.5044C81.5451 79.2958 80.9639 79.2027 80.3823 79.2311C80.5275 79.1513 80.6899 79.1078 80.8556 79.1044C81.3085 79.0591 81.7657 79.1231 82.1887 79.2911C83.5393 79.9057 84.6365 80.9676 85.295 82.2973C86.0217 83.5633 86.4886 84.9615 86.6681 86.4101C86.772 87.0104 86.7675 87.6245 86.6548 88.2232Z" fill="#263238"/>
<path d="M88.9745 76.5915L104.752 88.6565L100.226 74.6584L104.052 76.6181C104.052 76.6181 110.878 89.2431 113.051 95.5955C113.896 98.0626 114.525 100.598 114.931 103.174C115.438 107.741 112.891 112.846 112.891 112.846L115.071 129.318C115.378 131.091 114.224 132.804 113.444 132.804L88.7345 129.471C85.5149 128.838 84.1951 127.151 84.3884 125.285L84.7617 121.832L74.2032 86.5034C73.5832 88.5965 72.9367 81.4241 77.6494 79.6977C79.6424 78.9445 85.9415 75.9915 88.9745 76.5915Z" fill="#0F1E72"/>
<path d="M106.652 83.4638C106.652 83.4638 106.732 83.5438 106.852 83.7171L107.365 84.4704C107.805 85.1369 108.432 86.0835 109.172 87.29C111.176 90.3965 112.788 93.7392 113.971 97.2419C115.144 100.78 115.398 104.557 114.711 108.22C114.49 109.323 114.143 110.396 113.678 111.42C113.524 111.787 113.358 112.047 113.264 112.233C113.22 112.329 113.164 112.418 113.098 112.5C113.098 112.5 113.264 112.093 113.558 111.367C113.971 110.335 114.281 109.266 114.484 108.174C115.092 104.543 114.808 100.819 113.658 97.3219C112.481 93.8461 110.916 90.5143 108.992 87.39L107.279 84.517L106.812 83.7305C106.748 83.6481 106.695 83.5586 106.652 83.4638Z" fill="#263238"/>
<path d="M109.152 126.905C108.698 127.616 108.466 128.447 108.485 129.291C108.518 129.577 108.698 129.957 108.985 129.884C109.165 129.884 109.278 129.677 109.365 129.517C110.945 126.678 112.438 124.258 114.031 121.419L113.958 120.859C112.016 122.578 110.389 124.625 109.152 126.905Z" fill="#FAFAFA"/>
<path d="M108.738 120.139C110.43 120.237 112.127 120.166 113.804 119.925L113.764 119.639C112.24 118.967 110.655 118.44 109.032 118.066C107.505 117.707 105.905 117.823 104.446 118.399C105.655 119.42 107.159 120.03 108.738 120.139Z" fill="#FAFAFA"/>
<path d="M108.865 114.56L113.618 118.559L112.571 116.653C111.521 114.924 110.207 113.37 108.678 112.047C108.5 111.885 108.288 111.764 108.058 111.693C107.943 111.657 107.82 111.653 107.703 111.681C107.586 111.709 107.478 111.769 107.392 111.853C107.317 111.963 107.27 112.09 107.255 112.223C107.239 112.355 107.257 112.489 107.305 112.613C107.622 113.402 108.164 114.079 108.865 114.56Z" fill="#FAFAFA"/>
<path d="M94.9403 109.614C96.2735 110.487 97.6066 110.767 99.0398 111.34H99.3197C98.3828 110.096 97.3219 108.95 96.1535 107.92C94.971 106.888 93.5011 106.241 91.9407 106.067C92.5324 107.542 93.5845 108.786 94.9403 109.614Z" fill="#FAFAFA"/>
<path d="M98.4398 105.627C99.193 107.487 99.9263 109.26 100.68 111.127L100.74 109.207C100.615 107.191 100.181 105.206 99.453 103.321C99.3658 103.099 99.2368 102.895 99.0731 102.721C98.9869 102.637 98.8793 102.577 98.7619 102.549C98.6445 102.521 98.5217 102.525 98.4065 102.561C98.29 102.622 98.1901 102.71 98.1157 102.818C98.0413 102.926 97.9947 103.051 97.9799 103.181C97.8894 104.024 98.0494 104.875 98.4398 105.627Z" fill="#FAFAFA"/>
<path d="M107.785 103.808C107.768 103.991 107.723 104.171 107.652 104.341C107.595 104.545 107.522 104.743 107.432 104.934C107.327 105.196 107.21 105.452 107.079 105.701C106.733 106.352 106.324 106.968 105.859 107.541C104.71 108.94 103.252 110.054 101.599 110.793C100.926 111.085 100.225 111.308 99.5064 111.46C99.0249 111.573 98.5339 111.64 98.0399 111.66C97.861 111.687 97.679 111.687 97.5 111.66C97.5 111.593 98.2666 111.56 99.4531 111.247C100.14 111.059 100.809 110.812 101.453 110.507C102.242 110.134 102.994 109.688 103.699 109.174C104.392 108.633 105.031 108.026 105.606 107.361C106.071 106.813 106.488 106.227 106.852 105.607C107.485 104.521 107.725 103.788 107.785 103.808Z" fill="#263238"/>
<g opacity="0.3">
<path opacity="0.3" d="M95.9868 111.907C97.0712 112.675 98.3624 113.097 99.6911 113.119C101.02 113.14 102.324 112.759 103.432 112.027C105.805 110.54 106.959 107.974 107.265 105.361C106.094 107.318 104.445 108.946 102.472 110.091C100.499 111.236 98.2674 111.861 95.9868 111.907Z" fill="black"/>
</g>
<g opacity="0.3">
<path opacity="0.3" d="M81.3622 96.1488L78.3626 100.415C78.9892 102.781 79.8157 105.008 80.4423 107.367C81.808 103.791 82.1271 99.8997 81.3622 96.1488Z" fill="black"/>
</g>
<path d="M37.9481 146.275L33.6354 153.128L24.0833 155.981C24.0496 155.661 24.0806 155.339 24.1746 155.032C24.2685 154.725 24.4234 154.44 24.6299 154.194C25.2965 153.581 22.6302 154.447 22.6302 154.447L20.6305 158.607C20.6305 158.607 19.2973 158.514 19.3707 157.347C19.444 156.181 20.9571 152.514 20.9571 152.514L21.6703 152.394C21.5604 152.076 21.5279 151.735 21.5754 151.402C21.6229 151.068 21.7491 150.75 21.9436 150.475C22.0165 149.328 22.3888 148.22 23.0235 147.262C23.5571 146.395 24.2177 145.613 24.9832 144.942L33.3287 141.503L37.9481 146.275Z" fill="#FFBE9D"/>
<path d="M31.2624 151.581C30.3033 152.234 29.2578 152.75 28.1561 153.114C27.0936 153.574 25.9716 153.881 24.8232 154.027C24.8232 153.941 26.283 153.501 28.0561 152.828C29.8292 152.154 31.2224 151.501 31.2624 151.581Z" fill="#EB996E"/>
<path d="M25.9964 150.728C25.2248 151.182 24.4041 151.546 23.5501 151.814C22.7349 152.178 21.8805 152.446 21.0038 152.614C21.7718 152.158 22.5906 151.794 23.4434 151.528C24.2611 151.165 25.1177 150.896 25.9964 150.728Z" fill="#EB996E"/>
<path d="M25.8365 148.648C25.2019 148.989 24.5474 149.292 23.8767 149.555C23.2521 149.915 22.6066 150.238 21.9437 150.521C23.0102 149.501 24.3733 148.845 25.8365 148.648Z" fill="#EB996E"/>
<path d="M25.8765 146.555C25.3899 146.864 24.8686 147.115 24.3233 147.302C23.8188 147.583 23.2844 147.806 22.7302 147.968C23.1379 147.544 23.6405 147.221 24.1967 147.028C24.7107 146.739 25.2867 146.576 25.8765 146.555Z" fill="#EB996E"/>
<path d="M82.542 80.3309C82.9994 80.6916 83.3956 81.1238 83.7152 81.6108C84.5388 82.7571 85.1505 84.0417 85.5216 85.4036C85.8904 86.764 86.01 88.18 85.8749 89.583C85.8465 90.1658 85.7227 90.7401 85.5083 91.2828C85.4483 91.2828 85.5816 90.6162 85.6283 89.563C85.7549 86.8024 85.0162 84.0711 83.5152 81.7507C82.9353 80.8642 82.4954 80.3709 82.542 80.3309Z" fill="#263238"/>
<path d="M79.6291 79.4577C81.8288 79.4577 83.8552 81.4908 84.0418 83.6838C84.2684 86.2834 84.2951 90.1362 83.0086 93.1558C80.8556 98.1951 59.0119 124.105 59.0119 124.105L37.9548 146.275L32.5289 140.843C32.5289 140.843 43.7207 122.552 45.2405 120.345C48.4 115.739 56.3523 107.627 59.5052 102.241C62.6581 96.8553 69.7038 86.9767 71.8301 84.8236C73.9565 82.6706 75.7429 79.4644 79.6291 79.4577Z" fill="#0F1E72"/>
<path d="M66.6042 104.701C65.7395 104.749 64.9098 105.058 64.2245 105.587C64.0112 105.787 63.8312 106.147 64.0445 106.354C64.1194 106.409 64.2057 106.446 64.297 106.462C64.3883 106.478 64.4821 106.473 64.5711 106.447C67.8707 106.021 70.9236 105.781 74.2232 105.347L74.4764 104.961C71.8873 104.418 69.2235 104.33 66.6042 104.701Z" fill="#FAFAFA"/>
<path d="M71.9301 100.248C72.8271 101.636 73.8659 102.928 75.0297 104.101L75.2097 103.794C74.9025 102.228 74.4334 100.698 73.8099 99.2283C73.1817 97.7511 72.1133 96.5035 70.7503 95.6555C70.6441 97.273 71.0575 98.8821 71.9301 100.248Z" fill="#FAFAFA"/>
<path d="M76.6028 96.7087C76.4695 98.7551 76.3562 100.708 76.2229 102.768L77.1228 101.035C77.91 99.1219 78.3936 97.0978 78.5559 95.0356C78.5796 94.7905 78.5524 94.5431 78.4759 94.309C78.4352 94.193 78.3633 94.0906 78.268 94.0129C78.1727 93.9353 78.0578 93.8855 77.936 93.8691C77.8018 93.8745 77.671 93.9126 77.5549 93.98C77.4388 94.0473 77.3408 94.1419 77.2694 94.2557C76.81 94.9896 76.578 95.8431 76.6028 96.7087Z" fill="#FAFAFA"/>
<path d="M81.3222 95.7222C81.2852 95.8246 81.2335 95.9212 81.1688 96.0088C81.0355 96.2154 80.8756 96.4754 80.6756 96.782C80.2356 97.4486 79.5757 98.4018 78.7425 99.555C77.0627 101.868 74.6631 105.001 71.9568 108.414C69.2505 111.827 66.7375 114.866 64.8911 117.079C63.9712 118.166 63.2113 119.039 62.6847 119.639L62.0648 120.305C61.9182 120.459 61.8382 120.539 61.8315 120.525C61.8248 120.512 61.8848 120.432 62.0115 120.259L62.5847 119.539L64.7044 116.913L71.6901 108.247C74.3964 104.841 76.8228 101.735 78.5492 99.4617C79.3758 98.3485 80.0557 97.4619 80.5489 96.7554C80.7622 96.4621 80.9422 96.2154 81.0955 96.0155C81.157 95.9076 81.2333 95.8089 81.3222 95.7222Z" fill="#263238"/>
<path d="M46.7069 118.359C49.2401 119.117 51.8859 119.428 54.5258 119.279C55.39 119.31 56.2433 119.078 56.9722 118.612C57.2055 118.432 57.4121 118.092 57.2188 117.866C57.1479 117.806 57.0643 117.762 56.9742 117.739C56.8841 117.716 56.79 117.714 56.6989 117.732C53.366 117.872 50.3131 117.872 46.9935 118.012" fill="#FAFAFA"/>
<path d="M48.8466 123.265C48.0711 121.807 47.1463 120.433 46.087 119.166L45.8737 119.459C46.0523 121.045 46.3917 122.608 46.8869 124.125C47.3869 125.652 48.346 126.989 49.6332 127.951C49.8763 126.345 49.6008 124.704 48.8466 123.265Z" fill="#FAFAFA"/>
<path d="M43.9073 127.005C44.2139 124.971 44.4939 123.005 44.8005 121.005L43.754 122.652C42.809 124.495 42.1547 126.474 41.8143 128.518C41.7643 128.757 41.7643 129.005 41.8143 129.244C41.844 129.363 41.9057 129.471 41.9927 129.557C42.0797 129.642 42.1886 129.703 42.3075 129.731C42.4431 129.739 42.5784 129.713 42.7017 129.656C42.8249 129.599 42.9322 129.512 43.0141 129.404C43.5457 128.712 43.8569 127.876 43.9073 127.005Z" fill="#FAFAFA"/>
<path d="M204.972 7.21425L208.058 11.2004L209.125 17.7595L211.458 16.1197L213.791 19.5926L234.468 0.00857544L204.972 7.21425Z" fill="#0F1E72"/>
<path opacity="0.3" d="M211.424 16.1597L210.371 16.8796L209.625 13.2068L211.424 16.1597Z" fill="black"/>
<path opacity="0.3" d="M208.058 11.2004L234.468 0.00857544L209.785 12.8335L209.125 17.7595L208.058 11.2004Z" fill="black"/>
<path d="M234.468 0.00190735C234.374 0.0802704 234.271 0.147382 234.161 0.201879L233.255 0.715143L229.875 2.54156L218.637 8.45408L209.645 13.1201L209.705 12.9268C210.838 14.9865 211.864 16.6396 212.597 17.7795C212.951 18.3261 213.231 18.766 213.457 19.1126C213.569 19.261 213.663 19.4221 213.737 19.5926C213.605 19.4607 213.487 19.3155 213.384 19.1593C213.164 18.8727 212.851 18.4394 212.464 17.8795C211.684 16.7596 210.618 15.1265 209.451 13.0734L209.378 12.9468L209.511 12.8735L218.477 8.16079L229.728 2.34159L233.161 0.615155L234.101 0.155219C234.214 0.0845263 234.338 0.032743 234.468 0.00190735Z" fill="#263238"/>
<path d="M234.468 0.00190667C234.508 0.0885614 228.589 2.66821 221.25 5.82111C213.911 8.97401 207.918 11.407 207.918 11.3204C207.918 11.2337 213.797 8.65405 221.136 5.50115C228.475 2.34825 234.434 -0.0780824 234.468 0.00190667Z" fill="#263238"/>
<path d="M209.125 17.7595C209.033 16.9583 209.055 16.148 209.191 15.3531C209.218 14.5489 209.357 13.7523 209.605 12.9868C209.697 13.7858 209.674 14.5938 209.538 15.3865C209.516 16.1933 209.377 16.9927 209.125 17.7595Z" fill="#263238"/>
<path d="M183.775 33.9973C183.775 34.0906 183.435 34.2172 182.968 34.2839C182.502 34.3505 182.128 34.2839 182.122 34.2239C182.115 34.1639 182.475 33.9973 182.922 33.9373C183.368 33.8773 183.755 33.8906 183.775 33.9973Z" fill="#263238"/>
<path d="M189.714 31.3309C189.767 31.4043 189.221 31.9175 188.434 32.3841C187.979 32.7157 187.447 32.9246 186.888 32.9907C186.848 32.8974 187.488 32.5374 188.254 32.0842C188.698 31.757 189.19 31.5028 189.714 31.3309Z" fill="#263238"/>
<path d="M194.013 26.4383C193.901 26.9885 193.648 27.5004 193.28 27.9248C192.754 28.678 192.194 29.1713 192.12 29.1113C192.343 28.6077 192.639 28.1403 193 27.7248C193.513 26.9982 193.927 26.3916 194.013 26.4383Z" fill="#263238"/>
<path d="M195.58 20.1591C195.792 20.6833 195.843 21.2589 195.726 21.8123C195.721 22.378 195.554 22.9305 195.246 23.4054C195.218 22.8597 195.263 22.3127 195.38 21.7789C195.383 21.2331 195.45 20.6895 195.58 20.1591Z" fill="#263238"/>
<path d="M191.614 15.6531C192.181 15.5373 192.77 15.6447 193.26 15.953C194.127 16.3863 194.513 17.0996 194.447 17.1329C194.38 17.1662 193.88 16.6463 193.113 16.2597C192.347 15.8731 191.6 15.7597 191.614 15.6531Z" fill="#263238"/>
<path d="M186.414 18.8327C186.441 18.2573 186.679 17.7118 187.081 17.2995C187.399 16.817 187.891 16.4756 188.454 16.3463C188.507 16.433 187.901 16.8396 187.354 17.5195C186.808 18.1994 186.508 18.866 186.414 18.8327Z" fill="#263238"/>
<path d="M187.488 25.0052C187.007 24.6872 186.646 24.2181 186.461 23.672C186.175 23.1785 186.063 22.6037 186.141 22.0389C186.404 22.5174 186.627 23.0168 186.808 23.532C187.141 24.3519 187.574 24.9318 187.488 25.0052Z" fill="#263238"/>
<path d="M193.193 27.8848C192.642 28.0059 192.067 27.9619 191.54 27.7581C190.981 27.6632 190.464 27.4032 190.054 27.0115C190.594 27.0892 191.124 27.2279 191.634 27.4248C192.17 27.5142 192.694 27.6687 193.193 27.8848Z" fill="#263238"/>
<path d="M199.533 26.5516C199.126 26.9326 198.628 27.2013 198.086 27.3315C197.578 27.5752 197.014 27.6766 196.453 27.6248C196.926 27.3483 197.435 27.1396 197.966 27.0049C198.463 26.7779 198.991 26.6252 199.533 26.5516Z" fill="#263238"/>
<path d="M204.852 22.7588C204.919 22.8254 204.399 23.352 203.692 23.9253C203.302 24.3194 202.835 24.6281 202.319 24.8318C202.259 24.7518 202.779 24.2253 203.479 23.6587C203.87 23.2682 204.338 22.9619 204.852 22.7588Z" fill="#263238"/>
<path d="M208.105 19.0526C208.191 19.0926 208.105 19.4726 207.805 19.8592C207.505 20.2458 207.232 20.4791 207.138 20.4191C207.045 20.3591 207.245 20.0258 207.505 19.6592C207.765 19.2926 208.018 19.0126 208.105 19.0526Z" fill="#263238"/>
</svg>
