<svg width="337" height="205" viewBox="0 0 337 205" fill="none" xmlns="http://www.w3.org/2000/svg">
<path d="M83.6632 39.3726C83.6632 39.4991 82.7486 39.5969 81.6212 39.5969C80.4938 39.5969 79.5792 39.4991 79.5792 39.3726C79.5792 39.246 80.4938 39.1482 81.6212 39.1482C82.7486 39.1482 83.6632 39.2518 83.6632 39.3726Z" fill="#263238"/>
<path d="M85.8258 33.8219C85.9523 33.8219 86.0558 34.7479 86.0558 35.8926C86.0558 37.0372 85.9523 37.9633 85.8258 37.9633C85.6992 37.9633 85.6014 37.0372 85.6014 35.8926C85.6014 34.7479 85.705 33.8219 85.8258 33.8219Z" fill="#263238"/>
<path d="M88.1381 39.2403C88.1381 39.1137 89.0469 39.0159 90.1743 39.0159C91.3017 39.0159 92.2162 39.1137 92.2162 39.2403C92.2162 39.3668 91.3017 39.4646 90.1743 39.4646C89.0469 39.4646 88.1381 39.3668 88.1381 39.2403Z" fill="#263238"/>
<path d="M85.9696 44.7909C85.843 44.7909 85.7452 43.8648 85.7452 42.7202C85.7452 41.5755 85.843 40.6495 85.9696 40.6495C86.0961 40.6495 86.1939 41.5755 86.1939 42.7202C86.1939 43.8648 86.0961 44.7909 85.9696 44.7909Z" fill="#263238"/>
<path d="M89.2655 42.4096C89.1734 42.4901 88.7708 42.168 88.3682 41.6848C87.9655 41.2017 87.7182 40.753 87.793 40.6725C87.8677 40.592 88.2934 40.9198 88.6903 41.3972C89.0872 41.8747 89.3633 42.3291 89.2655 42.4096Z" fill="#263238"/>
<path d="M89.0757 36.1169C89.1677 36.2032 88.8974 36.6173 88.5005 37.0372C88.1036 37.4571 87.6779 37.7217 87.5859 37.6124C87.4939 37.5031 87.7642 37.112 88.1611 36.6921C88.558 36.2722 88.9894 36.0306 89.0757 36.1169Z" fill="#263238"/>
<path d="M84.3993 37.7217C84.3188 37.8137 83.9334 37.6239 83.5365 37.2961C83.1396 36.9682 82.8865 36.6231 82.9613 36.5253C83.0361 36.4275 83.4272 36.6173 83.8184 36.9509C84.2095 37.2846 84.4799 37.6239 84.3993 37.7217Z" fill="#263238"/>
<path d="M84.2152 40.4942C84.3072 40.5805 84.0772 40.9831 83.6975 41.3973C83.3179 41.8114 82.9383 42.076 82.8462 41.9725C82.7542 41.8689 82.99 41.4835 83.3639 41.0694C83.7378 40.6553 84.1232 40.4079 84.2152 40.4942Z" fill="#263238"/>
<path d="M2.30081 100.626C1.93194 100.755 1.53894 100.8 1.1504 100.758C0.761867 100.801 0.368735 100.755 0 100.626C0.370258 100.503 0.762302 100.46 1.1504 100.499C1.5385 100.46 1.93044 100.503 2.30081 100.626Z" fill="#263238"/>
<path d="M3.50867 97.4794C3.67736 98.2526 3.67736 99.053 3.50867 99.8262C3.33223 99.0539 3.33223 98.2517 3.50867 97.4794Z" fill="#263238"/>
<path d="M4.8374 100.551C5.20792 100.429 5.59971 100.386 5.98781 100.424C6.37591 100.385 6.76795 100.428 7.13821 100.551C6.76947 100.681 6.37634 100.726 5.98781 100.683C5.59927 100.725 5.2064 100.679 4.8374 100.551Z" fill="#263238"/>
<path d="M3.61227 103.703C3.48488 103.334 3.43973 102.941 3.47998 102.553C3.43659 102.155 3.48177 101.752 3.61227 101.373C3.73591 101.753 3.77901 102.155 3.73882 102.553C3.776 102.941 3.73293 103.332 3.61227 103.703Z" fill="#263238"/>
<path d="M5.48169 102.351C5.42993 102.397 5.19985 102.213 4.96977 101.943C4.73969 101.673 4.60164 101.414 4.65916 101.368C4.71668 101.322 4.941 101.506 5.17109 101.776C5.40117 102.046 5.53346 102.305 5.48169 102.351Z" fill="#263238"/>
<path d="M5.3723 98.7793C5.42406 98.8253 5.27452 99.0612 5.03868 99.3028C4.80285 99.5443 4.56702 99.6882 4.521 99.6421C4.47498 99.5961 4.61878 99.3603 4.85461 99.1187C5.09045 98.8771 5.32053 98.7276 5.3723 98.7793Z" fill="#263238"/>
<path d="M2.72075 99.6882C2.67473 99.7457 2.45615 99.6364 2.23182 99.4466C2.00749 99.2568 1.85794 99.067 1.90396 99.0094C1.94997 98.9519 2.16855 99.0669 2.39288 99.251C2.61721 99.4351 2.76101 99.6364 2.72075 99.6882Z" fill="#263238"/>
<path d="M2.6113 101.287C2.66882 101.333 2.53653 101.563 2.31795 101.799C2.09937 102.035 1.8923 102.185 1.84053 102.139C1.78876 102.092 1.91531 101.862 2.13388 101.627C2.35246 101.391 2.55953 101.218 2.6113 101.287Z" fill="#263238"/>
<path d="M89.0642 90.3584L89.1965 90.6805C89.3118 90.957 89.4811 91.2078 89.6944 91.4182C89.9077 91.6285 90.1608 91.7943 90.4389 91.9057L90.784 92.0495L90.4504 92.1818C90.1704 92.2974 89.9161 92.4672 89.7019 92.6814C89.4877 92.8956 89.3179 93.15 89.2022 93.43L89.1102 93.6658L88.9664 93.3724C88.7149 92.8377 88.2621 92.4241 87.7067 92.222L87.4019 92.1128L87.7987 91.9172C88.2922 91.6776 88.6839 91.2696 88.9031 90.7668L89.0642 90.3584Z" fill="#263238"/>
<path d="M27.1725 49.3408L27.3048 49.6629C27.42 49.9386 27.5885 50.1887 27.8008 50.399C28.013 50.6092 28.2647 50.7755 28.5414 50.8881L28.8866 51.0261L28.5587 51.1642C28.2774 51.2776 28.0219 51.4466 27.8074 51.661C27.5929 51.8755 27.4239 52.1311 27.3105 52.4124L27.2127 52.6482L27.0747 52.3548C26.9497 52.0893 26.7737 51.851 26.5565 51.6536C26.3394 51.4562 26.0854 51.3036 25.8092 51.2044L25.5101 51.0952L25.9013 50.8996C26.3966 50.6626 26.7891 50.2538 27.0057 49.7492L27.1725 49.3408Z" fill="#263238"/>
<path d="M318.293 0H103.801C99.1723 0 95.4202 3.75216 95.4202 8.38068V144.542C95.4202 149.171 99.1723 152.923 103.801 152.923H318.293C322.922 152.923 326.674 149.171 326.674 144.542V8.38068C326.674 3.75216 322.922 0 318.293 0Z" fill="#263238"/>
<path d="M85.7625 141.615H336.291V144.761C336.291 147.476 335.213 150.081 333.293 152.001C331.373 153.921 328.768 155 326.053 155H95.9723C93.2569 155 90.6527 153.921 88.7326 152.001C86.8125 150.081 85.7338 147.476 85.7338 144.761V141.615H85.7625Z" fill="#263238"/>
<path d="M319.818 6.0799H101.627V135.224H319.818V6.0799Z" fill="#455A64"/>
<path d="M188.246 141.615L191.358 146.561H235.102L237.989 141.615H188.246Z" fill="#455A64"/>
<path d="M313.887 10.4514H108C106.961 10.4514 106.119 11.2935 106.119 12.3323V132.929C106.119 133.968 106.961 134.81 108 134.81H313.887C314.926 134.81 315.768 133.968 315.768 132.929V12.3323C315.768 11.2935 314.926 10.4514 313.887 10.4514Z" fill="#EBEBEB"/>
<path d="M315.768 19.5626H106.119V134.81H315.768V19.5626Z" fill="#FAFAFA"/>
<path d="M123.317 15.2544C123.317 15.5865 123.219 15.9113 123.034 16.1875C122.85 16.4637 122.587 16.679 122.281 16.8061C121.974 16.9332 121.636 16.9665 121.31 16.9017C120.984 16.8369 120.685 16.6769 120.45 16.442C120.215 16.2071 120.055 15.9078 119.991 15.582C119.926 15.2562 119.959 14.9185 120.086 14.6116C120.213 14.3047 120.429 14.0424 120.705 13.8578C120.981 13.6733 121.306 13.5748 121.638 13.5748C122.083 13.5748 122.511 13.7517 122.825 14.0667C123.14 14.3817 123.317 14.8089 123.317 15.2544Z" fill="#263238"/>
<path d="M113.165 15.2544C113.164 15.5852 113.065 15.9082 112.88 16.1827C112.696 16.4572 112.434 16.6709 112.128 16.7967C111.822 16.9225 111.485 16.9548 111.161 16.8896C110.837 16.8243 110.539 16.6645 110.306 16.4302C110.072 16.1958 109.913 15.8976 109.849 15.573C109.785 15.2485 109.818 14.9123 109.945 14.6067C110.072 14.3012 110.287 14.0401 110.562 13.8565C110.837 13.6728 111.16 13.5748 111.491 13.5748C111.712 13.5748 111.93 13.6183 112.133 13.7027C112.337 13.7872 112.521 13.911 112.677 14.0671C112.832 14.2231 112.956 14.4083 113.039 14.612C113.123 14.8158 113.166 15.0341 113.165 15.2544Z" fill="#263238"/>
<path d="M118.037 15.2544C118.036 15.5852 117.937 15.9082 117.752 16.1827C117.568 16.4572 117.306 16.6709 117 16.7967C116.694 16.9225 116.358 16.9548 116.033 16.8896C115.709 16.8243 115.411 16.6645 115.178 16.4302C114.944 16.1958 114.785 15.8976 114.721 15.573C114.657 15.2485 114.691 14.9123 114.817 14.6067C114.944 14.3012 115.159 14.0401 115.434 13.8565C115.709 13.6728 116.032 13.5748 116.363 13.5748C116.584 13.5748 116.802 13.6183 117.005 13.7027C117.209 13.7872 117.393 13.911 117.549 14.0671C117.704 14.2231 117.828 14.4083 117.911 14.612C117.995 14.8158 118.038 15.0341 118.037 15.2544Z" fill="#263238"/>
<path d="M324.684 141.615C324.684 141.701 273.359 141.764 210.058 141.764C146.757 141.764 95.4202 141.701 95.4202 141.615C95.4202 141.528 146.734 141.465 210.058 141.465C273.382 141.465 324.684 141.551 324.684 141.615Z" fill="#455A64"/>
<path d="M168.488 77.6177H120.648V80.8158H168.488V77.6177Z" fill="#E0E0E0"/>
<path d="M230.282 33.1834H182.442V36.3815H230.282V33.1834Z" fill="#E0E0E0"/>
<path d="M301.463 45.1016C301.463 45.1821 274.82 45.2511 241.97 45.2511C209.12 45.2511 182.465 45.1821 182.465 45.1016C182.465 45.021 209.103 44.952 241.97 44.952C274.837 44.952 301.463 45.021 301.463 45.1016Z" fill="#E0E0E0"/>
<path d="M301.463 52.0902C301.463 52.1708 274.82 52.2398 241.97 52.2398C209.12 52.2398 182.465 52.1708 182.465 52.0902C182.465 52.0097 209.103 51.9407 241.97 51.9407C274.837 51.9407 301.463 52.0097 301.463 52.0902Z" fill="#E0E0E0"/>
<path d="M301.463 59.0789C301.463 59.1594 274.82 59.2285 241.97 59.2285C209.12 59.2285 182.465 59.1594 182.465 59.0789C182.465 58.9984 209.103 58.9294 241.97 58.9294C274.837 58.9294 301.463 58.9926 301.463 59.0789Z" fill="#E0E0E0"/>
<path d="M301.463 66.0676C301.463 66.1482 274.82 66.2172 241.97 66.2172C209.12 66.2172 182.465 66.1482 182.465 66.0676C182.465 65.9871 209.103 65.9181 241.97 65.9181C274.837 65.9181 301.463 65.9814 301.463 66.0676Z" fill="#E0E0E0"/>
<path d="M301.463 73.0563C301.463 73.1369 274.82 73.2059 241.97 73.2059C209.12 73.2059 182.465 73.1369 182.465 73.0563C182.465 72.9758 209.103 72.9068 241.97 72.9068C274.837 72.9068 301.463 72.9701 301.463 73.0563Z" fill="#E0E0E0"/>
<path d="M228.896 80.045C228.896 80.1256 218.496 80.1946 205.669 80.1946C192.842 80.1946 182.442 80.1256 182.442 80.045C182.442 79.9645 192.842 79.8955 205.669 79.8955C218.496 79.8955 228.896 79.9588 228.896 80.045Z" fill="#E0E0E0"/>
<path d="M300.571 93.6083C300.571 93.6888 283.056 93.7578 261.458 93.7578C239.859 93.7578 222.344 93.6888 222.344 93.6083C222.344 93.5278 239.853 93.4587 261.458 93.4587C283.062 93.4587 300.571 93.522 300.571 93.6083Z" fill="#E0E0E0"/>
<path d="M300.571 101.023C300.571 101.109 283.056 101.172 261.458 101.172C239.859 101.172 222.344 101.109 222.344 101.023C222.344 100.936 239.853 100.873 261.458 100.873C283.062 100.873 300.571 100.942 300.571 101.023Z" fill="#E0E0E0"/>
<path d="M300.571 108.443C300.571 108.523 283.056 108.592 261.458 108.592C239.859 108.592 222.344 108.523 222.344 108.443C222.344 108.362 239.853 108.293 261.458 108.293C283.062 108.293 300.571 108.362 300.571 108.443Z" fill="#E0E0E0"/>
<path d="M300.571 115.863C300.571 115.943 283.056 116.012 261.458 116.012C239.859 116.012 222.344 115.943 222.344 115.863C222.344 115.782 239.853 115.713 261.458 115.713C283.062 115.713 300.571 115.777 300.571 115.863Z" fill="#E0E0E0"/>
<path d="M168.592 92.895C168.592 92.9813 158.152 93.0446 145.279 93.0446C132.406 93.0446 121.966 92.9813 121.966 92.895C121.966 92.8088 132.4 92.7455 145.279 92.7455C158.157 92.7455 168.592 92.8145 168.592 92.895Z" fill="#E0E0E0"/>
<path d="M168.592 98.7218C168.592 98.8024 158.152 98.8714 145.279 98.8714C132.406 98.8714 121.966 98.8024 121.966 98.7218C121.966 98.6413 132.4 98.5723 145.279 98.5723C158.157 98.5723 168.592 98.6413 168.592 98.7218Z" fill="#E0E0E0"/>
<path d="M168.592 104.549C168.592 104.629 158.152 104.698 145.279 104.698C132.406 104.698 121.966 104.629 121.966 104.549C121.966 104.468 132.4 104.399 145.279 104.399C158.157 104.399 168.592 104.462 168.592 104.549Z" fill="#E0E0E0"/>
<path d="M168.591 110.375C168.591 110.456 158.152 110.525 145.279 110.525C132.406 110.525 122 110.456 122 110.375C122 110.295 132.434 110.226 145.313 110.226C158.192 110.226 168.591 110.289 168.591 110.375Z" fill="#E0E0E0"/>
<path d="M168.592 116.196C168.592 116.283 158.152 116.352 145.279 116.352C132.406 116.352 121.966 116.283 121.966 116.196C121.966 116.11 132.4 116.047 145.279 116.047C158.157 116.047 168.592 116.116 168.592 116.196Z" fill="#E0E0E0"/>
<path d="M216.356 90.065H182.414V122.903H216.356V90.065Z" fill="#F5F5F5"/>
<path d="M185.048 120.096L194.435 103.197L202.114 113.999L206.785 108.264L213.728 120.096H185.048Z" fill="#EBEBEB"/>
<path d="M205.404 99.9125C205.404 100.396 205.261 100.869 204.992 101.271C204.724 101.673 204.342 101.986 203.895 102.171C203.449 102.356 202.957 102.404 202.483 102.31C202.009 102.216 201.573 101.983 201.231 101.641C200.889 101.299 200.656 100.864 200.562 100.389C200.468 99.9152 200.516 99.4237 200.701 98.977C200.886 98.5303 201.2 98.1485 201.602 97.8799C202.004 97.6113 202.476 97.4679 202.96 97.4679C203.281 97.4671 203.599 97.5298 203.896 97.6524C204.193 97.775 204.463 97.9551 204.69 98.1822C204.917 98.4094 205.097 98.6791 205.22 98.9761C205.342 99.273 205.405 99.5912 205.404 99.9125Z" fill="#EBEBEB"/>
<path d="M213.727 120.188C213.723 120.142 213.723 120.096 213.727 120.05C213.727 119.953 213.727 119.826 213.727 119.671C213.727 119.32 213.727 118.825 213.727 118.192C213.727 116.887 213.727 115.006 213.693 112.613C213.693 107.816 213.653 100.988 213.624 92.7858L213.762 92.9238H185.082C185.042 92.9583 185.387 92.619 185.243 92.7685V96.4786C185.243 97.7095 185.243 98.9289 185.243 100.137V107.212C185.243 111.813 185.243 116.156 185.243 120.16L185.105 120.016L205.841 120.091L211.691 120.125H213.239H213.641H213.785H213.658H213.273H211.749L205.928 120.165L185.105 120.234H184.962V120.096C184.962 116.07 184.962 111.744 184.962 107.149C184.962 104.848 184.962 102.484 184.962 100.074V92.7973C184.812 92.9353 185.157 92.596 185.123 92.6305H213.802H213.94V92.7685C213.94 101.005 213.883 107.868 213.871 112.688C213.871 115.063 213.871 116.938 213.831 118.233C213.831 118.854 213.831 119.337 213.831 119.682C213.831 119.837 213.831 119.958 213.831 120.05C213.801 120.099 213.766 120.146 213.727 120.188Z" fill="#EBEBEB"/>
<path d="M167.591 27.7189H121.552V72.2568H167.591V27.7189Z" fill="#F5F5F5"/>
<path d="M125.124 68.449L137.859 45.5272L148.275 60.1776L154.603 52.3951L164.019 68.449H125.124Z" fill="#E0E0E0"/>
<path d="M152.71 41.0694C152.71 41.7247 152.516 42.3652 152.152 42.9101C151.788 43.4549 151.27 43.8796 150.665 44.1303C150.06 44.3811 149.393 44.4467 148.751 44.3189C148.108 44.191 147.518 43.8755 147.054 43.4121C146.591 42.9488 146.275 42.3584 146.148 41.7157C146.02 41.0731 146.085 40.4069 146.336 39.8015C146.587 39.1961 147.012 38.6786 147.556 38.3146C148.101 37.9505 148.742 37.7562 149.397 37.7562C150.276 37.7562 151.119 38.1053 151.74 38.7266C152.361 39.348 152.71 40.1907 152.71 41.0694Z" fill="#E0E0E0"/>
<path d="M164.019 68.5698C164.019 68.5698 164.019 68.5065 164.019 68.3915C164.019 68.2764 164.019 68.0866 164.019 67.868C164.019 67.3964 164.019 66.7176 164.019 65.8663C164.019 64.1005 163.99 61.5466 163.967 58.3024C163.967 51.7969 163.909 42.5304 163.869 31.406L164.059 31.5958H125.164L125.382 31.383V36.4275C125.382 38.0956 125.382 39.7464 125.382 41.3858C125.382 44.6587 125.382 47.8625 125.382 50.9801C125.382 57.221 125.382 63.1169 125.382 68.541L125.193 68.3512L153.314 68.449L161.246 68.5007H163.351H163.927H164.116C164.061 68.5105 164.005 68.5105 163.95 68.5007H163.42H161.355L153.464 68.5525L125.221 68.6503H125.026V68.4547C125.026 63.0306 125.026 57.1348 125.026 50.8938C125.026 47.7762 125.026 44.5666 125.026 41.2995V31.4118L125.25 31.1874L164.145 31.2162H164.335V31.4003C164.295 42.5764 164.26 51.8774 164.237 58.4347C164.237 61.6559 164.203 64.1867 164.191 65.9526C164.191 66.7982 164.191 67.4596 164.191 67.9198C164.191 68.1326 164.191 68.2937 164.191 68.4202C164.142 68.4785 164.083 68.5289 164.019 68.5698Z" fill="#E0E0E0"/>
<path d="M234.061 60.9138L229.459 60.8505L229.632 48.3226C229.63 46.1223 229.194 43.9439 228.35 41.9119C227.506 39.8798 226.27 38.034 224.712 36.4797C223.155 34.9254 221.306 33.6931 219.272 32.8531C217.239 32.0132 215.059 31.582 212.859 31.5843C210.659 31.5866 208.48 32.0222 206.448 32.8663C204.416 33.7105 202.57 34.9466 201.016 36.5041C197.877 39.6496 196.116 43.9133 196.121 48.3571L195.948 60.9138L191.346 60.8505L191.519 48.3226C191.524 42.6583 193.778 37.2279 197.787 33.2258C201.795 29.2238 207.229 26.9781 212.893 26.9827C218.558 26.9872 223.988 29.2418 227.99 33.2503C231.992 37.2588 234.238 42.6929 234.233 48.3571L234.061 60.9138Z" fill="#263238"/>
<path d="M234.487 54.8109H191.761C185.95 54.8109 181.24 59.521 181.24 65.3313V106.591C181.24 112.401 185.95 117.111 191.761 117.111H234.487C240.297 117.111 245.007 112.401 245.007 106.591V65.3313C245.007 59.521 240.297 54.8109 234.487 54.8109Z" fill="#FFA600"/>
<g opacity="0.3">
<path opacity="0.3" d="M219.474 82.6737C219.478 81.5651 219.192 80.4748 218.644 79.5109C218.096 78.5471 217.306 77.7433 216.352 77.1793C215.397 76.6152 214.312 76.3106 213.204 76.2957C212.095 76.2807 211.002 76.556 210.033 77.094C209.064 77.6321 208.252 78.4143 207.679 79.363C207.105 80.3117 206.79 81.3939 206.764 82.5022C206.738 83.6105 207.002 84.7062 207.53 85.6808C208.059 86.6553 208.833 87.4746 209.776 88.0575L208.148 95.5869H218.571C218.571 95.5869 217.42 90.853 216.661 87.9367C217.525 87.3563 218.233 86.573 218.723 85.6555C219.213 84.7379 219.471 83.714 219.474 82.6737Z" fill="black"/>
</g>
<g opacity="0.2">
<path opacity="0.2" d="M185.318 98.2214C184.904 98.2214 184.743 90.9451 184.91 81.9892C185.077 73.0333 185.583 65.7742 185.997 65.7857C186.411 65.7973 186.572 73.062 186.406 82.0179C186.239 90.9738 185.733 98.2271 185.318 98.2214Z" fill="white"/>
</g>
<g opacity="0.2">
<path opacity="0.2" d="M185.364 105.429C184.95 105.429 184.611 104.727 184.599 103.847C184.588 102.967 184.91 102.254 185.324 102.248C185.738 102.242 186.083 102.95 186.095 103.83C186.106 104.71 185.779 105.423 185.364 105.429Z" fill="white"/>
</g>
<g opacity="0.2">
<path opacity="0.2" d="M205.37 96.6223C205.042 96.513 205.819 93.1999 207.17 88.7938L207.343 89.5186C206.727 88.9089 206.089 88.2704 205.422 87.5629C204.39 86.3864 203.782 84.8978 203.696 83.3352C203.626 82.0797 203.922 80.831 204.547 79.7401C204.944 79.0198 205.496 78.3969 206.164 77.9168C206.635 77.5889 206.952 77.5026 207.003 77.5831C207.153 77.7615 206.181 78.5322 205.496 80.2061C205.068 81.253 204.937 82.3982 205.118 83.5149C205.3 84.6316 205.787 85.6763 206.526 86.5333L208.378 88.489L208.683 88.8168L208.545 89.2195C207.032 93.5967 205.698 96.7259 205.37 96.6223Z" fill="white"/>
</g>
<g opacity="0.2">
<path opacity="0.2" d="M231.691 59.1364C231.691 59.3435 229.143 59.516 225.03 59.6196C220.918 59.7231 215.252 59.7634 208.925 59.7174C205.784 59.7174 202.793 59.6483 200.072 59.5908C197.352 59.5333 194.895 59.3665 192.934 59.5908C191.377 59.7035 189.875 60.2103 188.568 61.0633C187.654 61.6903 187.28 62.2137 187.176 62.1447C187.073 62.0757 187.32 61.4487 188.2 60.6147C189.497 59.4869 191.098 58.7666 192.802 58.544C193.944 58.3667 195.097 58.2763 196.253 58.2736L200.118 58.2333C202.839 58.2333 205.83 58.2333 208.971 58.2333C215.252 58.2794 220.935 58.4117 225.048 58.5785C229.16 58.7453 231.691 58.9293 231.691 59.1364Z" fill="white"/>
</g>
<path d="M16.5027 192.261L16.0943 193.791C16.0943 193.791 10.5551 202.805 11.2108 203.673C11.6585 204.233 12.266 204.642 12.9525 204.848C13.6389 205.053 14.3717 205.045 15.0531 204.823C16.9801 204.34 25.1134 196.615 25.1134 196.615L25.5793 195.379L16.5027 192.261Z" fill="#0F1E72"/>
<g opacity="0.3">
<path opacity="0.3" d="M11.763 201.602C11.763 201.602 14.1616 200.544 15.5478 203.644C15.5478 203.644 16.5832 203.253 19.4592 200.849C22.3352 198.444 25.1134 196.086 25.1134 196.086C25.1134 196.086 25.4125 195.845 25.3262 196.086C25.2399 196.328 25.1134 196.736 25.1134 196.736L19.5627 201.631C19.5627 201.631 16.238 204.507 15.404 204.714C14.5699 204.921 13.7244 205.22 12.666 204.749C11.9883 204.499 11.4255 204.01 11.0842 203.374C11.0842 203.236 11.763 201.602 11.763 201.602Z" fill="black"/>
</g>
<path d="M15.8698 204.657C15.8353 204.657 15.7778 204.352 15.5764 203.892C15.3163 203.293 14.9214 202.762 14.4226 202.341C13.9237 201.92 13.3343 201.62 12.7004 201.464C12.2115 201.349 11.8951 201.344 11.8951 201.315C12.1684 201.274 12.4471 201.294 12.7119 201.372C13.3835 201.496 14.0116 201.791 14.5353 202.229C15.0507 202.67 15.4464 203.234 15.6857 203.869C15.7969 204.117 15.8594 204.385 15.8698 204.657Z" fill="#263238"/>
<path d="M25.5793 195.689C25.5422 195.738 25.4997 195.782 25.4527 195.822L25.0616 196.167L23.6409 197.421L18.8264 201.493C17.9636 202.272 17.0361 202.976 16.0539 203.598C15.2273 204.111 14.2557 204.339 13.2872 204.248C12.627 204.178 12.0144 203.871 11.5616 203.385C11.3998 203.221 11.2726 203.025 11.1877 202.81C11.311 203.015 11.4536 203.208 11.6134 203.385C12.0722 203.814 12.6618 204.075 13.2872 204.127C14.222 204.191 15.1526 203.955 15.9447 203.454C16.9144 202.836 17.832 202.14 18.6884 201.372C20.5578 199.819 22.2431 198.41 23.5373 197.346L25.0156 196.138L25.4297 195.816C25.4734 195.767 25.5238 195.724 25.5793 195.689Z" fill="#263238"/>
<path d="M16.8017 199.48C16.4406 199.303 16.0977 199.091 15.7778 198.847C15.4262 198.649 15.0932 198.42 14.7827 198.163C15.1787 198.264 15.5503 198.444 15.8756 198.692C16.2335 198.89 16.5482 199.158 16.8017 199.48Z" fill="#263238"/>
<path d="M17.9925 198.186C17.5584 198.047 17.1369 197.872 16.7328 197.662C16.3049 197.511 15.8926 197.318 15.5018 197.087C15.958 197.147 16.4 197.288 16.8075 197.501C17.2381 197.661 17.6387 197.893 17.9925 198.186Z" fill="#263238"/>
<path d="M19.0967 197.076C19.0565 197.116 18.556 196.673 17.8313 196.322C17.1065 195.971 16.4508 195.827 16.4623 195.747C16.9691 195.746 17.4672 195.879 17.9061 196.132C18.3772 196.339 18.7873 196.664 19.0967 197.076Z" fill="#263238"/>
<path d="M19.7352 195.753C19.7352 195.793 19.2405 195.453 18.5848 195.177C17.9291 194.901 17.3769 194.769 17.3884 194.717C17.8306 194.707 18.2682 194.81 18.6596 195.016C19.0774 195.161 19.4487 195.416 19.7352 195.753Z" fill="#263238"/>
<path d="M19.459 194.499C19.2023 194.389 18.9683 194.233 18.7688 194.038C18.5435 193.844 18.3356 193.631 18.1476 193.4C18.033 193.263 17.9273 193.119 17.8312 192.969C17.7697 192.888 17.7211 192.799 17.6874 192.704C17.6643 192.646 17.6574 192.582 17.6675 192.521C17.6776 192.459 17.7044 192.401 17.7449 192.353C17.8308 192.281 17.9358 192.235 18.0472 192.222C18.1586 192.209 18.2715 192.228 18.3719 192.278C18.5458 192.35 18.7026 192.458 18.8321 192.595C19.0423 192.822 19.1874 193.103 19.252 193.406C19.2977 193.604 19.317 193.807 19.3095 194.01C19.3095 194.153 19.3095 194.234 19.275 194.234C19.2405 194.234 19.275 193.912 19.1312 193.44C19.0537 193.166 18.9094 192.915 18.7113 192.71C18.5962 192.594 18.4594 192.502 18.3086 192.439C18.2441 192.401 18.1706 192.381 18.0958 192.381C18.021 192.381 17.9475 192.401 17.883 192.439C17.7909 192.531 17.883 192.698 17.975 192.842C18.067 192.986 18.1763 193.135 18.2741 193.268C18.4506 193.497 18.6428 193.715 18.8493 193.918C19.2174 194.297 19.4705 194.47 19.459 194.499Z" fill="#263238"/>
<path d="M19.3384 194.343C19.3384 194.343 19.3384 194.257 19.3959 194.119C19.4807 193.929 19.5931 193.753 19.7295 193.596C20.0512 193.212 20.4862 192.94 20.972 192.819C21.0781 192.796 21.1879 192.796 21.2941 192.819C21.3576 192.834 21.4159 192.866 21.4626 192.911C21.5092 192.957 21.5425 193.015 21.5587 193.078C21.5638 193.186 21.5447 193.293 21.5029 193.393C21.4611 193.492 21.3976 193.581 21.3171 193.653C21.1963 193.794 21.057 193.918 20.9029 194.021C20.6429 194.195 20.3487 194.31 20.0401 194.361C19.8326 194.395 19.6207 194.395 19.4132 194.361C19.2694 194.361 19.1946 194.303 19.1946 194.292C19.468 194.298 19.7415 194.278 20.0114 194.234C20.2968 194.168 20.5664 194.047 20.8051 193.877C20.9477 193.781 21.0756 193.665 21.1848 193.532C21.2461 193.478 21.2953 193.412 21.329 193.338C21.3627 193.263 21.3802 193.183 21.3803 193.101C21.3803 192.969 21.1733 192.94 21.0065 192.974C20.841 193.013 20.6808 193.071 20.529 193.147C20.265 193.275 20.0255 193.448 19.8216 193.659C19.643 193.874 19.4814 194.103 19.3384 194.343Z" fill="#263238"/>
<path d="M24.0032 194.97C23.7443 194.905 23.4718 194.919 23.2209 195.011C22.6266 195.267 22.1348 195.714 21.8232 196.282C21.51 196.85 21.3813 197.501 21.4551 198.145C21.5126 198.64 21.6449 198.928 21.6161 198.939C21.4587 198.707 21.36 198.441 21.3285 198.163C21.2145 197.487 21.3342 196.793 21.6679 196.195C21.9949 195.589 22.5333 195.125 23.1807 194.89C23.3131 194.831 23.4584 194.808 23.6025 194.822C23.7467 194.836 23.8847 194.887 24.0032 194.97Z" fill="#263238"/>
<path d="M20.7187 198.6C20.4519 198.948 20.1361 199.256 19.7811 199.514C19.468 199.822 19.1138 200.086 18.7285 200.297C18.9954 199.948 19.3111 199.64 19.6661 199.382C19.9805 199.075 20.3345 198.812 20.7187 198.6Z" fill="#263238"/>
<path d="M21.8175 198.013C21.8692 198.013 21.9325 198.128 21.967 198.278C22.0015 198.427 21.967 198.56 21.967 198.577C21.967 198.594 21.852 198.479 21.8175 198.312C21.7829 198.145 21.7714 198.019 21.8175 198.013Z" fill="#263238"/>
<path d="M21.9613 196.88C22.0074 196.88 22.0189 197.035 21.9613 197.179C21.9038 197.323 21.8521 197.444 21.806 197.438C21.76 197.432 21.7485 197.3 21.806 197.139C21.8636 196.978 21.9153 196.863 21.9613 196.88Z" fill="#263238"/>
<path d="M22.5651 195.914C22.6054 195.954 22.5651 196.063 22.4501 196.19C22.335 196.316 22.2488 196.385 22.2085 196.362C22.1682 196.339 22.2085 196.207 22.312 196.075C22.4156 195.942 22.5364 195.879 22.5651 195.914Z" fill="#263238"/>
<path d="M23.543 195.315C23.543 195.361 23.4567 195.453 23.3187 195.522C23.1806 195.591 23.0483 195.603 23.0196 195.563C22.9908 195.522 23.0944 195.43 23.2439 195.356C23.3935 195.281 23.5258 195.269 23.543 195.315Z" fill="#263238"/>
<path d="M24.6762 195.183C24.6762 195.235 24.5382 195.275 24.3886 195.275C24.2391 195.275 24.1068 195.235 24.101 195.189C24.0953 195.143 24.2218 195.097 24.3886 195.097C24.5554 195.097 24.682 195.131 24.6762 195.183Z" fill="#263238"/>
<path d="M92.9123 49.5191C92.5557 49.9505 92.0495 54.5176 92.0495 54.5176C92.0495 54.5176 83.6228 68.8976 82.4494 69.0989C81.276 69.3002 76.1625 59.1192 76.1625 59.1192L70.9109 63.9566C70.9109 63.9566 73.6489 76.8066 82.2079 79.0096C86.2343 80.0508 93.2977 67.2353 98.0029 56.5768C98.0834 56.4042 100.517 50.6062 100.517 50.6062L92.9123 49.5191Z" fill="#A56959"/>
<path d="M100.424 51.1067C100.424 51.1067 100.424 51.1699 100.396 51.2505C100.177 51.9407 98.8714 54.7822 98.4688 54.7535C98.0662 54.7247 97.1343 54.0632 97.2321 53.6548C97.3299 53.2464 98.9865 50.1231 98.9865 50.1231C98.9865 50.1231 99.2741 49.6457 100.183 49.8988C100.747 50.0598 100.424 51.1067 100.424 51.1067Z" fill="#A56959"/>
<path d="M99.159 49.3178C99.159 49.3178 99.159 49.3811 99.159 49.4673C98.9404 50.1518 97.6347 52.9991 97.2321 52.9646C96.8294 52.9301 95.8976 52.2743 96.0011 51.8659C96.1047 51.4575 97.7267 48.3399 97.7267 48.3399C97.7267 48.3399 98.0201 47.8625 98.9232 48.1156C99.4811 48.2709 99.159 49.3178 99.159 49.3178Z" fill="#A56959"/>
<path d="M97.7037 48.0639C97.7037 48.0639 97.7037 48.1271 97.7037 48.2077C97.4852 48.8979 96.1795 51.7452 95.7768 51.7106C95.3742 51.6761 94.4481 51.0204 94.5459 50.612C94.6437 50.2036 96.2715 47.086 96.2715 47.086C96.2715 47.086 96.5648 46.6086 97.4737 46.8559C98.0258 47.017 97.7037 48.0639 97.7037 48.0639Z" fill="#A56959"/>
<path d="M96.2485 46.8444C96.2567 46.892 96.2567 46.9406 96.2485 46.9882C96.0242 47.6785 94.7242 50.5257 94.3216 50.4912C93.9189 50.4567 92.9871 49.8009 93.0849 49.3926C93.1827 48.9842 94.8105 45.8608 94.8105 45.8608C94.8105 45.8608 95.1039 45.3834 96.0127 45.6365C96.5649 45.7975 96.2485 46.8444 96.2485 46.8444Z" fill="#A56959"/>
<path d="M97.5886 52.8093C97.8976 52.4006 98.1492 51.9516 98.3364 51.4748C98.5885 51.0361 98.7819 50.5661 98.9116 50.0771C98.6106 50.4909 98.3596 50.9388 98.1638 51.4115C97.9158 51.8522 97.7226 52.3216 97.5886 52.8093Z" fill="#7C4435"/>
<path d="M95.8977 52.0787C96.3005 51.4731 96.647 50.832 96.9331 50.1633C97.2779 49.525 97.5647 48.857 97.7901 48.1674C97.3874 48.773 97.0408 49.4141 96.7548 50.0828C96.41 50.7211 96.1231 51.3891 95.8977 52.0787Z" fill="#7C4435"/>
<g opacity="0.78">
<path opacity="0.78" d="M94.2468 51.1814C94.6464 50.5749 94.9909 49.9338 95.2764 49.266C95.6241 48.6291 95.9111 47.9608 96.1335 47.2701C95.734 47.8756 95.3876 48.5145 95.0981 49.1797C94.7541 49.8197 94.4691 50.4897 94.2468 51.1814Z" fill="#7C4435"/>
</g>
<path d="M92.9239 55.1733L92.3487 52.6539C92.0962 51.5507 92.2796 50.3925 92.8606 49.4213L93.3093 48.6793L98.814 51.4633C98.814 51.4633 97.4392 53.2521 96.053 52.1995L97.0654 54.3738L92.9239 55.1733Z" fill="#A56959"/>
<path d="M96.5763 54.5694C96.5418 54.5694 96.5763 54.276 96.5245 53.7871C96.419 53.1095 96.0666 52.4949 95.5352 52.0615L95.006 51.6359L95.6502 51.8429L97.0825 52.3089H97.0479C97.3597 52.3631 97.6805 52.3275 97.9728 52.2063C98.2651 52.0851 98.5169 51.8833 98.6988 51.6244C98.727 51.5852 98.7502 51.5427 98.7678 51.4978L98.8426 51.6819C97.255 50.9629 95.8285 50.2899 94.8162 49.7435C94.2587 49.4747 93.7305 49.1489 93.2401 48.7714C93.811 48.997 94.368 49.2563 94.9082 49.5479C95.9263 50.0426 97.3586 50.6983 98.9346 51.4L99.0611 51.4576L99.0151 51.5899C98.9891 51.6516 98.9584 51.7112 98.9231 51.7682C98.7191 52.1034 98.4034 52.3559 98.0315 52.4814C97.6944 52.5926 97.3365 52.626 96.9847 52.5792L95.5697 52.0845L95.6847 51.8717C96.2488 52.3527 96.6002 53.0369 96.6626 53.7756C96.7046 54.0432 96.6748 54.3171 96.5763 54.5694Z" fill="#7C4435"/>
<path d="M98.0258 52.1305C98.0833 52.1305 97.9798 52.4411 98.0258 52.8495C98.0422 52.9558 98.0906 53.0546 98.1646 53.1327C98.2386 53.2108 98.3346 53.2645 98.4399 53.2867C98.5792 53.2824 98.7149 53.2413 98.8331 53.1676C98.9513 53.0938 99.0479 52.99 99.1129 52.8668C99.481 52.2916 99.8492 51.7566 100.073 51.3655C100.298 50.9744 100.419 50.7213 100.459 50.7328C100.499 50.7443 100.459 51.0319 100.263 51.4633C99.9983 52.0066 99.6965 52.5312 99.3602 53.0336C99.2648 53.197 99.1264 53.3311 98.9601 53.4213C98.7938 53.5116 98.6059 53.5545 98.4169 53.5455C98.2614 53.5081 98.1219 53.4221 98.0184 53.3001C97.915 53.1781 97.8531 53.0263 97.8417 52.8668C97.8239 52.6709 97.8535 52.4736 97.928 52.2916C97.9683 52.188 98.0085 52.1248 98.0258 52.1305Z" fill="#7C4435"/>
<path d="M74.132 88.9031C74.132 88.9031 69.4441 77.3588 69.4671 77.1402L70.6808 72.8435L71.1697 70.3586L72.7573 72.205L80.5052 64.1062C80.649 64.3017 76.9965 58.9984 73.298 53.8101C70.7211 50.1978 67.9313 49.404 66.3035 49.289C65.6264 49.0816 64.9311 48.9391 64.227 48.8633L50.8939 48.7483C47.9839 48.7761 45.1724 49.806 42.9331 51.6646C42.3176 52.1707 37.2098 58.9639 33.7299 65.6822L44.4516 73.4187L46.2175 70.3126V70.3759C46.367 71.4285 47.0055 74.5 47.2126 75.5527C47.8626 78.7911 48.0696 82.6909 46.4878 85.3656C45.286 88.3613 44.2604 91.4246 43.4163 94.5401H76.3178C76.3178 94.5401 75.2594 91.6813 74.132 88.9031Z" fill="#455A64"/>
<path d="M47.6612 84.0772L46.5108 83.1684V83.0648L46.4648 83.1224L39.0275 77.1288L42.2198 71.8657L34.5121 66.2344C34.5466 66.6083 27.3624 77.261 28.3345 79.3548C29.7092 82.3113 39.0447 88.2244 42.8641 90.5539C41.8241 90.6891 40.7941 90.8928 39.781 91.1637C38.8089 91.48 41.9782 92.3141 42.749 92.4809C43.0481 92.5384 43.6636 92.061 44.3193 91.4282L44.4976 91.5318L44.7047 91.0486C45.4067 90.3258 46.0601 89.5571 46.6604 88.7478C46.8214 88.5005 46.8157 87.3788 46.7524 86.1939L47.6612 84.0772Z" fill="#A56959"/>
<path d="M88.8975 195.39L88.8514 194.303L77.8248 194.619L77.9226 198.209H78.6014C81.6384 198.283 94.0398 198.393 96.0472 197.766C98.2847 197.093 88.8975 195.39 88.8975 195.39Z" fill="#0F1E72"/>
<g opacity="0.3">
<path opacity="0.3" d="M81.8972 198.025C81.7012 197.149 81.176 196.383 80.4304 195.885C79.6733 195.364 78.7571 195.126 77.842 195.212L77.9283 198.088L81.8972 198.025Z" fill="black"/>
</g>
<g opacity="0.3">
<path opacity="0.3" d="M93.4876 196.374C93.4876 196.374 96.7835 197.162 96.3636 197.674C95.9437 198.186 83.4618 198.496 77.9226 198.209V197.984L92.5442 197.714C92.5442 197.714 92.8491 196.414 93.4876 196.374Z" fill="black"/>
</g>
<path d="M77.7616 197.979H77.9457H78.5209H80.5168C82.2079 197.979 84.5432 197.979 87.1086 197.915C89.674 197.852 92.0151 197.743 93.6947 197.645L95.6906 197.513L96.2313 197.472H96.4211H96.2313H95.6561L93.6602 197.564C91.9806 197.639 89.6338 197.731 87.0799 197.8C84.526 197.869 82.1734 197.886 80.4881 197.898H78.4921H77.9514L77.7616 197.979Z" fill="#263238"/>
<path d="M92.5614 197.875C92.6384 197.563 92.7543 197.261 92.9065 196.978C93.0972 196.711 93.3172 196.466 93.5623 196.247C93.2351 196.372 92.9624 196.609 92.7915 196.914C92.6907 197.051 92.6184 197.206 92.5789 197.371C92.5393 197.536 92.5334 197.708 92.5614 197.875Z" fill="#263238"/>
<path d="M89.2713 196.431C89.3058 196.431 89.4553 196.27 89.6049 196.029C89.7544 195.787 89.858 195.58 89.8292 195.563C89.8005 195.545 89.6452 195.73 89.4956 195.965C89.3461 196.201 89.2425 196.414 89.2713 196.431Z" fill="#263238"/>
<path d="M88.3683 196.017C88.397 196.017 88.5638 195.931 88.7479 195.764C88.932 195.597 89.0643 195.453 89.0355 195.425C89.0068 195.396 88.8457 195.511 88.6559 195.678C88.4661 195.845 88.3453 195.994 88.3683 196.017Z" fill="#263238"/>
<path d="M87.7816 195.045C87.9674 195.103 88.1636 195.121 88.3568 195.097C88.5513 195.114 88.7472 195.091 88.932 195.028C88.7461 194.97 88.5501 194.952 88.3568 194.976C88.1623 194.954 87.9654 194.978 87.7816 195.045Z" fill="#263238"/>
<path d="M87.563 194.395C87.9738 194.585 88.4427 194.605 88.8687 194.453C88.6536 194.42 88.4358 194.411 88.2187 194.424C88.0013 194.396 87.782 194.386 87.563 194.395Z" fill="#263238"/>
<path d="M89.6165 195.528C89.8504 195.57 90.09 195.57 90.324 195.528C90.5781 195.495 90.8285 195.437 91.0717 195.356C91.22 195.313 91.3629 195.253 91.4974 195.177C91.5381 195.156 91.574 195.127 91.6027 195.091C91.6314 195.056 91.6524 195.015 91.6642 194.97C91.6722 194.921 91.6656 194.87 91.6452 194.824C91.6248 194.778 91.5914 194.739 91.5491 194.711C91.2777 194.594 90.9751 194.569 90.6881 194.641C90.4012 194.713 90.1458 194.877 89.9616 195.108C89.8531 195.235 89.7779 195.388 89.743 195.551C89.743 195.661 89.743 195.73 89.743 195.73C89.8072 195.52 89.9107 195.325 90.0479 195.154C90.201 194.977 90.4 194.846 90.6231 194.775C90.8989 194.68 91.1998 194.691 91.4686 194.803C91.5836 194.878 91.5434 195.005 91.4226 195.074C91.2972 195.144 91.164 195.2 91.0257 195.241C90.792 195.326 90.5515 195.391 90.3067 195.436C89.8868 195.499 89.6165 195.511 89.6165 195.528Z" fill="#263238"/>
<path d="M89.7889 195.557C89.831 195.49 89.8589 195.415 89.8708 195.337C89.8826 195.259 89.8783 195.179 89.8579 195.103C89.8292 194.929 89.7581 194.765 89.6509 194.625C89.588 194.53 89.5028 194.451 89.4025 194.396C89.3023 194.34 89.1901 194.311 89.0756 194.309C89.0419 194.315 89.0098 194.328 88.9811 194.347C88.9523 194.365 88.9276 194.39 88.9084 194.418C88.8891 194.446 88.8757 194.478 88.8688 194.512C88.862 194.545 88.8619 194.58 88.8686 194.614C88.8895 194.719 88.9326 194.819 88.9951 194.907C89.0939 195.049 89.2098 195.179 89.3402 195.292C89.4545 195.411 89.5971 195.498 89.7544 195.545C89.7544 195.545 89.6106 195.436 89.4093 195.229C89.2936 195.111 89.1896 194.982 89.0987 194.844C89.0009 194.711 88.9261 194.464 89.0987 194.43C89.2712 194.395 89.461 194.568 89.5703 194.694C89.6714 194.817 89.7441 194.96 89.7832 195.114C89.8016 195.261 89.8036 195.41 89.7889 195.557Z" fill="#263238"/>
<path d="M77.8997 195.183C77.8997 195.183 78.2103 195.149 78.7107 195.183C79.3522 195.233 79.9692 195.451 80.4996 195.816C81.01 196.171 81.409 196.663 81.65 197.237C81.8283 197.668 81.857 197.961 81.88 197.961C81.9031 197.961 81.88 197.887 81.88 197.754C81.8585 197.557 81.8121 197.364 81.742 197.179C81.5199 196.575 81.1185 196.053 80.5916 195.683C80.0416 195.305 79.3951 195.092 78.7279 195.068C78.5272 195.048 78.3248 195.048 78.124 195.068C78.0429 195.093 77.9669 195.132 77.8997 195.183Z" fill="#263238"/>
<path d="M83.249 196.995C84.3148 197.153 85.3992 197.133 86.4586 196.938C86.4586 196.903 85.7396 196.938 84.8538 196.972C83.968 197.007 83.2548 196.955 83.249 196.995Z" fill="#263238"/>
<path d="M81.0977 197.047C81.0977 197.047 81.1609 197.185 81.2415 197.334C81.322 197.484 81.3623 197.622 81.3968 197.622C81.4313 197.622 81.4485 197.455 81.3565 197.283C81.2645 197.11 81.1207 197.018 81.0977 197.047Z" fill="#263238"/>
<path d="M80.2579 196.126C80.2579 196.155 80.3097 196.259 80.4247 196.362C80.5398 196.466 80.6548 196.529 80.6836 196.506C80.7123 196.483 80.6318 196.38 80.5168 196.27C80.4017 196.161 80.2867 196.103 80.2579 196.126Z" fill="#263238"/>
<path d="M79.0845 195.73C79.0845 195.764 79.2399 195.758 79.4009 195.81C79.562 195.862 79.6828 195.937 79.7115 195.908C79.7403 195.879 79.6425 195.747 79.4412 195.689C79.2398 195.632 79.073 195.701 79.0845 195.73Z" fill="#263238"/>
<path d="M78.2849 195.551C78.2849 195.58 78.3367 195.632 78.4287 195.666C78.5207 195.701 78.6013 195.695 78.6185 195.666C78.6358 195.637 78.561 195.586 78.469 195.551C78.3769 195.517 78.2849 195.517 78.2849 195.551Z" fill="#263238"/>
<path d="M56.5883 21.6563C55.9434 21.1124 55.1439 20.7848 54.3027 20.7198C53.4616 20.6548 52.6212 20.8556 51.9004 21.2939C51.1929 21.7483 50.635 22.4443 49.8699 22.778C48.5987 23.3532 47.1032 22.9045 45.7285 23.1231C44.7132 23.3185 43.7999 23.8669 43.1503 24.6713C42.5007 25.4756 42.1568 26.484 42.1795 27.5176C42.237 28.622 42.7087 29.8184 42.1795 30.779C41.7078 31.6303 40.6437 31.9294 39.8787 32.5391C39.253 33.0856 38.8581 33.8492 38.7738 34.6756C38.6894 35.502 38.9219 36.3296 39.4243 36.9912C39.8821 37.4258 40.3142 37.8868 40.7185 38.3717C41.2592 39.2172 41.1844 40.2986 41.3224 41.2879C41.4605 42.2773 42.0299 43.4047 43.048 43.468C43.8591 43.5197 44.5781 42.8467 45.3834 42.8927C46.5338 42.9848 46.9767 44.3423 47.6324 45.2683C48.0548 45.8489 48.6246 46.3059 49.283 46.5921C49.9414 46.8783 50.6644 46.9833 51.377 46.8962C52.4066 46.7581 53.4247 46.2174 54.4255 46.4705C55.691 46.7926 56.4502 48.2709 57.7387 48.4549C58.6993 48.593 59.5908 47.9545 60.3041 47.3045C61.0173 46.6546 61.7421 45.8953 62.6969 45.7227C63.8473 45.5157 64.9517 46.2117 66.1079 46.3727C66.8589 46.4605 67.6191 46.3264 68.2948 45.9871C68.9705 45.6477 69.532 45.1179 69.9099 44.4631C70.5427 43.3127 70.5427 41.8977 71.1351 40.7242C71.6025 39.9764 72.1154 39.2579 72.6709 38.573C72.9514 38.2309 73.1493 37.8288 73.249 37.3978C73.3488 36.9668 73.3478 36.5186 73.2461 36.0881C73.039 35.5129 72.5329 35.0355 72.2855 34.4545C71.9174 33.5802 72.1877 32.5909 72.2855 31.6476C72.3833 30.7042 72.1877 29.5596 71.3249 29.1684C70.9465 29.0727 70.5755 28.9496 70.2148 28.8003C69.5418 28.3862 69.5763 27.4256 69.5188 26.6376C69.4993 26.0579 69.3407 25.4914 69.0564 24.9859C68.7721 24.4804 68.3704 24.0506 67.8852 23.7328C66.8786 23.1576 65.3889 23.4452 64.8827 24.4806" fill="#263238"/>
<path d="M50.152 32.2631C49.6329 31.3158 49.3252 30.2672 49.25 29.1896C49.1749 28.112 49.3341 27.0309 49.7168 26.0208C50.0994 25.0106 50.6964 24.0953 51.4666 23.3379C52.2368 22.5805 53.162 21.999 54.1784 21.6334C55.6356 21.169 57.169 20.9912 58.6938 21.1099C60.0012 21.1023 61.296 21.3667 62.4958 21.8864C63.0923 22.1526 63.6167 22.557 64.0259 23.0661C64.435 23.5752 64.7169 24.1745 64.8484 24.8142" fill="#0F1E72"/>
<path d="M57.3304 55.5472C58.0393 55.6019 58.752 55.5129 59.4257 55.2854C60.0994 55.058 60.7202 54.6968 61.2509 54.2236C61.7817 53.7503 62.2113 53.1748 62.5142 52.5314C62.817 51.8881 62.9868 51.1902 63.0134 50.4797C63.1226 47.6037 63.2204 44.6931 63.2204 44.6931C63.2204 44.6931 67.5805 44.2905 67.8968 39.9765C68.2132 35.6625 68.0694 25.7 68.0694 25.7C65.6793 24.4964 63.0114 23.9525 60.341 24.1244C57.6705 24.2963 55.0943 25.1778 52.8783 26.6778L52.2053 27.1322L52.4527 50.3359C52.4674 51.6569 52.9763 52.9246 53.8791 53.8891C54.7819 54.8537 56.0132 55.4452 57.3304 55.5472Z" fill="#A56959"/>
<path d="M66.016 33.2927C65.9282 33.205 65.8683 33.0933 65.844 32.9717C65.8198 32.85 65.8321 32.7239 65.8795 32.6093C65.9269 32.4946 66.0073 32.3966 66.1104 32.3277C66.2136 32.2588 66.3348 32.222 66.4589 32.222C66.5829 32.222 66.7042 32.2588 66.8073 32.3277C66.9105 32.3966 66.9908 32.4946 67.0382 32.6093C67.0857 32.7239 67.098 32.85 67.0737 32.9717C67.0494 33.0933 66.9896 33.205 66.9018 33.2927C66.7842 33.41 66.625 33.4759 66.4589 33.4759C66.2928 33.4759 66.1335 33.41 66.016 33.2927Z" fill="#263238"/>
<path d="M67.6954 32.5622C67.6264 32.6369 67.218 32.2861 66.6255 32.2458C66.0331 32.2055 65.5844 32.4874 65.5211 32.4068C65.4579 32.3263 65.5672 32.24 65.7627 32.1077C66.0263 31.9423 66.3359 31.8653 66.6463 31.8881C66.9567 31.9109 67.2517 32.0321 67.4883 32.2343C67.6781 32.3953 67.7299 32.5334 67.6954 32.5622Z" fill="#263238"/>
<path d="M60.379 32.4816C60.4525 32.5261 60.516 32.5853 60.5656 32.6554C60.6153 32.7254 60.65 32.805 60.6676 32.889C60.6853 32.9731 60.6854 33.0599 60.6682 33.144C60.6509 33.2281 60.6165 33.3078 60.5671 33.3781C60.5178 33.4484 60.4545 33.5078 60.3812 33.5526C60.3079 33.5974 60.2263 33.6267 60.1412 33.6387C60.0562 33.6506 59.9696 33.645 59.8868 33.622C59.804 33.5991 59.7268 33.5595 59.66 33.5055C59.5866 33.461 59.523 33.4018 59.4734 33.3317C59.4237 33.2617 59.389 33.1821 59.3714 33.0981C59.3538 33.014 59.3536 32.9272 59.3709 32.8431C59.3882 32.759 59.4226 32.6793 59.4719 32.609C59.5213 32.5387 59.5845 32.4793 59.6578 32.4345C59.7311 32.3897 59.8128 32.3604 59.8978 32.3484C59.9829 32.3365 60.0695 32.3422 60.1522 32.3651C60.235 32.388 60.3122 32.4277 60.379 32.4816Z" fill="#263238"/>
<path d="M61.213 32.7002C61.0721 32.567 60.9018 32.4689 60.7159 32.4139C60.53 32.3589 60.3337 32.3486 60.1431 32.3839C59.5679 32.3321 59.0962 32.6255 59.0329 32.5449C58.9697 32.4644 59.079 32.3781 59.2803 32.2458C59.5436 32.0775 59.8544 31.9988 60.1661 32.0215C60.48 32.0448 60.7782 32.1678 61.0174 32.3724C61.1899 32.5334 61.2475 32.6715 61.213 32.7002Z" fill="#263238"/>
<path d="M63.3298 37.3191C63.6435 37.2172 63.9721 37.1685 64.3019 37.1753C64.4629 37.1753 64.5837 37.1408 64.601 37.0545C64.6152 36.8998 64.5853 36.7442 64.5147 36.6058C64.3882 36.2032 64.2559 35.7948 64.1178 35.3692C63.7385 34.3192 63.463 33.2345 63.2953 32.1308C63.3873 32.102 63.8705 33.5055 64.4457 35.2656L64.8138 36.5138C64.903 36.7188 64.9193 36.9482 64.8598 37.1638C64.8346 37.2218 64.7959 37.273 64.7468 37.313C64.6978 37.353 64.6399 37.3808 64.578 37.3939C64.4883 37.407 64.3973 37.407 64.3076 37.3939C63.9798 37.4251 63.6491 37.3998 63.3298 37.3191Z" fill="#263238"/>
<path d="M63.232 44.6357C61.2375 44.5498 59.3135 43.8731 57.7043 42.6915C57.7043 42.6915 58.8547 45.8781 63.1745 45.7516L63.232 44.6357Z" fill="#7C4435"/>
<path d="M56.1454 24.2102C56.2488 25.1002 56.6431 25.931 57.2672 26.5738C57.8913 27.2166 58.7101 27.6354 59.5966 27.765C60.655 27.8915 61.8054 27.5982 62.7602 28.0756C63.404 28.5009 63.9524 29.0552 64.3708 29.7034C64.582 30.0265 64.8635 30.2977 65.1941 30.4969C65.5248 30.6961 65.8961 30.8181 66.2805 30.8538C66.6492 30.8098 67.0119 30.7249 67.3618 30.6007C67.5376 30.5397 67.7247 30.5184 67.9097 30.5382C68.0947 30.5581 68.2729 30.6188 68.4317 30.7157C68.9786 29.4483 69.1981 28.0638 69.0702 26.6893C68.9984 26.0058 68.7375 25.3558 68.3169 24.8122C67.8963 24.2686 67.3325 23.853 66.6889 23.612C65.8318 23.3532 64.9057 23.52 64.0257 23.3647C63.3068 23.1979 62.6112 22.9429 61.9549 22.6054C60.8669 22.0179 59.6333 21.7544 58.4002 21.8461C57.1808 22.0302 56.0074 23.0311 56.0419 24.262" fill="#263238"/>
<path d="M52.5103 36.0134C54.0749 37.2731 55.9615 34.0174 56.7956 31.987C57.5587 29.893 57.9688 27.6868 58.0092 25.4584C58.1263 24.7358 57.9923 23.9948 57.6296 23.3589C57.1809 22.7492 56.9796 23.497 56.4792 22.9275C55.5186 21.8116 53.747 22.4156 52.8727 22.7952C51.4174 23.4222 50.5086 25.05 50.221 26.7009C50.0217 28.3681 50.0819 30.0562 50.3993 31.7051C50.5086 32.4644 50.6179 33.2236 50.7214 34.0059C50.758 34.545 50.9132 35.0695 51.1758 35.5417C51.3002 35.7681 51.5007 35.9432 51.7418 36.0359C51.9829 36.1285 52.2491 36.1328 52.4931 36.0479" fill="#263238"/>
<path d="M52.4526 32.4644C52.4513 32.2963 52.3855 32.1352 52.2689 32.0143C52.1522 31.8933 51.9935 31.8218 51.8257 31.8144C51.0204 31.8144 49.7032 32.1135 49.5824 34.3338C49.4098 37.5089 52.4584 36.7151 52.4584 36.6346C52.4584 36.5541 52.4584 33.7011 52.4526 32.4644Z" fill="#A56959"/>
<path d="M51.7739 35.3807C51.7739 35.3807 51.7164 35.4152 51.6186 35.4497C51.4854 35.5011 51.3377 35.5011 51.2045 35.4497C51.0048 35.3089 50.8463 35.1174 50.7452 34.895C50.6441 34.6726 50.6041 34.4273 50.6293 34.1842C50.6347 33.9121 50.7015 33.6447 50.8248 33.402C50.861 33.3043 50.9201 33.2167 50.9972 33.1466C51.0743 33.0766 51.1671 33.026 51.2678 32.9993C51.3323 32.9866 51.3993 32.9969 51.4571 33.0284C51.5149 33.06 51.5598 33.1107 51.5841 33.1719C51.6186 33.2639 51.5841 33.3214 51.6129 33.3329C51.6416 33.3444 51.6877 33.2812 51.6646 33.1489C51.6544 33.0689 51.6156 32.9954 51.5554 32.9418C51.4703 32.8703 51.3615 32.8333 51.2505 32.8383C51.119 32.8574 50.9946 32.9097 50.8889 32.9902C50.7833 33.0707 50.6999 33.1768 50.6465 33.2984C50.4986 33.5669 50.4158 33.8664 50.405 34.1727C50.3746 34.4542 50.4276 34.7385 50.5575 34.9901C50.6874 35.2416 50.8884 35.4495 51.1355 35.5877C51.219 35.6194 51.3087 35.6313 51.3975 35.6223C51.4864 35.6133 51.5719 35.5837 51.6474 35.536C51.7624 35.4554 51.7854 35.3864 51.7739 35.3807Z" fill="#7C4435"/>
<path d="M61.8054 38.0841C61.6953 38.2738 61.6632 38.4988 61.7159 38.7117C61.7686 38.9245 61.902 39.1086 62.0878 39.2251C62.2736 39.3415 62.4974 39.3811 62.712 39.3357C62.9265 39.2902 63.115 39.1632 63.2376 38.9814C63.3034 38.8919 63.3508 38.7903 63.3773 38.6825C63.4037 38.5746 63.4087 38.4626 63.3919 38.3529C63.375 38.2431 63.3368 38.1377 63.2792 38.0428C63.2217 37.9478 63.146 37.8651 63.0565 37.7994C62.9669 37.7337 62.8654 37.6862 62.7575 37.6598C62.6497 37.6333 62.5377 37.6283 62.4279 37.6452C62.3181 37.662 62.2128 37.7003 62.1178 37.7578C62.0228 37.8154 61.9401 37.8911 61.8744 37.9806" fill="#7C4435"/>
<path d="M63.7842 38.6996C63.5696 38.7878 63.3388 38.8299 63.1069 38.8229C62.875 38.816 62.6471 38.7602 62.4382 38.6593C61.7077 38.4005 61.2878 37.8886 61.3741 37.8368C61.4603 37.785 61.8802 38.1474 62.5245 38.3717C63.1687 38.596 63.7784 38.5903 63.7842 38.6996Z" fill="#263238"/>
<path d="M55.6911 21.7254C54.5119 21.5643 53.6779 20.4139 53.4765 19.2463C53.3649 18.0624 53.506 16.8684 53.8907 15.7433C54.8598 16.4173 55.5605 17.4111 55.8698 18.5503C56.179 19.6895 56.0771 20.9012 55.5818 21.9727" fill="#0F1E72"/>
<path d="M55.6796 21.547C55.5646 21.1094 55.5982 20.646 55.7752 20.2295C55.9522 19.8131 56.2625 19.4672 56.6574 19.2462C57.4491 18.8209 58.356 18.6597 59.2458 18.7861C59.3246 18.7886 59.4016 18.8103 59.4701 18.8494C59.5095 18.883 59.5415 18.9244 59.5642 18.9709C59.587 19.0173 59.6 19.068 59.6024 19.1197C59.6339 19.5591 59.5329 19.9979 59.3124 20.3793C59.092 20.7608 58.7622 21.0673 58.3658 21.2594C57.5648 21.6238 56.6974 21.8196 55.8176 21.8346C55.6827 21.8581 55.544 21.8462 55.415 21.8001C55.3831 21.7875 55.3541 21.7686 55.3295 21.7447C55.305 21.7207 55.2855 21.6921 55.2721 21.6605C55.2587 21.629 55.2517 21.595 55.2516 21.5607C55.2514 21.5264 55.2581 21.4925 55.2712 21.4608" fill="#0F1E72"/>
<path d="M71.3826 27.2473C71.3826 27.2473 71.3826 27.184 71.3078 27.0978C71.2606 27.037 71.2016 26.9864 71.1344 26.9488C71.0672 26.9113 70.9932 26.8876 70.9167 26.8792C70.7993 26.8481 70.6744 26.8629 70.5676 26.9206C70.4607 26.9783 70.3799 27.0746 70.3415 27.1898C70.3069 27.3388 70.3232 27.4951 70.3878 27.6338C70.4525 27.7725 70.5617 27.8855 70.6981 27.9548C70.873 28.0188 71.0643 28.0225 71.2415 27.9651C71.4188 27.9078 71.5717 27.7928 71.6759 27.6385C71.7942 27.4512 71.864 27.2375 71.879 27.0166C71.8941 26.7957 71.854 26.5745 71.7622 26.373C71.5503 25.8923 71.1759 25.5015 70.7048 25.2691C70.2336 25.0367 69.6957 24.9775 69.1853 25.1018L69.0128 25.1536L68.2132 25.4067L68.869 24.8947C69.0593 24.7275 69.1967 24.5083 69.2641 24.2641C69.3316 24.0198 69.3262 23.7612 69.2486 23.52C69.1693 23.2912 69.0398 23.0831 68.8696 22.911C68.6994 22.7388 68.4928 22.6069 68.265 22.5249C67.8603 22.3932 67.4306 22.3569 67.0095 22.4188C66.5885 22.4807 66.1874 22.639 65.8377 22.8815C65.527 23.0713 65.2625 23.2957 64.9921 23.4567C64.7641 23.5999 64.5019 23.6793 64.2328 23.6868C63.7727 23.6868 63.6001 23.4452 63.6174 23.4452C63.8031 23.5483 64.0157 23.5924 64.2271 23.5718C64.472 23.546 64.706 23.4568 64.9058 23.3129C65.1474 23.1576 65.4005 22.9218 65.7284 22.709C66.0793 22.4729 66.4685 22.2997 66.8788 22.197C67.3663 22.0724 67.8803 22.1005 68.3513 22.2776C68.6175 22.3699 68.8594 22.5213 69.0586 22.7206C69.2579 22.9199 69.4094 23.1617 69.5017 23.428C69.6064 23.7296 69.6174 24.0559 69.5332 24.3639C69.449 24.6718 69.2736 24.9472 69.03 25.1536L68.8862 24.8947L69.0875 24.8315C69.6672 24.6888 70.2787 24.7575 70.8122 25.0253C71.3457 25.2931 71.7662 25.7424 71.9981 26.2925C72.1038 26.5375 72.1455 26.8054 72.1193 27.071C72.0932 27.3366 72 27.5913 71.8485 27.811C71.7082 28.0054 71.5054 28.1457 71.274 28.2086C71.0426 28.2714 70.7967 28.2529 70.5773 28.1561C70.4021 28.0624 70.2646 27.911 70.1881 27.7276C70.1116 27.5442 70.1008 27.34 70.1574 27.1495C70.1862 27.0719 70.2314 27.0013 70.29 26.9428C70.3486 26.8842 70.4191 26.839 70.4968 26.8102C70.6219 26.7642 70.7574 26.7542 70.8879 26.7814C70.9769 26.7958 71.0613 26.8308 71.1342 26.8838C71.2071 26.9367 71.2666 27.0061 71.3078 27.0863C71.4229 27.184 71.3826 27.2473 71.3826 27.2473Z" fill="#263238"/>
<path d="M39.804 32.3724C39.9078 32.3458 40.0166 32.3458 40.1204 32.3724C40.3704 32.4497 40.5912 32.6011 40.7534 32.8065C40.9157 33.0119 41.0118 33.2616 41.0292 33.5228C41.0364 33.6587 41.0168 33.7947 40.9714 33.923C40.926 34.0513 40.8557 34.1694 40.7646 34.2705C40.5509 34.5009 40.2646 34.6512 39.9536 34.6962C39.7785 34.7253 39.5992 34.7156 39.4283 34.6679C39.2573 34.6202 39.0989 34.5356 38.9642 34.4201C38.7105 34.1291 38.5419 33.7739 38.4769 33.3933C38.412 33.0128 38.4532 32.6217 38.5961 32.2631C38.739 31.8382 38.9724 31.4495 39.2803 31.1237C39.5882 30.798 39.9631 30.543 40.3792 30.3764C40.8221 30.2039 41.2881 30.1348 41.7252 30.0025C41.9422 29.9502 42.1464 29.8544 42.3253 29.721C42.5043 29.5875 42.6543 29.4191 42.7663 29.226C42.9598 28.7952 43.0161 28.3152 42.9274 27.8513C42.8401 27.3525 42.7053 26.8633 42.5247 26.3903C42.3405 25.8901 42.2357 25.3641 42.2141 24.8315C42.2212 24.2889 42.4257 23.7674 42.7893 23.3647C43.1331 22.9843 43.5748 22.7057 44.0663 22.5594C44.5318 22.4286 45.019 22.3934 45.4985 22.4559C46.4419 22.5537 47.2241 23.0311 47.9719 23.1404C48.3309 23.2115 48.7033 23.1609 49.0303 22.9966C49.3304 22.8251 49.5989 22.6033 49.824 22.3409C50.2022 21.8399 50.6801 21.4227 51.2275 21.1157C51.6624 20.9152 52.1433 20.8358 52.6195 20.8856C52.9182 20.9137 53.2089 20.9976 53.4766 21.1329C53.5456 21.1677 53.6128 21.2062 53.6779 21.248L53.7354 21.2997C53.3813 21.1368 53.002 21.0356 52.6138 21.0006C52.1609 20.9716 51.7085 21.0628 51.3023 21.2652C50.783 21.5776 50.3329 21.9925 49.9793 22.4847C49.7411 22.7691 49.4573 23.0121 49.1396 23.2037C48.7696 23.3944 48.3475 23.459 47.9374 23.3877C47.0976 23.2612 46.3441 22.8125 45.4698 22.732C45.0238 22.658 44.5666 22.6948 44.1382 22.8393C43.7099 22.9837 43.3237 23.2313 43.0137 23.5603C42.7042 23.9135 42.5345 24.3676 42.5362 24.8372C42.554 25.3369 42.6531 25.8304 42.8296 26.2982C43.0172 26.7876 43.1559 27.2943 43.2437 27.811C43.3408 28.3365 43.2725 28.8791 43.0482 29.3641C42.9186 29.5904 42.7441 29.7878 42.5354 29.9441C42.3267 30.1004 42.0881 30.2123 41.8345 30.2729C41.3628 30.4167 40.9027 30.48 40.5 30.6295C40.1184 30.7828 39.7741 31.0161 39.4903 31.3138C39.2065 31.6115 38.9898 31.9666 38.855 32.3551C38.7092 32.6756 38.6552 33.0301 38.6989 33.3794C38.7425 33.7287 38.8822 34.0591 39.1023 34.3338C39.3265 34.5086 39.6076 34.5941 39.8912 34.574C40.1748 34.5538 40.4408 34.4293 40.6381 34.2245C40.7829 34.0616 40.8698 33.8555 40.8854 33.6381C40.901 33.4207 40.8444 33.2042 40.7244 33.0223C40.5933 32.7599 40.3701 32.5551 40.0974 32.4471C39.9133 32.3839 39.804 32.3839 39.804 32.3724Z" fill="#263238"/>
<path d="M58.1068 35.4209C58.0903 35.4297 58.0721 35.435 58.0535 35.4366C58.0348 35.4381 58.0161 35.4359 57.9983 35.43C57.9806 35.4241 57.9642 35.4146 57.9502 35.4022C57.9362 35.3897 57.9249 35.3746 57.917 35.3576C57.9077 35.3226 57.9121 35.2853 57.9291 35.2533C57.9462 35.2213 57.9747 35.1969 58.009 35.1851C58.0429 35.1703 58.081 35.1686 58.1161 35.1803C58.1511 35.192 58.1806 35.2162 58.1988 35.2483C58.2081 35.2834 58.2037 35.3207 58.1867 35.3527C58.1696 35.3847 58.1411 35.409 58.1068 35.4209Z" fill="#263238"/>
<path d="M59.2399 35.3289C59.2191 35.3313 59.198 35.3294 59.1778 35.3234C59.1577 35.3174 59.139 35.3073 59.1229 35.2939C59.1068 35.2805 59.0935 35.2639 59.084 35.2452C59.0745 35.2265 59.0688 35.206 59.0674 35.1851C59.0632 35.1643 59.0632 35.1429 59.0672 35.1221C59.0713 35.1013 59.0795 35.0815 59.0913 35.0639C59.103 35.0463 59.1181 35.0311 59.1358 35.0194C59.1534 35.0076 59.1731 34.9994 59.1939 34.9953C59.233 34.9985 59.2698 35.015 59.2983 35.042C59.3267 35.069 59.3452 35.1048 59.3505 35.1437C59.3559 35.1825 59.3478 35.222 59.3277 35.2557C59.3076 35.2893 59.2767 35.3152 59.2399 35.3289Z" fill="#263238"/>
<path d="M60.2696 35.5647C60.2263 35.5526 60.1892 35.5244 60.1657 35.486C60.1422 35.4476 60.1341 35.4018 60.1431 35.3577C60.1431 35.2484 60.2351 35.1736 60.3156 35.1851C60.359 35.1973 60.3961 35.2254 60.4196 35.2638C60.443 35.3022 60.4511 35.3481 60.4422 35.3922C60.4394 35.437 60.4204 35.4794 60.3886 35.5112C60.3568 35.5429 60.3145 35.562 60.2696 35.5647Z" fill="#263238"/>
<path d="M59.0503 36.2722C59.1329 36.2722 59.1999 36.2078 59.1999 36.1284C59.1999 36.049 59.1329 35.9846 59.0503 35.9846C58.9677 35.9846 58.9008 36.049 58.9008 36.1284C58.9008 36.2078 58.9677 36.2722 59.0503 36.2722Z" fill="#263238"/>
<path d="M66.2058 35.7143C66.1732 35.7219 66.1391 35.7196 66.1079 35.7076C66.0767 35.6955 66.0498 35.6744 66.0307 35.6469C66.0116 35.6194 66.0013 35.5869 66.001 35.5534C66.0007 35.52 66.0104 35.4872 66.029 35.4594C66.0475 35.4315 66.074 35.4099 66.105 35.3973C66.136 35.3847 66.1701 35.3818 66.2028 35.3888C66.2355 35.3958 66.2653 35.4125 66.2884 35.4367C66.3115 35.4609 66.3268 35.4915 66.3323 35.5245C66.3393 35.5663 66.3301 35.6092 66.3066 35.6444C66.2831 35.6797 66.247 35.7047 66.2058 35.7143Z" fill="#263238"/>
<path d="M66.9708 35.7488C66.8902 35.7488 66.8615 35.605 66.9017 35.4899C66.942 35.3749 67.034 35.3001 67.1146 35.3231C67.1951 35.3461 67.2238 35.4669 67.1836 35.5877C67.1433 35.7085 67.0513 35.7775 66.9708 35.7488Z" fill="#263238"/>
<path d="M66.5911 36.7899C66.5704 36.7858 66.5508 36.7776 66.5334 36.7658C66.5161 36.7539 66.5013 36.7386 66.49 36.7209C66.4787 36.7031 66.4711 36.6833 66.4677 36.6625C66.4643 36.6417 66.4652 36.6205 66.4703 36.6001C66.4724 36.5796 66.4786 36.5598 66.4885 36.5418C66.4983 36.5237 66.5117 36.5078 66.5277 36.495C66.5438 36.4822 66.5622 36.4726 66.582 36.467C66.6017 36.4613 66.6224 36.4596 66.6428 36.462C66.6632 36.4654 66.6827 36.4729 66.7001 36.4842C66.7174 36.4955 66.7323 36.5102 66.7436 36.5275C66.755 36.5448 66.7626 36.5643 66.7661 36.5847C66.7695 36.6051 66.7687 36.626 66.7636 36.6461C66.7593 36.6878 66.7388 36.7262 66.7066 36.753C66.6743 36.7799 66.6329 36.7931 66.5911 36.7899Z" fill="#263238"/>
<path d="M89.6624 194.625L76.6859 100.603L76.3235 94.5344L43.8534 92.9928L42.4959 98.1063C37.9403 114.166 14.9208 191.824 14.9208 191.824L26.166 195.373L59.6427 106.389L75.2249 194.47L89.6624 194.625Z" fill="#263238"/>
<path d="M74.667 93.6255C74.5807 93.6255 74.5002 93.4472 74.4771 93.2114C74.4541 92.9756 74.4771 92.7743 74.5807 92.7685C74.6842 92.7628 74.7475 92.9468 74.7705 93.1826C74.7935 93.4185 74.7475 93.6198 74.667 93.6255Z" fill="#455A64"/>
<path d="M75.0064 97.048C74.9259 97.048 74.8166 96.6799 74.7706 96.2082C74.7246 95.7365 74.7706 95.3454 74.8339 95.3396C74.8971 95.3339 75.0237 95.7078 75.0697 96.1794C75.1157 96.6511 75.087 97.0422 75.0064 97.048Z" fill="#455A64"/>
<path d="M75.363 100.47C75.2767 100.47 75.1732 100.102 75.1214 99.6307C75.0696 99.159 75.1214 98.7679 75.1789 98.7564C75.2364 98.7449 75.3687 99.1245 75.4205 99.5961C75.4723 100.068 75.4435 100.459 75.363 100.47Z" fill="#455A64"/>
<path d="M75.7312 103.887C75.6449 103.887 75.5414 103.519 75.4896 103.047C75.4378 102.576 75.4896 102.185 75.5413 102.179C75.5931 102.173 75.7369 102.547 75.7829 103.019C75.8289 103.49 75.8117 103.876 75.7312 103.887Z" fill="#455A64"/>
<path d="M76.1108 107.304C76.0303 107.304 75.921 106.936 75.8692 106.464C75.8174 105.992 75.8347 105.607 75.921 105.595C76.0073 105.584 76.1108 105.964 76.1626 106.435C76.2143 106.907 76.1913 107.292 76.1108 107.304Z" fill="#455A64"/>
<path d="M76.5075 110.721C76.4212 110.721 76.312 110.352 76.2544 109.881C76.1969 109.409 76.2257 109.024 76.3062 109.012C76.3867 109.001 76.5018 109.375 76.5535 109.846C76.6053 110.318 76.588 110.709 76.5075 110.721Z" fill="#455A64"/>
<path d="M76.9103 114.137C76.8298 114.137 76.7147 113.769 76.6572 113.297C76.5997 112.826 76.6227 112.435 76.7032 112.429C76.7837 112.423 76.8988 112.791 76.9563 113.263C77.0138 113.735 76.9908 114.126 76.9103 114.137Z" fill="#455A64"/>
<path d="M77.3243 117.548C77.2438 117.548 77.1288 117.186 77.0712 116.714C77.0137 116.242 77.031 115.851 77.1173 115.84C77.2035 115.828 77.3128 116.202 77.3703 116.674C77.4279 117.146 77.4049 117.537 77.3243 117.548Z" fill="#455A64"/>
<path d="M77.75 120.959C77.6637 120.959 77.5487 120.597 77.4912 120.125C77.4336 119.653 77.4509 119.262 77.5372 119.256C77.6235 119.251 77.7327 119.619 77.7903 120.091C77.8478 120.562 77.8305 120.948 77.75 120.959Z" fill="#455A64"/>
<path d="M78.1814 124.37C78.0951 124.37 77.9801 124.008 77.9225 123.536C77.865 123.064 77.8823 122.679 77.9628 122.667C78.0433 122.656 78.1584 123.03 78.2216 123.501C78.2849 123.973 78.2849 124.359 78.1814 124.37Z" fill="#455A64"/>
<path d="M78.6186 127.781C78.5381 127.781 78.4231 127.419 78.3598 126.947C78.2965 126.475 78.3138 126.09 78.4001 126.078C78.4863 126.067 78.5956 126.441 78.6589 126.912C78.7222 127.384 78.6992 127.746 78.6186 127.781Z" fill="#455A64"/>
<path d="M79.0614 131.198C78.9809 131.198 78.8658 130.835 78.8025 130.364C78.7393 129.892 78.7565 129.501 78.8428 129.495C78.9291 129.489 79.0384 129.852 79.1016 130.323C79.1649 130.795 79.1477 131.198 79.0614 131.198Z" fill="#455A64"/>
<path d="M79.5159 134.603C79.4296 134.603 79.3146 134.241 79.2513 133.769C79.188 133.297 79.2053 132.906 79.2858 132.895C79.3663 132.883 79.4871 133.257 79.5504 133.729C79.6137 134.2 79.5964 134.591 79.5159 134.603Z" fill="#455A64"/>
<path d="M79.9704 138.008C79.8841 138.008 79.769 137.646 79.7058 137.174C79.6425 136.702 79.6597 136.317 79.7403 136.305C79.8208 136.294 79.9416 136.668 80.0049 137.139C80.0681 137.611 80.0509 137.997 79.9704 138.008Z" fill="#455A64"/>
<path d="M80.4247 141.419C80.3442 141.419 80.2292 141.057 80.1601 140.585C80.0911 140.113 80.1141 139.722 80.1946 139.711C80.2752 139.699 80.396 140.073 80.4592 140.545C80.5225 141.016 80.5053 141.407 80.4247 141.419Z" fill="#455A64"/>
<path d="M80.8848 144.824C80.8043 144.824 80.6835 144.462 80.6202 143.99C80.5569 143.519 80.5742 143.133 80.6547 143.122C80.7352 143.11 80.856 143.484 80.9193 143.95C80.9826 144.416 80.9711 144.813 80.8848 144.824Z" fill="#455A64"/>
<path d="M81.3508 148.229C81.2645 148.229 81.1495 147.873 81.0862 147.401C81.0229 146.929 81.0344 146.538 81.0862 146.527C81.138 146.515 81.2875 146.889 81.3508 147.361C81.4141 147.833 81.4313 148.224 81.3508 148.229Z" fill="#455A64"/>
<path d="M81.8224 151.635C81.7419 151.635 81.6211 151.272 81.5521 150.806C81.483 150.34 81.4945 149.943 81.5521 149.932C81.6096 149.92 81.7534 150.294 81.8167 150.76C81.8799 151.226 81.9029 151.623 81.8224 151.635Z" fill="#455A64"/>
<path d="M82.3114 155.034C82.2309 155.034 82.1101 154.672 82.0411 154.206C81.9721 153.74 81.9778 153.349 82.0411 153.331C82.1044 153.314 82.2482 153.694 82.3172 154.16C82.3862 154.626 82.4035 155.023 82.3114 155.034Z" fill="#455A64"/>
<path d="M82.8348 158.428C82.7542 158.428 82.6277 158.071 82.5587 157.599C82.4896 157.128 82.4954 156.742 82.5587 156.731C82.6219 156.719 82.76 157.088 82.8348 157.559C82.9095 158.031 82.9153 158.416 82.8348 158.428Z" fill="#455A64"/>
<path d="M83.3468 161.827C83.2662 161.827 83.1454 161.47 83.0707 160.999C82.9959 160.527 83.0074 160.142 83.0707 160.13C83.1339 160.119 83.272 160.487 83.3468 160.959C83.4215 161.43 83.4618 161.816 83.3468 161.827Z" fill="#455A64"/>
<path d="M83.8644 165.221C83.7839 165.221 83.6574 164.864 83.5883 164.398C83.5193 163.932 83.5251 163.536 83.5883 163.524C83.6516 163.513 83.7954 163.881 83.8644 164.352C83.9334 164.824 83.945 165.209 83.8644 165.221Z" fill="#455A64"/>
<path d="M84.3821 168.62C84.2958 168.62 84.175 168.258 84.1002 167.792C84.0255 167.326 84.0427 166.935 84.1002 166.918C84.1578 166.9 84.3073 167.28 84.3763 167.746C84.4454 168.212 84.4626 168.586 84.3821 168.62Z" fill="#455A64"/>
<path d="M84.8999 172.037C84.8136 172.037 84.6928 171.68 84.618 171.209C84.5432 170.737 84.5547 170.352 84.618 170.34C84.6813 170.329 84.8193 170.697 84.8941 171.168C84.9689 171.64 84.9804 172.002 84.8999 172.037Z" fill="#455A64"/>
<path d="M85.4117 175.419C85.3312 175.419 85.2104 175.057 85.1356 174.591C85.0608 174.125 85.0723 173.728 85.1356 173.717C85.1989 173.705 85.3427 174.073 85.4174 174.545C85.4922 175.017 85.498 175.402 85.4117 175.419Z" fill="#455A64"/>
<path d="M85.9294 178.819C85.8489 178.819 85.7281 178.456 85.6533 177.99C85.5785 177.524 85.59 177.127 85.6533 177.116C85.7166 177.104 85.8604 177.473 85.9351 177.944C86.0099 178.416 86.0157 178.801 85.9294 178.819Z" fill="#455A64"/>
<path d="M86.4471 182.218C86.3665 182.218 86.24 181.856 86.171 181.39C86.1019 180.924 86.1077 180.527 86.171 180.515C86.2342 180.504 86.378 180.872 86.4471 181.344C86.5161 181.815 86.5276 182.207 86.4471 182.218Z" fill="#455A64"/>
<path d="M86.9647 185.617C86.8784 185.617 86.7577 185.261 86.6829 184.789C86.6081 184.318 86.6254 183.926 86.6829 183.915C86.7404 183.903 86.8899 184.277 86.959 184.743C87.028 185.209 87.0452 185.606 86.9647 185.617Z" fill="#455A64"/>
<path d="M87.4882 189.017C87.4019 189.017 87.2811 188.66 87.2121 188.189C87.1431 187.717 87.1488 187.332 87.2121 187.32C87.2754 187.309 87.4192 187.677 87.4882 188.148C87.5572 188.62 87.5572 189.005 87.4882 189.017Z" fill="#455A64"/>
<path d="M87.9829 192.422C87.9024 192.422 87.7759 192.065 87.7069 191.594C87.6378 191.122 87.6493 190.731 87.7069 190.72C87.7644 190.708 87.9082 191.076 87.9829 191.548C88.0577 192.019 88.0635 192.411 87.9829 192.422Z" fill="#455A64"/>
<path d="M88.351 194.999C88.2705 194.999 88.1785 194.826 88.144 194.591C88.1095 194.355 88.144 194.153 88.2302 194.142C88.3165 194.13 88.4086 194.315 88.4431 194.55C88.4776 194.786 88.4316 194.987 88.351 194.999Z" fill="#455A64"/>
<path d="M25.3665 192.917C25.447 192.917 25.4528 193.147 25.3665 193.371C25.2802 193.596 25.1767 193.762 25.0961 193.739C25.0156 193.716 25.0099 193.509 25.0961 193.285C25.1824 193.061 25.2917 192.894 25.3665 192.917Z" fill="#455A64"/>
<path d="M26.4362 189.586C26.511 189.615 26.4362 190.006 26.3097 190.466C26.1832 190.927 25.9818 191.277 25.9013 191.254C25.8208 191.231 25.9013 190.835 26.0279 190.374C26.1544 189.914 26.3557 189.563 26.4362 189.586Z" fill="#455A64"/>
<path d="M27.5119 186.267C27.5925 186.267 27.5119 186.682 27.3854 187.142C27.2589 187.602 27.0518 187.953 26.9713 187.924C26.8907 187.895 26.9713 187.51 27.1036 187.05C27.2358 186.59 27.4372 186.239 27.5119 186.267Z" fill="#455A64"/>
<path d="M28.6107 182.966C28.6912 182.966 28.6107 183.38 28.4784 183.84C28.3461 184.3 28.139 184.645 28.0642 184.622C27.9894 184.599 28.0642 184.202 28.1965 183.748C28.3288 183.294 28.5359 182.92 28.6107 182.966Z" fill="#455A64"/>
<path d="M29.7264 179.635C29.807 179.635 29.7264 180.05 29.5884 180.51C29.4503 180.97 29.2433 181.315 29.1685 181.286C29.0937 181.257 29.1685 180.872 29.3065 180.412C29.4446 179.952 29.6459 179.607 29.7264 179.635Z" fill="#455A64"/>
<path d="M30.8539 176.322C30.9344 176.351 30.8539 176.742 30.7158 177.202C30.5778 177.662 30.365 178.008 30.2902 177.979C30.2154 177.95 30.2902 177.559 30.4282 177.105C30.5663 176.65 30.7791 176.299 30.8539 176.322Z" fill="#455A64"/>
<path d="M31.9985 173.021C32.079 173.049 31.9985 173.44 31.8547 173.895C31.7109 174.349 31.5038 174.7 31.4233 174.671C31.3428 174.643 31.4233 174.252 31.5728 173.797C31.7224 173.343 31.9237 172.992 31.9985 173.021Z" fill="#455A64"/>
<path d="M33.1605 169.736C33.2352 169.736 33.1605 170.156 33.0109 170.61C32.8614 171.065 32.6543 171.416 32.5795 171.387C32.5047 171.358 32.5795 170.967 32.7291 170.513C32.8786 170.058 33.0799 169.696 33.1605 169.736Z" fill="#455A64"/>
<path d="M34.3281 166.423C34.4087 166.452 34.3281 166.843 34.1786 167.297C34.029 167.752 33.8219 168.103 33.7414 168.074C33.6609 168.045 33.7414 167.654 33.8967 167.2C34.052 166.745 34.2534 166.4 34.3281 166.423Z" fill="#455A64"/>
<path d="M35.513 163.133C35.5935 163.162 35.513 163.553 35.3577 164.007C35.2023 164.462 35.001 164.807 34.9205 164.778C34.84 164.749 34.9205 164.358 35.0758 163.904C35.2311 163.449 35.4382 163.104 35.513 163.133Z" fill="#455A64"/>
<path d="M36.7095 159.848C36.79 159.877 36.7095 160.263 36.5484 160.717C36.3874 161.171 36.186 161.517 36.1113 161.488C36.0365 161.459 36.1113 161.068 36.2666 160.619C36.4219 160.171 36.6347 159.82 36.7095 159.848Z" fill="#455A64"/>
<path d="M37.9174 156.564C37.9922 156.564 37.9174 156.984 37.7563 157.433C37.5953 157.881 37.3882 158.232 37.3134 158.203C37.2386 158.175 37.3134 157.783 37.4745 157.329C37.6355 156.875 37.8369 156.535 37.9174 156.564Z" fill="#455A64"/>
<path d="M39.1311 153.28C39.2116 153.308 39.1311 153.7 38.97 154.154C38.8089 154.608 38.6019 154.948 38.5213 154.919C38.4408 154.89 38.5214 154.505 38.6882 154.05C38.855 153.596 39.0563 153.251 39.1311 153.28Z" fill="#455A64"/>
<path d="M40.3561 150.007C40.4367 150.036 40.3561 150.421 40.1893 150.875C40.0225 151.33 39.8212 151.669 39.7464 151.64C39.6716 151.612 39.7464 151.22 39.9132 150.772C40.08 150.323 40.2814 149.978 40.3561 150.007Z" fill="#455A64"/>
<path d="M41.5929 146.728C41.6677 146.757 41.5929 147.148 41.4261 147.602C41.2593 148.057 41.0522 148.396 40.9717 148.367C40.8912 148.339 40.9717 147.948 41.1442 147.493C41.3168 147.039 41.5124 146.728 41.5929 146.728Z" fill="#455A64"/>
<path d="M42.8354 143.461C42.9102 143.49 42.8354 143.875 42.6629 144.33C42.4903 144.784 42.289 145.123 42.2142 145.095C42.1394 145.066 42.2142 144.675 42.381 144.22C42.5478 143.766 42.7549 143.426 42.8354 143.461Z" fill="#455A64"/>
<path d="M44.0835 140.188C44.1583 140.217 44.0835 140.608 43.911 141.062C43.7384 141.517 43.5371 141.85 43.4565 141.822C43.376 141.793 43.4565 141.402 43.6291 140.953C43.8017 140.504 44.003 140.159 44.0835 140.188Z" fill="#455A64"/>
<path d="M45.3374 136.95C45.4122 136.978 45.3374 137.37 45.1648 137.824C44.9923 138.278 44.7852 138.612 44.7104 138.583C44.6357 138.554 44.7104 138.163 44.883 137.715C45.0555 137.266 45.2626 136.892 45.3374 136.95Z" fill="#455A64"/>
<path d="M46.5972 133.66C46.672 133.688 46.5972 134.079 46.4247 134.528C46.2521 134.977 46.045 135.322 45.9645 135.287C45.884 135.253 45.9645 134.873 46.1428 134.419C46.3211 133.964 46.5224 133.631 46.5972 133.66Z" fill="#455A64"/>
<path d="M47.8626 130.392C47.9374 130.427 47.8626 130.812 47.6843 131.267C47.506 131.721 47.3046 132.055 47.2299 132.026C47.1551 131.997 47.2299 131.606 47.4082 131.157C47.5865 130.709 47.7993 130.364 47.8626 130.392Z" fill="#455A64"/>
<path d="M49.128 127.137C49.2085 127.166 49.128 127.551 48.9496 128.005C48.7713 128.46 48.57 128.793 48.4952 128.765C48.4205 128.736 48.4952 128.345 48.6735 127.896C48.8519 127.447 49.0532 127.102 49.128 127.137Z" fill="#455A64"/>
<path d="M50.3993 123.875C50.4799 123.904 50.3993 124.295 50.221 124.744C50.0427 125.193 49.8414 125.532 49.7666 125.503C49.6918 125.474 49.7666 125.083 49.9449 124.635C50.1232 124.186 50.3245 123.847 50.3993 123.875Z" fill="#455A64"/>
<path d="M51.6761 120.614C51.7508 120.648 51.6761 121.034 51.4977 121.488C51.3194 121.943 51.1124 122.276 51.0376 122.248C50.9628 122.219 51.0376 121.828 51.2159 121.379C51.3942 120.93 51.5955 120.585 51.6761 120.614Z" fill="#455A64"/>
<path d="M52.9762 117.358C53.0567 117.393 52.9762 117.778 52.7978 118.227C52.6195 118.676 52.4182 119.021 52.3377 118.986C52.2572 118.952 52.3377 118.566 52.5217 118.118C52.7058 117.669 52.8726 117.33 52.9762 117.358Z" fill="#455A64"/>
<path d="M54.2817 114.126C54.3565 114.16 54.2817 114.546 54.0804 114.989C53.8791 115.431 53.6778 115.771 53.603 115.736C53.5282 115.702 53.603 115.322 53.8043 114.874C54.0056 114.425 54.207 114.097 54.2817 114.126Z" fill="#455A64"/>
<path d="M55.7831 110.968C55.8579 111.008 55.7429 111.388 55.53 111.819C55.3172 112.251 55.0814 112.567 55.0066 112.532C54.9318 112.498 55.0411 112.118 55.2597 111.687C55.4783 111.255 55.7084 110.928 55.7831 110.968Z" fill="#455A64"/>
<path d="M57.641 108.011C57.7043 108.063 57.5375 108.42 57.2671 108.817C56.9968 109.213 56.6919 109.49 56.6459 109.449C56.5999 109.409 56.7437 109.047 57.0198 108.644C57.2959 108.241 57.5777 107.96 57.641 108.011Z" fill="#455A64"/>
<path d="M59.6428 106.389C59.6428 106.47 59.5105 106.585 59.3149 106.688C59.1193 106.792 58.9295 106.849 58.8777 106.786C58.826 106.723 58.9525 106.545 59.1768 106.424C59.4012 106.303 59.6198 106.309 59.6428 106.389Z" fill="#455A64"/>
<path d="M54.3853 57.1118L33.8103 56.5366H12.8328C11.4861 56.5638 10.2053 57.1241 9.27141 58.0947C8.33752 59.0653 7.82686 60.3667 7.85151 61.7134V75.9784C7.78109 85.8354 10.1315 95.559 14.6964 104.296C18.5733 111.572 24.5726 119.061 33.8103 123.818C42.3061 120.631 48.6448 112.124 52.5216 104.836C57.0866 96.0997 59.437 86.3761 59.3665 76.5191V62.2828C59.3912 60.9367 58.8803 59.6359 57.9463 58.6662C57.0122 57.6966 55.7314 57.1375 54.3853 57.1118Z" fill="#0F1E72"/>
<path d="M33.1028 90.4102L25.4872 84.1117L28.0526 81.0056L32.6427 84.802L40.1491 76.1912L43.1861 78.8314L33.1028 90.4102Z" fill="white"/>
<g opacity="0.3">
<path opacity="0.3" d="M54.3853 57.1118L33.8103 56.5366H12.8328C11.4861 56.5638 10.2053 57.1241 9.27141 58.0947C8.33752 59.0653 7.82686 60.3667 7.85151 61.7134V75.9784C7.78109 85.8354 10.1315 95.559 14.6964 104.296C18.5733 111.572 24.5726 119.061 33.8103 123.818C42.3061 120.631 48.6448 112.124 52.5216 104.836C57.0866 96.0997 59.437 86.3761 59.3665 76.5191V62.2828C59.3912 60.9367 58.8803 59.6359 57.9463 58.6662C57.0122 57.6966 55.7314 57.1375 54.3853 57.1118ZM53.7066 77.5659C53.7621 85.3631 51.9014 93.0546 48.2882 99.9643C45.2223 105.716 40.7128 111.647 33.402 115.414C26.0969 111.647 21.7541 105.722 18.6883 99.9643C15.0834 93.0521 13.2289 85.3614 13.2872 77.5659V66.3092C13.2686 65.2452 13.6721 64.2172 14.4093 63.4497C15.1466 62.6823 16.1576 62.238 17.2215 62.2138H49.7779C50.8428 62.2365 51.8554 62.6802 52.5938 63.4477C53.3323 64.2153 53.7366 65.2443 53.7181 66.3092L53.7066 77.5659Z" fill="black"/>
</g>
</svg>
