<svg xmlns="http://www.w3.org/2000/svg" width="159.943" height="203.615" viewBox="0 0 159.943 203.615">
  <g id="passport" transform="translate(2.115 2.115)">
    <path id="Path_13234" data-name="Path 13234" d="M178.788,0H56.925C47.593,0,40,7.986,40,17.8V181.583c0,9.816,7.593,17.8,16.925,17.8H178.788c9.333,0,16.925-7.986,16.925-17.8V17.8C195.713,7.986,188.121,0,178.788,0Zm10.155,181.583a10.44,10.44,0,0,1-10.155,10.681H56.925A10.44,10.44,0,0,1,46.77,181.583V17.8A10.44,10.44,0,0,1,56.925,7.121H178.788A10.44,10.44,0,0,1,188.943,17.8Z" transform="translate(-40 0)" fill="#67407e" stroke="#fff" stroke-width="4.23"/>
    <path id="Path_13235" data-name="Path 13235" d="M157.813,64C132.551,64,112,86.361,112,113.846s20.551,49.846,45.813,49.846,45.813-22.361,45.813-49.846S183.074,64,157.813,64Zm35.693,67.649H182.331a91.484,91.484,0,0,0,1.6-14.242h13.016A45.383,45.383,0,0,1,193.505,131.649Zm-71.385-35.6h11.175a91.49,91.49,0,0,0-1.6,14.242H118.682A45.383,45.383,0,0,1,122.12,96.044Zm22.6-7.121h-2.738c2.982-8.847,7.469-15.229,12.555-17.177v38.54H138.251a82.893,82.893,0,0,1,1.782-14.242h4.69a3.573,3.573,0,0,0,0-7.121Zm28.916,0H161.085V71.746C166.171,73.694,170.657,80.076,173.64,88.923Zm-54.958,28.484H131.7a91.49,91.49,0,0,0,1.6,14.242H122.12A45.383,45.383,0,0,1,118.682,117.407Zm19.569,0H154.54v14.242H140.033A82.934,82.934,0,0,1,138.251,117.407ZM154.54,138.77v17.177c-5.086-1.948-9.572-8.33-12.555-17.177Zm6.545,17.177V138.77H173.64C170.657,147.617,166.171,154,161.085,155.946Zm0-24.3v-35.6h14.507a82.939,82.939,0,0,1,1.782,14.242H170.9a3.573,3.573,0,0,0,0,7.121h6.472a82.938,82.938,0,0,1-1.782,14.242Zm22.842-21.363a91.484,91.484,0,0,0-1.6-14.242h11.175a45.394,45.394,0,0,1,3.438,14.242Zm5.761-21.363h-9.1a54.109,54.109,0,0,0-6.076-13.738A40.521,40.521,0,0,1,189.688,88.923ZM141.109,75.185a54.1,54.1,0,0,0-6.076,13.738h-9.1A40.519,40.519,0,0,1,141.109,75.185ZM125.937,138.77h9.1a54.094,54.094,0,0,0,6.076,13.738A40.519,40.519,0,0,1,125.937,138.77Zm48.579,13.738a54.081,54.081,0,0,0,6.076-13.738h9.1A40.515,40.515,0,0,1,174.517,152.508Z" transform="translate(-79.956 -35.516)" fill="#67407e" stroke="#fff" stroke-width="4.23"/>
    <path id="Path_13236" data-name="Path 13236" d="M199.465,328h-84.2a3.573,3.573,0,0,0,0,7.121h84.2a3.573,3.573,0,0,0,0-7.121Z" transform="translate(-79.956 -182.021)" fill="#67407e" stroke="#fff" stroke-width="4.23"/>
    <path id="Path_13237" data-name="Path 13237" d="M165.808,360H147.56a3.56,3.56,0,1,0,0,7.121h18.247a3.56,3.56,0,0,0,0-7.121Z" transform="translate(-100.412 -199.78)" fill="#67407e" stroke="#fff" stroke-width="4.23"/>
    <path id="Path_13238" data-name="Path 13238" d="M251.6,360H219.56a3.56,3.56,0,1,0,0,7.121H251.6a3.56,3.56,0,1,0,0-7.121Z" transform="translate(-142.741 -199.78)" fill="#67407e" stroke="#fff" stroke-width="4.23"/>
  </g>
</svg>
