<svg width="285" height="241" viewBox="0 0 285 241" fill="none" xmlns="http://www.w3.org/2000/svg">
<path d="M89.2969 123.608C105.736 107.169 105.736 80.5158 89.2969 64.0767C72.8578 47.6375 46.2047 47.6375 29.7656 64.0766C13.3265 80.5158 13.3265 107.169 29.7656 123.608C46.2047 140.047 72.8578 140.047 89.2969 123.608Z" fill="#0F1E72"/>
<path opacity="0.4" d="M89.2969 123.608C105.736 107.169 105.736 80.5158 89.2969 64.0767C72.8578 47.6375 46.2047 47.6375 29.7656 64.0766C13.3265 80.5158 13.3265 107.169 29.7656 123.608C46.2047 140.047 72.8578 140.047 89.2969 123.608Z" fill="black"/>
<path opacity="0.2" d="M94.38 99.7862C97.6626 80.5417 84.7229 62.2798 65.4784 58.9972C46.2339 55.7146 27.972 68.6543 24.6894 87.8988C21.4068 107.143 34.3465 125.405 53.591 128.688C72.8355 131.97 91.0974 119.031 94.38 99.7862Z" fill="black"/>
<path d="M96.0693 97.2277C97.3812 78.4865 83.2519 62.2302 64.5107 60.9183C45.7695 59.6064 29.5132 73.7357 28.2013 92.477C26.8894 111.218 41.0187 127.474 59.7599 128.786C78.5012 130.098 94.7574 115.969 96.0693 97.2277Z" fill="#0F1E72"/>
<path opacity="0.4" d="M96.0693 97.2277C97.3812 78.4865 83.2519 62.2302 64.5107 60.9183C45.7695 59.6064 29.5132 73.7357 28.2013 92.477C26.8894 111.218 41.0187 127.474 59.7599 128.786C78.5012 130.098 94.7574 115.969 96.0693 97.2277Z" fill="black"/>
<path d="M73.5101 90.6023L75.7253 100.201C75.8193 100.568 75.8361 100.95 75.7745 101.323C75.713 101.696 75.5744 102.053 75.3677 102.37C75.1669 102.694 74.9031 102.974 74.5921 103.194C74.281 103.414 73.929 103.57 73.5568 103.652L65.116 105.603L66.6705 112.357C66.7619 112.722 66.776 113.102 66.7117 113.473C66.6475 113.844 66.5063 114.197 66.2974 114.51C66.0967 114.829 65.8321 115.102 65.5204 115.314C65.2088 115.525 64.8567 115.669 64.4865 115.738C64.1156 115.831 63.7298 115.849 63.352 115.79C62.9742 115.731 62.612 115.597 62.2869 115.396C61.963 115.205 61.6823 114.949 61.4628 114.644C61.2434 114.339 61.0899 113.992 61.0122 113.624L59.4578 106.792L51.0869 108.727C50.7262 108.815 50.3516 108.828 49.9856 108.766C49.6196 108.705 49.2698 108.57 48.9573 108.37C48.6326 108.179 48.3509 107.923 48.1301 107.618C47.9094 107.313 47.7544 106.966 47.6749 106.598C47.5865 106.235 47.5726 105.857 47.6341 105.489C47.6955 105.12 47.831 104.768 48.0324 104.453C48.2246 104.131 48.4812 103.852 48.7861 103.634C49.0911 103.416 49.4378 103.263 49.8045 103.186L69.3908 98.67L68.4737 94.6828L48.9418 99.183C48.5802 99.2753 48.2037 99.2932 47.8349 99.2358C47.4662 99.1783 47.113 99.0467 46.7966 98.8488C46.4722 98.6541 46.192 98.3939 45.9738 98.0847C45.7557 97.7756 45.6044 97.4243 45.5297 97.0534L43.3224 87.4934C43.1525 86.7586 43.2814 85.9863 43.6808 85.3465C44.0801 84.7066 44.7172 84.2516 45.452 84.0814L53.7839 82.1616L52.2295 75.3997C52.1394 75.0421 52.1218 74.6701 52.1779 74.3057C52.2339 73.9412 52.3625 73.5917 52.5559 73.2778C52.7609 72.9378 53.0361 72.6454 53.3632 72.4202C53.6902 72.195 54.0616 72.0422 54.4524 71.9721C54.8118 71.8847 55.1853 71.8713 55.55 71.9328C55.9148 71.9943 56.2633 72.1293 56.5742 72.3296C56.8934 72.5259 57.1695 72.7848 57.3859 73.0907C57.6023 73.3966 57.7545 73.7431 57.8333 74.1094L59.3878 80.8636L67.9374 78.905C68.3072 78.8154 68.6914 78.8016 69.0667 78.8644C69.4421 78.9272 69.8008 79.0652 70.1214 79.2703C70.4457 79.4567 70.7278 79.7084 70.9499 80.0094C71.1719 80.3104 71.3292 80.6542 71.4116 81.0191C71.5754 81.7707 71.4385 82.5567 71.0304 83.2088C70.6223 83.8609 69.9752 84.3275 69.2276 84.5088L49.6413 89.0246L50.4962 92.9884L70.0126 88.4883C70.3824 88.3987 70.7666 88.3849 71.1419 88.4477C71.5173 88.5105 71.876 88.6485 72.1966 88.8536C72.5261 89.0364 72.8134 89.2866 73.0398 89.5879C73.2661 89.8893 73.4264 90.2349 73.5101 90.6023Z" fill="#0F1E72"/>
<g opacity="0.7">
<path opacity="0.7" d="M73.5101 90.6023L75.7253 100.201C75.8193 100.568 75.8361 100.95 75.7745 101.323C75.713 101.696 75.5744 102.053 75.3677 102.37C75.1669 102.694 74.9031 102.974 74.5921 103.194C74.281 103.414 73.929 103.57 73.5568 103.652L65.116 105.603L66.6705 112.357C66.7619 112.722 66.776 113.102 66.7117 113.473C66.6475 113.844 66.5063 114.197 66.2974 114.51C66.0967 114.829 65.8321 115.102 65.5204 115.314C65.2088 115.525 64.8567 115.669 64.4865 115.738C64.1156 115.831 63.7298 115.849 63.352 115.79C62.9742 115.731 62.612 115.597 62.2869 115.396C61.963 115.205 61.6823 114.949 61.4628 114.644C61.2434 114.339 61.0899 113.992 61.0122 113.624L59.4578 106.792L51.0869 108.727C50.7262 108.815 50.3516 108.828 49.9856 108.766C49.6196 108.705 49.2698 108.57 48.9573 108.37C48.6326 108.179 48.3509 107.923 48.1301 107.618C47.9094 107.313 47.7544 106.966 47.6749 106.598C47.5865 106.235 47.5726 105.857 47.6341 105.489C47.6955 105.12 47.831 104.768 48.0324 104.453C48.2246 104.131 48.4812 103.852 48.7861 103.634C49.0911 103.416 49.4378 103.263 49.8045 103.186L69.3908 98.67L68.4737 94.6828L48.9418 99.183C48.5802 99.2753 48.2037 99.2932 47.8349 99.2358C47.4662 99.1783 47.113 99.0467 46.7966 98.8488C46.4722 98.6541 46.192 98.3939 45.9738 98.0847C45.7557 97.7756 45.6044 97.4243 45.5297 97.0534L43.3224 87.4934C43.1525 86.7586 43.2814 85.9863 43.6808 85.3465C44.0801 84.7066 44.7172 84.2516 45.452 84.0814L53.7839 82.1616L52.2295 75.3997C52.1394 75.0421 52.1218 74.6701 52.1779 74.3057C52.2339 73.9412 52.3625 73.5917 52.5559 73.2778C52.7609 72.9378 53.0361 72.6454 53.3632 72.4202C53.6902 72.195 54.0616 72.0422 54.4524 71.9721C54.8118 71.8847 55.1853 71.8713 55.55 71.9328C55.9148 71.9943 56.2633 72.1293 56.5742 72.3296C56.8934 72.5259 57.1695 72.7848 57.3859 73.0907C57.6023 73.3966 57.7545 73.7431 57.8333 74.1094L59.3878 80.8636L67.9374 78.905C68.3072 78.8154 68.6914 78.8016 69.0667 78.8644C69.4421 78.9272 69.8008 79.0652 70.1214 79.2703C70.4457 79.4567 70.7278 79.7084 70.9499 80.0094C71.1719 80.3104 71.3292 80.6542 71.4116 81.0191C71.5754 81.7707 71.4385 82.5567 71.0304 83.2088C70.6223 83.8609 69.9752 84.3275 69.2276 84.5088L49.6413 89.0246L50.4962 92.9884L70.0126 88.4883C70.3824 88.3987 70.7666 88.3849 71.1419 88.4477C71.5173 88.5105 71.876 88.6485 72.1966 88.8536C72.5261 89.0364 72.8134 89.2866 73.0398 89.5879C73.2661 89.8893 73.4264 90.2349 73.5101 90.6023Z" fill="white"/>
</g>
<path d="M149.359 60.3663C159.832 47.973 158.276 29.4363 145.882 18.9632C133.489 8.4901 114.952 10.0467 104.479 22.4399C94.0063 34.8331 95.5629 53.3699 107.956 63.843C120.349 74.316 138.886 72.7595 149.359 60.3663Z" fill="#0F1E72"/>
<path opacity="0.4" d="M149.359 60.3663C159.832 47.973 158.276 29.4363 145.882 18.9632C133.489 8.4901 114.952 10.0467 104.479 22.4399C94.0063 34.8331 95.5629 53.3699 107.956 63.843C120.349 74.316 138.886 72.7595 149.359 60.3663Z" fill="black"/>
<path opacity="0.2" d="M145.935 57.0992C154.616 46.5983 153.14 31.0483 142.639 22.3674C132.138 13.6864 116.588 15.1618 107.908 25.6627C99.2266 36.1637 100.702 51.7136 111.203 60.3946C121.704 69.0755 137.254 67.6001 145.935 57.0992Z" fill="black"/>
<path d="M146.679 57.3569C154.622 46.9651 152.636 32.1024 142.244 24.1601C131.852 16.2178 116.99 18.2036 109.047 28.5954C101.105 38.9872 103.091 53.85 113.483 61.7922C123.874 69.7345 138.737 67.7488 146.679 57.3569Z" fill="#0F1E72"/>
<path opacity="0.4" d="M146.679 57.3569C154.622 46.9651 152.636 32.1024 142.244 24.1601C131.852 16.2178 116.99 18.2036 109.047 28.5954C101.105 38.9872 103.091 53.85 113.483 61.7922C123.874 69.7345 138.737 67.7488 146.679 57.3569Z" fill="black"/>
<path d="M136.629 43.8129L134.958 50.4816C134.898 50.7351 134.785 50.9733 134.627 51.1807C134.469 51.3882 134.269 51.5603 134.041 51.6863C133.811 51.8265 133.554 51.9188 133.287 51.9575C133.02 51.9962 132.748 51.9806 132.487 51.9117L126.665 50.4427L125.484 55.1061C125.424 55.3609 125.311 55.6003 125.153 55.8091C124.995 56.0179 124.795 56.1914 124.567 56.3186C124.346 56.4554 124.1 56.546 123.844 56.5847C123.587 56.6235 123.325 56.6096 123.074 56.544C122.816 56.4832 122.572 56.3715 122.357 56.2153C122.142 56.0592 121.961 55.8618 121.823 55.6346C121.683 55.4127 121.59 55.1644 121.549 54.905C121.509 54.6456 121.523 54.3806 121.59 54.1268L122.779 49.3857L116.95 47.9633C116.697 47.9029 116.459 47.7918 116.251 47.6368C116.043 47.4819 115.868 47.2862 115.737 47.0617C115.597 46.8414 115.503 46.5944 115.463 46.3362C115.423 46.0779 115.437 45.8142 115.504 45.5617C115.562 45.3061 115.672 45.0652 115.827 44.854C115.982 44.6427 116.179 44.4656 116.406 44.3336C116.629 44.1972 116.878 44.1076 117.137 44.0702C117.396 44.0328 117.661 44.0484 117.914 44.116L131.515 47.5281L132.215 44.7611L118.652 41.3568C118.398 41.3 118.158 41.1912 117.948 41.0374C117.738 40.8836 117.562 40.688 117.432 40.463C117.291 40.2413 117.199 39.9923 117.161 39.7324C117.124 39.4725 117.142 39.2076 117.214 38.9552L118.877 32.3098C118.94 32.0565 119.052 31.8182 119.207 31.6085C119.363 31.3989 119.558 31.2221 119.782 31.0883C120.006 30.9546 120.254 30.8667 120.513 30.8295C120.771 30.7924 121.034 30.8068 121.287 30.8719L127.054 32.3176L128.235 27.6542C128.292 27.391 128.403 27.1424 128.561 26.9242C128.719 26.706 128.921 26.5229 129.153 26.3863C129.385 26.2498 129.643 26.1628 129.91 26.1309C130.178 26.099 130.449 26.1227 130.707 26.2008C130.957 26.2588 131.193 26.3682 131.399 26.5221C131.605 26.6759 131.777 26.8709 131.904 27.0946C132.041 27.3162 132.132 27.5635 132.171 27.8214C132.21 28.0793 132.195 28.3424 132.129 28.5947L130.948 33.2581L136.855 34.7426C137.114 34.8045 137.358 34.9184 137.571 35.0774C137.785 35.2363 137.964 35.4371 138.098 35.6675C138.24 35.8858 138.335 36.131 138.378 36.3877C138.421 36.6445 138.41 36.9073 138.347 37.1598C138.282 37.4187 138.166 37.6621 138.006 37.8756C137.846 38.0892 137.645 38.2686 137.414 38.4033C137.185 38.5462 136.928 38.6405 136.661 38.6806C136.394 38.7207 136.121 38.7057 135.86 38.6365L122.25 35.2245L121.567 37.9759L135.121 41.3724C135.381 41.4343 135.624 41.5482 135.838 41.7072C136.052 41.8661 136.231 42.0669 136.365 42.2973C136.515 42.5164 136.616 42.765 136.661 43.0264C136.707 43.2879 136.696 43.5561 136.629 43.8129Z" fill="#0F1E72"/>
<g opacity="0.7">
<path opacity="0.7" d="M136.629 43.8129L134.958 50.4816C134.898 50.7351 134.785 50.9733 134.627 51.1807C134.469 51.3882 134.269 51.5603 134.041 51.6863C133.811 51.8265 133.554 51.9188 133.287 51.9575C133.02 51.9962 132.748 51.9806 132.487 51.9117L126.665 50.4427L125.484 55.1061C125.424 55.3609 125.311 55.6003 125.153 55.8091C124.995 56.0179 124.795 56.1914 124.567 56.3186C124.346 56.4554 124.1 56.546 123.844 56.5847C123.587 56.6235 123.325 56.6096 123.074 56.544C122.816 56.4832 122.572 56.3715 122.357 56.2153C122.142 56.0592 121.961 55.8618 121.823 55.6346C121.683 55.4127 121.59 55.1644 121.549 54.905C121.509 54.6456 121.523 54.3806 121.59 54.1268L122.779 49.3857L116.95 47.9633C116.697 47.9029 116.459 47.7918 116.251 47.6368C116.043 47.4819 115.868 47.2862 115.737 47.0617C115.597 46.8414 115.503 46.5944 115.463 46.3362C115.423 46.0779 115.437 45.8142 115.504 45.5617C115.562 45.3061 115.672 45.0652 115.827 44.854C115.982 44.6427 116.179 44.4656 116.406 44.3336C116.629 44.1972 116.878 44.1076 117.137 44.0702C117.396 44.0328 117.661 44.0484 117.914 44.116L131.515 47.5281L132.215 44.7611L118.652 41.3568C118.398 41.3 118.158 41.1912 117.948 41.0374C117.738 40.8836 117.562 40.688 117.432 40.463C117.291 40.2413 117.199 39.9923 117.161 39.7324C117.124 39.4725 117.142 39.2076 117.214 38.9552L118.877 32.3098C118.94 32.0565 119.052 31.8182 119.207 31.6085C119.363 31.3989 119.558 31.2221 119.782 31.0883C120.006 30.9546 120.254 30.8667 120.513 30.8295C120.771 30.7924 121.034 30.8068 121.287 30.8719L127.054 32.3176L128.235 27.6542C128.292 27.391 128.403 27.1424 128.561 26.9242C128.719 26.706 128.921 26.5229 129.153 26.3863C129.385 26.2498 129.643 26.1628 129.91 26.1309C130.178 26.099 130.449 26.1227 130.707 26.2008C130.957 26.2588 131.193 26.3682 131.399 26.5221C131.605 26.6759 131.777 26.8709 131.904 27.0946C132.041 27.3162 132.132 27.5635 132.171 27.8214C132.21 28.0793 132.195 28.3424 132.129 28.5947L130.948 33.2581L136.855 34.7426C137.114 34.8045 137.358 34.9184 137.571 35.0774C137.785 35.2363 137.964 35.4371 138.098 35.6675C138.24 35.8858 138.335 36.131 138.378 36.3877C138.421 36.6445 138.41 36.9073 138.347 37.1598C138.282 37.4187 138.166 37.6621 138.006 37.8756C137.846 38.0892 137.645 38.2686 137.414 38.4033C137.185 38.5462 136.928 38.6405 136.661 38.6806C136.394 38.7207 136.121 38.7057 135.86 38.6365L122.25 35.2245L121.567 37.9759L135.121 41.3724C135.381 41.4343 135.624 41.5482 135.838 41.7072C136.052 41.8661 136.231 42.0669 136.365 42.2973C136.515 42.5164 136.616 42.765 136.661 43.0264C136.707 43.2879 136.696 43.5561 136.629 43.8129Z" fill="white"/>
</g>
<path d="M55.3617 218.931H54.5845V227.706H55.3617V218.931Z" fill="#0F1E72"/>
<path opacity="0.1" d="M55.3617 218.931H54.5845V227.706H55.3617V218.931Z" fill="black"/>
<path d="M284.241 149.416H283.464V161.439H284.241V149.416Z" fill="#0F1E72"/>
<path d="M284.241 167.743H283.464V174.264H284.241V167.743Z" fill="#0F1E72"/>
<path opacity="0.1" d="M284.241 149.416H283.464V161.439H284.241V149.416Z" fill="black"/>
<path opacity="0.1" d="M284.241 167.743H283.464V174.264H284.241V167.743Z" fill="black"/>
<path d="M269.832 97.271H69.0022C62.5419 97.271 57.3048 102.508 57.3048 108.968V226.525C57.3048 232.985 62.5419 238.222 69.0022 238.222H269.832C276.292 238.222 281.529 232.985 281.529 226.525V108.968C281.529 102.508 276.292 97.271 269.832 97.271Z" fill="#0F1E72"/>
<path opacity="0.2" d="M269.832 97.271H69.0022C62.5419 97.271 57.3048 102.508 57.3048 108.968V226.525C57.3048 232.985 62.5419 238.222 69.0022 238.222H269.832C276.292 238.222 281.529 232.985 281.529 226.525V108.968C281.529 102.508 276.292 97.271 269.832 97.271Z" fill="black"/>
<path opacity="0.2" d="M245.232 146.353C253.246 146.353 259.743 139.857 259.743 131.842C259.743 123.828 253.246 117.331 245.232 117.331C237.218 117.331 230.721 123.828 230.721 131.842C230.721 139.857 237.218 146.353 245.232 146.353Z" fill="black"/>
<path d="M226.501 146.353C234.515 146.353 241.012 139.857 241.012 131.842C241.012 123.828 234.515 117.331 226.501 117.331C218.487 117.331 211.99 123.828 211.99 131.842C211.99 139.857 218.487 146.353 226.501 146.353Z" fill="#0F1E72"/>
<path d="M118.691 146.353H84.1271C81.3455 146.353 79.0906 148.608 79.0906 151.39V173.984C79.0906 176.766 81.3455 179.02 84.1271 179.02H118.691C121.472 179.02 123.727 176.766 123.727 173.984V151.39C123.727 148.608 121.472 146.353 118.691 146.353Z" fill="#0F1E72"/>
<path opacity="0.3" d="M118.691 146.353H84.1271C81.3455 146.353 79.0906 148.608 79.0906 151.39V173.984C79.0906 176.766 81.3455 179.02 84.1271 179.02H118.691C121.472 179.02 123.727 176.766 123.727 173.984V151.39C123.727 148.608 121.472 146.353 118.691 146.353Z" fill="white"/>
<path d="M142.606 113.772H82.6581C80.6878 113.772 79.0906 115.367 79.0906 117.335C79.0906 119.303 80.6878 120.899 82.6581 120.899H142.606C144.576 120.899 146.174 119.303 146.174 117.335C146.174 115.367 144.576 113.772 142.606 113.772Z" fill="#0F1E72"/>
<path opacity="0.3" d="M142.606 113.772H82.6581C80.6878 113.772 79.0906 115.367 79.0906 117.335C79.0906 119.303 80.6878 120.899 82.6581 120.899H142.606C144.576 120.899 146.174 119.303 146.174 117.335C146.174 115.367 144.576 113.772 142.606 113.772Z" fill="white"/>
<path d="M111.284 195.234H84.3214C81.4325 195.234 79.0906 197.575 79.0906 200.464V205.353C79.0906 208.242 81.4325 210.584 84.3214 210.584H111.284C114.172 210.584 116.514 208.242 116.514 205.353V200.464C116.514 197.575 114.172 195.234 111.284 195.234Z" fill="#0F1E72"/>
<path opacity="0.3" d="M111.284 195.234H84.3214C81.4325 195.234 79.0906 197.575 79.0906 200.464V205.353C79.0906 208.242 81.4325 210.584 84.3214 210.584H111.284C114.172 210.584 116.514 208.242 116.514 205.353V200.464C116.514 197.575 114.172 195.234 111.284 195.234Z" fill="white"/>
<path d="M159.021 195.234H132.059C129.17 195.234 126.828 197.575 126.828 200.464V205.353C126.828 208.242 129.17 210.584 132.059 210.584H159.021C161.91 210.584 164.252 208.242 164.252 205.353V200.464C164.252 197.575 161.91 195.234 159.021 195.234Z" fill="#0F1E72"/>
<path opacity="0.3" d="M159.021 195.234H132.059C129.17 195.234 126.828 197.575 126.828 200.464V205.353C126.828 208.242 129.17 210.584 132.059 210.584H159.021C161.91 210.584 164.252 208.242 164.252 205.353V200.464C164.252 197.575 161.91 195.234 159.021 195.234Z" fill="white"/>
<path d="M206.767 195.234H179.804C176.916 195.234 174.574 197.575 174.574 200.464V205.353C174.574 208.242 176.916 210.584 179.804 210.584H206.767C209.656 210.584 211.998 208.242 211.998 205.353V200.464C211.998 197.575 209.656 195.234 206.767 195.234Z" fill="#0F1E72"/>
<path opacity="0.3" d="M206.767 195.234H179.804C176.916 195.234 174.574 197.575 174.574 200.464V205.353C174.574 208.242 176.916 210.584 179.804 210.584H206.767C209.656 210.584 211.998 208.242 211.998 205.353V200.464C211.998 197.575 209.656 195.234 206.767 195.234Z" fill="white"/>
<path d="M254.505 195.234H227.542C224.653 195.234 222.312 197.575 222.312 200.464V205.353C222.312 208.242 224.653 210.584 227.542 210.584H254.505C257.393 210.584 259.735 208.242 259.735 205.353V200.464C259.735 197.575 257.393 195.234 254.505 195.234Z" fill="#0F1E72"/>
<path opacity="0.3" d="M254.505 195.234H227.542C224.653 195.234 222.312 197.575 222.312 200.464V205.353C222.312 208.242 224.653 210.584 227.542 210.584H254.505C257.393 210.584 259.735 208.242 259.735 205.353V200.464C259.735 197.575 257.393 195.234 254.505 195.234Z" fill="white"/>
<path d="M202.834 46.269C200.992 51.4687 198.948 56.4974 196.78 61.5261C194.585 66.6398 192.067 71.6086 189.24 76.4023C188.86 77.0163 188.463 77.6303 188.051 78.2444L187.748 78.7029L187.336 79.2703C187.056 79.6278 186.792 79.9387 186.559 80.2418C185.58 81.3336 184.542 82.3714 183.45 83.3508C181.375 85.2705 179.261 87.0115 177.123 88.7292C172.833 92.1335 168.449 95.3202 163.91 98.3436L161.198 94.9782L172.623 83.7161C174.512 81.8429 176.385 79.9543 178.134 78.0656C178.996 77.1251 179.836 76.1614 180.528 75.2753C180.699 75.0577 180.846 74.8401 180.978 74.6535L181.142 74.3893L181.367 73.9851C181.67 73.4488 181.989 72.9281 182.284 72.3762C184.662 67.9071 186.761 63.0494 188.782 58.1218C190.803 53.1941 192.746 48.2276 194.611 43.2999L202.834 46.269Z" fill="#E4897B"/>
<path d="M205.018 42.5227C206.782 47.6835 196.414 62.8629 196.414 62.8629L186.512 57.3523C188.199 52.616 190.193 47.9947 192.481 43.5175C195.948 36.9577 203.083 36.8566 205.018 42.5227Z" fill="#0F1E72"/>
<path opacity="0.7" d="M205.018 42.5227C206.782 47.6835 196.414 62.8629 196.414 62.8629L186.512 57.3523C188.199 52.616 190.193 47.9947 192.481 43.5175C195.948 36.9577 203.083 36.8566 205.018 42.5227Z" fill="white"/>
<path opacity="0.31" d="M205.166 43.1678C202.943 42.103 200.386 42.9968 197.689 47.2561C194.992 51.5153 192.699 58.627 192.45 60.6556L196.422 62.8551C196.422 62.8551 205.99 48.8338 205.166 43.1678Z" fill="#0F1E72"/>
<path d="M198.311 38.5743C198.311 38.5743 190.911 55.9766 196.243 88.3795H227.061C227.441 83.6461 225.265 60.5701 230.605 38.279C227.212 37.6186 223.78 37.1824 220.33 36.9732C215.968 36.7244 211.595 36.7244 207.233 36.9732C204.223 37.279 201.24 37.8142 198.311 38.5743Z" fill="#0F1E72"/>
<path opacity="0.7" d="M198.311 38.5743C198.311 38.5743 190.911 55.9766 196.243 88.3795H227.061C227.441 83.6461 225.265 60.5701 230.605 38.279C227.212 37.6186 223.78 37.1824 220.33 36.9732C215.968 36.7244 211.595 36.7244 207.233 36.9732C204.223 37.279 201.24 37.8142 198.311 38.5743Z" fill="white"/>
<path d="M237.973 226.44L233.411 230.528L224.713 221.473L229.283 217.385L237.973 226.44Z" fill="#E4897B"/>
<path d="M222.327 234.942H216.568L215.822 221.605H221.581L222.327 234.942Z" fill="#E4897B"/>
<path d="M224.721 221.473L229.198 226.144L233.768 222.048L229.291 217.385L224.721 221.473Z" fill="#CE6F64"/>
<path d="M221.581 221.605H215.822L216.21 228.484H221.97L221.581 221.605Z" fill="#CE6F64"/>
<path d="M196.243 88.3795C196.243 88.3795 190.173 130.397 188.106 153.263C186.442 171.613 226.12 226.323 226.12 226.323L233.791 219.102C233.791 219.102 204.816 170.051 207.047 149.625C209.207 129.845 216.529 88.3561 216.529 88.3561L196.243 88.3795Z" fill="#0F1E72"/>
<path opacity="0.7" d="M196.243 88.3795C196.243 88.3795 190.173 130.397 188.106 153.263C186.442 171.613 226.12 226.323 226.12 226.323L233.791 219.102C233.791 219.102 204.816 170.051 207.047 149.625C209.207 129.845 216.529 88.3561 216.529 88.3561L196.243 88.3795Z" fill="black"/>
<path opacity="0.2" d="M207.047 149.649C208.158 139.459 210.645 123.495 212.783 110.422C211.664 108.23 208.524 103.792 208.524 103.792C205.71 113.515 199.593 150.17 208.321 199.672C217.415 214.33 226.12 226.346 226.12 226.346L227.309 207.444C218.907 191.635 205.5 163.771 207.047 149.649Z" fill="black"/>
<path d="M207.202 88.3795C207.202 88.3795 206.658 132.41 207.591 148.91C208.609 166.973 213.739 226.828 213.739 226.828H224.294C224.294 226.828 223.975 168.435 224.597 150.558C225.288 131.127 227.076 88.3795 227.076 88.3795H207.202Z" fill="#0F1E72"/>
<path opacity="0.7" d="M207.202 88.3795C207.202 88.3795 206.658 132.41 207.591 148.91C208.609 166.973 213.739 226.828 213.739 226.828H224.294C224.294 226.828 223.975 168.435 224.597 150.558C225.288 131.127 227.076 88.3795 227.076 88.3795H207.202Z" fill="black"/>
<path d="M216.265 234.282H222.739C222.847 234.278 222.952 234.316 223.032 234.389C223.112 234.461 223.161 234.562 223.167 234.67L223.485 239.792C223.486 239.926 223.461 240.059 223.411 240.183C223.361 240.306 223.286 240.419 223.193 240.515C223.099 240.61 222.987 240.686 222.864 240.738C222.741 240.79 222.609 240.817 222.475 240.818C220.221 240.779 219.141 240.647 216.296 240.647C214.547 240.647 207.101 240.834 204.684 240.834C202.267 240.834 202.352 238.44 203.355 238.222C207.948 237.251 213.646 235.891 215.278 234.632C215.559 234.409 215.906 234.286 216.265 234.282Z" fill="#263238"/>
<path d="M232.151 228.888L237.701 225.149C237.791 225.077 237.904 225.038 238.019 225.038C238.135 225.038 238.247 225.077 238.338 225.149L242.582 229.432C242.665 229.526 242.726 229.637 242.761 229.757C242.796 229.878 242.804 230.004 242.785 230.128C242.765 230.252 242.719 230.37 242.649 230.474C242.579 230.578 242.487 230.665 242.38 230.73C238.836 233.458 236.278 235.518 234.258 237.787C231.926 240.437 230.667 240.818 225.226 240.818C222.708 240.818 221.286 238.696 222.312 238.37C231.374 235.502 228.949 234.251 231.156 230.046C231.387 229.583 231.729 229.185 232.151 228.888Z" fill="#263238"/>
<path d="M162.503 94.2554L156.495 94.4652L157.755 99.1753C157.755 99.1753 164.035 99.7349 164.594 97.8384L162.503 94.2554Z" fill="#E4897B"/>
<path d="M150.013 97.271L154.226 99.7271L157.755 99.1752L156.495 94.4652L150.013 97.271Z" fill="#E4897B"/>
<path opacity="0.31" d="M223.718 43.7818C223.081 47.4503 223.928 56.2175 227.076 66.3682C227.322 57.6715 228.334 49.0133 230.099 40.4941V40.4475C228.079 40.2454 224.332 40.3387 223.718 43.7818Z" fill="#0F1E72"/>
<path d="M219.545 22.2213C218.573 26.4339 217.477 34.1597 220.322 36.9888C220.322 36.9888 219.094 40.4786 211.259 40.4786C202.648 40.4786 207.226 36.9888 207.226 36.9888C211.967 35.8696 211.967 32.3798 211.259 29.1076L219.545 22.2213Z" fill="#E4897B"/>
<path d="M211.042 40.463L208.71 42.9424L209.852 45.3363L211.71 45.4218L213.296 43.1367L211.042 40.463Z" fill="#0F1E72"/>
<path d="M216.171 25.0272L211.267 29.0843C211.444 29.8506 211.553 30.6308 211.594 31.416C213.397 31.1595 215.93 29.1854 216.187 27.3044C216.324 26.5511 216.319 25.7786 216.171 25.0272Z" fill="#CE6F64"/>
<path d="M209.324 7.93579C206.378 8.93842 204.023 16.7496 207.459 18.8171C210.894 20.8845 214.92 6.03157 209.324 7.93579Z" fill="#263238"/>
<path d="M221.387 17.8067C219.63 23.2473 218.884 26.535 215.34 28.7657C214.197 29.5005 212.874 29.9088 211.515 29.9462C210.157 29.9837 208.814 29.649 207.632 28.9783C206.45 28.3076 205.473 27.3265 204.809 26.141C204.144 24.9555 203.816 23.6109 203.86 22.2524C203.93 17.0217 206.79 8.96952 212.814 7.95912C214.112 7.70853 215.453 7.80339 216.703 8.2342C217.953 8.66502 219.068 9.41667 219.936 10.4139C220.805 11.4111 221.395 12.6189 221.65 13.9164C221.905 15.2138 221.814 16.5554 221.387 17.8067Z" fill="#E4897B"/>
<path d="M225.739 8.71303C223.983 12.9567 228.071 9.41254 227.014 14.449C226.33 17.7289 220.407 25.5868 218.122 24.8717C215.837 24.1567 215.861 18.5839 218.775 14.6433C220.454 12.3816 216.824 9.8167 208.671 10.0887C200.518 10.3608 195.59 5.77509 206.425 2.40967C206.425 2.40967 202.43 4.74137 204.801 5.5186C208.158 6.76995 229.26 0.210098 225.739 8.71303Z" fill="#263238"/>
<path d="M224.185 10.6561C224.099 10.6561 226.011 10.182 227.029 6.76993C227.029 6.82433 226.695 11.853 224.185 10.6561Z" fill="#263238"/>
<path d="M208.928 3.16357C203.914 4.71804 205.99 6.46682 208.065 6.90207L212.822 5.0367C205.593 5.9927 208.928 3.16357 208.928 3.16357Z" fill="#263238"/>
<path d="M222.35 24.452C221.308 25.465 219.918 26.0407 218.464 26.0609C216.545 26.0609 216.133 24.2422 217.166 22.7188C218.083 21.3509 220.182 19.7031 221.876 20.4415C223.571 21.1799 223.625 23.2007 222.35 24.452Z" fill="#E4897B"/>
<path d="M212.534 17.5035C212.417 17.9543 212.083 18.2808 211.757 18.2031C211.43 18.1253 211.314 17.7134 211.43 17.2626C211.547 16.8118 211.881 16.4854 212.208 16.5709C212.534 16.6564 212.651 17.0528 212.534 17.5035Z" fill="#263238"/>
<path d="M207.404 16.3766C207.288 16.8273 206.953 17.1538 206.627 17.0761C206.301 16.9983 206.184 16.5942 206.301 16.1434C206.417 15.6926 206.744 15.3662 207.078 15.4439C207.412 15.5216 207.498 15.9258 207.404 16.3766Z" fill="#263238"/>
<path d="M208.974 16.9595C208.091 18.2178 207.045 19.3546 205.865 20.3404C206.125 20.6289 206.445 20.857 206.802 21.0087C207.159 21.1604 207.545 21.2321 207.933 21.2187L208.974 16.9595Z" fill="#DE5753"/>
<path d="M209.829 22.8587C209.507 22.8583 209.187 22.8218 208.873 22.7499C208.839 22.7407 208.809 22.7187 208.79 22.6883C208.771 22.658 208.765 22.6216 208.772 22.5866C208.781 22.5522 208.803 22.5225 208.834 22.5037C208.864 22.4849 208.9 22.4784 208.935 22.4856C209.508 22.6131 210.101 22.6093 210.672 22.4747C211.243 22.3401 211.776 22.0781 212.231 21.7084C212.257 21.6832 212.292 21.6691 212.328 21.6691C212.364 21.6691 212.399 21.6832 212.425 21.7084C212.45 21.7344 212.464 21.7693 212.464 21.8055C212.464 21.8418 212.45 21.8766 212.425 21.9027C211.703 22.524 210.781 22.8635 209.829 22.8587Z" fill="#263238"/>
<path d="M214.57 16.2056C214.517 16.2065 214.465 16.1914 214.421 16.1623C214.377 16.1332 214.342 16.0914 214.322 16.0423C214.194 15.7305 213.993 15.454 213.736 15.2362C213.479 15.0184 213.173 14.8657 212.845 14.791C212.809 14.7862 212.775 14.7744 212.743 14.7561C212.712 14.7378 212.685 14.7135 212.663 14.6845C212.641 14.6556 212.626 14.6226 212.617 14.5875C212.608 14.5524 212.606 14.5159 212.612 14.4801C212.623 14.4085 212.662 14.3442 212.72 14.3007C212.778 14.2572 212.851 14.238 212.923 14.2469C213.341 14.3323 213.733 14.5184 214.063 14.7893C214.394 15.0602 214.653 15.4076 214.819 15.8014C214.834 15.8339 214.843 15.8692 214.844 15.9051C214.845 15.941 214.839 15.9768 214.826 16.0103C214.813 16.0437 214.793 16.0742 214.768 16.0998C214.743 16.1253 214.713 16.1454 214.679 16.1589C214.647 16.1823 214.61 16.1982 214.57 16.2056Z" fill="#263238"/>
<path d="M205.671 14.1459C205.609 14.1454 205.548 14.1234 205.5 14.0837C205.444 14.0368 205.409 13.9699 205.402 13.8973C205.394 13.8247 205.416 13.7521 205.461 13.6951C205.735 13.3544 206.084 13.0812 206.48 12.8965C206.876 12.7119 207.309 12.6208 207.746 12.6303C207.782 12.6332 207.817 12.6432 207.849 12.6597C207.881 12.6761 207.909 12.6987 207.932 12.7262C207.955 12.7536 207.973 12.7854 207.984 12.8196C207.994 12.8538 207.998 12.8899 207.995 12.9256C207.993 12.9618 207.984 12.9972 207.968 13.0296C207.952 13.062 207.929 13.0908 207.901 13.1141C207.874 13.1374 207.841 13.1548 207.807 13.1652C207.772 13.1755 207.736 13.1786 207.7 13.1743C207.35 13.1707 207.004 13.2472 206.689 13.3981C206.374 13.5491 206.097 13.7703 205.881 14.0448C205.856 14.0766 205.824 14.1022 205.788 14.1197C205.751 14.1372 205.711 14.1462 205.671 14.1459Z" fill="#263238"/>
<path d="M232.097 42.2506C232.703 43.1911 233.208 44.0227 233.721 44.9243C234.234 45.8259 234.724 46.6964 235.206 47.598C236.154 49.3934 237.048 51.2277 237.864 53.1008C239.576 56.9355 240.861 60.9468 241.696 65.0625L241.773 65.4588L241.812 65.6531L241.867 65.9796C241.933 66.4143 241.967 66.8534 241.968 67.2931C241.96 68.0295 241.882 68.7634 241.735 69.4849C241.471 70.6749 241.091 71.8361 240.6 72.9514C239.727 74.9056 238.687 76.7805 237.491 78.5552C235.23 81.9299 232.659 85.0862 229.812 87.9831L226.431 85.2705C228.312 81.9906 230.185 78.5863 231.755 75.252C232.527 73.6573 233.186 72.0108 233.729 70.3243C233.951 69.6209 234.102 68.8971 234.18 68.1636C234.207 67.9234 234.207 67.681 234.18 67.4408C234.18 67.3708 234.18 67.3087 234.133 67.3009C234.087 67.2931 234.133 67.3009 234.133 67.262L234.087 67.1066L233.993 66.7879C233.502 65.0735 232.918 63.3871 232.245 61.7359C231.561 60.0493 230.799 58.3705 229.998 56.6994C229.198 55.0284 228.335 53.3806 227.449 51.7329C227.014 50.909 226.555 50.0929 226.097 49.2846L224.729 46.9529L232.097 42.2506Z" fill="#E4897B"/>
<path d="M214.228 235.277C213.84 235.316 213.452 235.207 213.14 234.973C213.052 234.876 212.991 234.758 212.961 234.63C212.931 234.502 212.934 234.369 212.969 234.243C212.986 234.158 213.025 234.079 213.08 234.012C213.136 233.946 213.207 233.894 213.288 233.862C213.995 233.582 215.62 234.701 215.806 234.826C215.829 234.84 215.847 234.861 215.857 234.887C215.867 234.912 215.868 234.94 215.861 234.966C215.857 234.992 215.845 235.016 215.827 235.036C215.809 235.055 215.785 235.069 215.76 235.075C215.258 235.195 214.744 235.263 214.228 235.277ZM213.552 234.087C213.498 234.079 213.443 234.079 213.389 234.087C213.349 234.102 213.315 234.127 213.289 234.16C213.262 234.193 213.246 234.232 213.241 234.274C213.213 234.355 213.207 234.443 213.223 234.527C213.24 234.612 213.278 234.691 213.335 234.756C213.599 235.02 214.353 235.051 215.386 234.849C214.837 234.468 214.211 234.211 213.552 234.095V234.087Z" fill="white"/>
<path d="M215.728 235.082H215.658C215.083 234.74 214.228 233.528 214.36 232.906C214.383 232.792 214.444 232.689 214.533 232.614C214.622 232.54 214.734 232.497 214.85 232.494C214.953 232.481 215.057 232.491 215.155 232.523C215.253 232.555 215.343 232.609 215.418 232.681C216 233.248 215.868 234.904 215.868 234.973C215.865 234.997 215.857 235.019 215.843 235.038C215.83 235.057 215.812 235.072 215.791 235.082H215.728ZM214.951 232.751H214.889C214.695 232.751 214.648 232.867 214.633 232.945C214.547 233.357 215.114 234.266 215.612 234.686C215.683 234.055 215.553 233.419 215.239 232.867C215.2 232.829 215.153 232.799 215.103 232.779C215.052 232.759 214.998 232.75 214.943 232.751H214.951Z" fill="white"/>
<path d="M228.421 232.012C228.277 232.017 228.134 231.99 228.001 231.935C227.899 231.893 227.808 231.828 227.736 231.744C227.664 231.66 227.614 231.56 227.589 231.453C227.569 231.387 227.567 231.318 227.582 231.251C227.597 231.184 227.629 231.123 227.675 231.072C228.195 230.442 230.923 230.629 231.234 230.652C231.263 230.653 231.291 230.663 231.313 230.682C231.336 230.7 231.352 230.725 231.359 230.753C231.365 230.781 231.362 230.81 231.351 230.837C231.34 230.863 231.321 230.886 231.296 230.901C230.428 231.473 229.448 231.852 228.421 232.012ZM230.068 230.878C229.112 230.878 228.11 230.971 227.884 231.243C227.871 231.264 227.864 231.288 227.864 231.313C227.864 231.338 227.871 231.362 227.884 231.383C227.897 231.45 227.927 231.513 227.97 231.566C228.014 231.619 228.07 231.66 228.133 231.686C228.568 231.865 229.548 231.569 230.783 230.909L230.068 230.878Z" fill="white"/>
<path d="M231.227 230.924C230.449 230.924 228.7 230.326 228.568 229.704C228.568 229.548 228.568 229.331 228.941 229.152C230.278 228.522 231.312 230.637 231.359 230.707C231.368 230.729 231.373 230.752 231.373 230.776C231.373 230.8 231.368 230.824 231.359 230.846C231.346 230.87 231.327 230.89 231.303 230.904C231.28 230.917 231.254 230.925 231.227 230.924ZM229.431 229.315C229.299 229.314 229.169 229.343 229.05 229.401C228.887 229.478 228.809 229.564 228.825 229.642C228.903 230.007 230.162 230.52 230.986 230.629C230.737 230.209 230.138 229.315 229.431 229.315Z" fill="white"/>
<path d="M227.97 84.0114L222.265 83.0088L225.211 89.6541C225.211 89.6541 230.442 89.6541 230.208 86.9183L227.97 84.0114Z" fill="#E4897B"/>
<path d="M217.951 86.3509L220.648 91.7138L225.18 89.6541L222.234 83.0088L217.951 86.3509Z" fill="#E4897B"/>
<path d="M234.258 218.69L225.654 226.789L222.879 223.812L232.726 214.843L234.258 218.69Z" fill="#0F1E72"/>
<path opacity="0.6" d="M234.258 218.69L225.654 226.789L222.879 223.812L232.726 214.843L234.258 218.69Z" fill="white"/>
<path d="M224.713 226.828H213.311L212.682 222.818L225.265 223.447L224.713 226.828Z" fill="#0F1E72"/>
<path opacity="0.6" d="M224.713 226.828H213.311L212.682 222.818L225.265 223.447L224.713 226.828Z" fill="white"/>
<path d="M230.605 38.279C236.045 39.0562 241.618 57.9585 241.618 57.9585L229.96 64.4251C229.96 64.4251 225.226 55.4403 222.964 48.7716C220.594 41.7843 224.783 37.424 230.605 38.279Z" fill="#0F1E72"/>
<path opacity="0.7" d="M230.605 38.279C236.045 39.0562 241.618 57.9585 241.618 57.9585L229.96 64.4251C229.96 64.4251 225.226 55.4403 222.964 48.7716C220.594 41.7843 224.783 37.424 230.605 38.279Z" fill="white"/>
<path opacity="0.2" d="M211.042 40.463L208.71 42.9424L209.852 45.3363L211.71 45.4218L213.296 43.1367L211.042 40.463Z" fill="black"/>
<path d="M210.055 44.9088C210.055 44.9088 205.632 63.2282 205.461 67.0366C205.22 72.2752 207.412 81.2212 207.412 81.2212C207.412 81.2212 210.521 73.783 211.158 66.8734C211.796 59.9638 211.322 48.7872 211.609 44.9088H210.055Z" fill="#0F1E72"/>
<path opacity="0.2" d="M210.055 44.9088C210.055 44.9088 205.632 63.2282 205.461 67.0366C205.22 72.2752 207.412 81.2212 207.412 81.2212C207.412 81.2212 210.521 73.783 211.158 66.8734C211.796 59.9638 211.322 48.7872 211.609 44.9088H210.055Z" fill="black"/>
<path d="M211.042 40.463C211.927 41.8968 212.44 43.5293 212.534 45.2119C212.534 45.2119 222.234 41.7921 221.775 36.7789C221.775 36.7789 220.4 35.9628 219.529 35.3022C219.529 35.3022 219.203 38.4578 211.042 40.463Z" fill="#0F1E72"/>
<path opacity="0.6" d="M211.042 40.463C211.927 41.8968 212.44 43.5293 212.534 45.2119C212.534 45.2119 222.234 41.7921 221.775 36.7789C221.775 36.7789 220.4 35.9628 219.529 35.3022C219.529 35.3022 219.203 38.4578 211.042 40.463Z" fill="white"/>
<path d="M211.042 40.463C210.15 41.8203 209.508 43.3258 209.145 44.9088C209.145 44.9088 204.754 41.9398 206.075 36.9888C206.88 36.6645 207.709 36.4046 208.555 36.2115C208.555 36.2115 207.979 39.4138 211.042 40.463Z" fill="#0F1E72"/>
<path opacity="0.6" d="M211.042 40.463C210.15 41.8203 209.508 43.3258 209.145 44.9088C209.145 44.9088 204.754 41.9398 206.075 36.9888C206.88 36.6645 207.709 36.4046 208.555 36.2115C208.555 36.2115 207.979 39.4138 211.042 40.463Z" fill="white"/>
</svg>
