<svg width="18" height="18" viewBox="0 0 18 18" fill="none" xmlns="http://www.w3.org/2000/svg">
<path d="M4.80876 15.2669L4.54276 13.3859C4.5246 13.2574 4.45613 13.1414 4.35242 13.0634C4.24871 12.9854 4.11826 12.9518 3.98976 12.9699C3.86127 12.9881 3.74525 13.0566 3.66723 13.1603C3.58922 13.264 3.5556 13.3944 3.57376 13.5229L3.63376 13.9439C2.67885 12.7669 2.1117 11.323 2.01018 9.81072C1.90866 8.2984 2.27775 6.79174 3.06678 5.49758C3.85581 4.20343 5.02609 3.18523 6.41694 2.5828C7.80779 1.98036 9.35103 1.82321 10.8348 2.13294C10.8994 2.15118 10.9672 2.15592 11.0337 2.14688C11.1003 2.13784 11.1643 2.1152 11.2218 2.08037C11.2792 2.04554 11.3289 1.99927 11.3677 1.94443C11.4066 1.88958 11.4337 1.82735 11.4474 1.76158C11.4612 1.69581 11.4612 1.62792 11.4476 1.56212C11.434 1.49632 11.407 1.43402 11.3683 1.3791C11.3296 1.32418 11.28 1.2778 11.2227 1.24285C11.1653 1.2079 11.1013 1.18512 11.0348 1.17594C9.35367 0.824648 7.60507 1.00213 6.02884 1.68403C4.45262 2.36593 3.126 3.51884 2.23099 4.9846C1.33598 6.45035 0.916435 8.15713 1.02991 9.87078C1.14338 11.5844 1.78431 13.221 2.86476 14.5559L2.39976 14.4669C2.3352 14.4509 2.26805 14.4483 2.20242 14.4591C2.13678 14.4699 2.07403 14.4939 2.018 14.5298C1.96196 14.5656 1.9138 14.6125 1.87646 14.6675C1.83912 14.7226 1.81338 14.7846 1.8008 14.8499C1.78823 14.9153 1.78909 14.9825 1.80332 15.0474C1.81756 15.1124 1.84487 15.1738 1.8836 15.2279C1.92233 15.282 1.97167 15.3276 2.0286 15.362C2.08553 15.3964 2.14888 15.4188 2.21476 15.4279L4.19276 15.8079C4.27133 15.83 4.35415 15.8321 4.43375 15.8142C4.51335 15.7962 4.58721 15.7586 4.64865 15.7049C4.71009 15.6512 4.75718 15.5831 4.78566 15.5066C4.81414 15.4301 4.82311 15.3477 4.81176 15.2669H4.80876Z" fill="#0F1E72" stroke="#0F1E72" stroke-width="0.2"/>
<path d="M17.142 6.45593C16.8279 5.59296 16.3735 4.7878 15.797 4.07293L16.27 4.16393C16.3345 4.17992 16.4017 4.1826 16.4673 4.1718C16.533 4.161 16.5957 4.13695 16.6518 4.10112C16.7078 4.06529 16.7559 4.01841 16.7933 3.96337C16.8306 3.90832 16.8564 3.84625 16.8689 3.78093C16.8815 3.71561 16.8807 3.64842 16.8664 3.58344C16.8522 3.51847 16.8249 3.45707 16.7861 3.40299C16.7474 3.34891 16.6981 3.30329 16.6411 3.26889C16.5842 3.2345 16.5209 3.21206 16.455 3.20293L14.476 2.82293C14.3975 2.80107 14.3148 2.79909 14.2353 2.81717C14.1559 2.83525 14.0821 2.87282 14.0208 2.92649C13.9595 2.98016 13.9125 3.04825 13.8841 3.12462C13.8557 3.20099 13.8467 3.28323 13.858 3.36393L14.124 5.24493C14.1421 5.37343 14.2106 5.48945 14.3143 5.56746C14.3657 5.60609 14.4241 5.63423 14.4864 5.65026C14.5486 5.6663 14.6133 5.66993 14.677 5.66093C14.7406 5.65194 14.8018 5.6305 14.8572 5.59784C14.9125 5.56518 14.9609 5.52194 14.9995 5.47059C15.0381 5.41924 15.0663 5.36078 15.0823 5.29856C15.0983 5.23633 15.102 5.17156 15.093 5.10793L15.033 4.68693C15.9911 5.86307 16.561 7.30735 16.6642 8.82085C16.7674 10.3344 16.3987 11.8426 15.6091 13.1379C14.8194 14.4332 13.6475 15.4518 12.2549 16.0533C10.8623 16.6549 9.31736 16.8099 7.83298 16.4969C7.76831 16.4787 7.70058 16.4739 7.63401 16.483C7.56743 16.492 7.50343 16.5147 7.44597 16.5495C7.38851 16.5843 7.33882 16.6306 7.30001 16.6854C7.26119 16.7403 7.23407 16.8025 7.22032 16.8683C7.20658 16.9341 7.20651 17.002 7.22011 17.0678C7.23372 17.1335 7.26071 17.1958 7.29941 17.2508C7.33811 17.3057 7.38769 17.3521 7.44507 17.387C7.50245 17.422 7.56642 17.4447 7.63298 17.4539C9.08599 17.7614 10.5948 17.6738 12.0025 17.2004C13.4102 16.7269 14.6653 15.8848 15.6371 14.7618C16.609 13.6387 17.2621 12.2757 17.5285 10.8146C17.7949 9.35352 17.6649 7.84773 17.152 6.45393L17.142 6.45593Z" fill="#0F1E72" stroke="#0F1E72" stroke-width="0.2"/>
<path d="M14.4078 9.34192C14.406 8.33876 14.1069 7.35865 13.5483 6.52542C12.9896 5.69219 12.1966 5.04324 11.2693 4.66058C10.342 4.27792 9.32203 4.17872 8.33837 4.37551C7.3547 4.57231 6.45144 5.05628 5.74273 5.76625C5.03402 6.47621 4.55166 7.38032 4.35661 8.36434C4.16155 9.34835 4.26256 10.3681 4.64686 11.2947C5.03116 12.2214 5.68152 13.0133 6.51573 13.5704C7.34995 14.1276 8.3306 14.4249 9.33376 14.4249C10.6802 14.4223 11.9706 13.8856 12.9219 12.9327C13.8731 11.9797 14.4075 10.6884 14.4078 9.34192ZM5.23776 9.34192C5.23776 8.53102 5.47822 7.73832 5.92874 7.06408C6.37925 6.38984 7.01958 5.86434 7.76876 5.55402C8.51793 5.2437 9.34231 5.1625 10.1376 5.3207C10.933 5.4789 11.6635 5.86939 12.2369 6.44278C12.8103 7.01618 13.2008 7.74673 13.359 8.54205C13.5172 9.33737 13.436 10.1617 13.1257 10.9109C12.8153 11.6601 12.2898 12.3004 11.6156 12.7509C10.9414 13.2015 10.1487 13.4419 9.33776 13.4419C8.25038 13.4419 7.20752 13.01 6.43862 12.2411C5.66972 11.4722 5.23776 10.4293 5.23776 9.34192Z" fill="#0F1E72" stroke="#0F1E72" stroke-width="0.2"/>
<path d="M9.26172 13.991C12.0231 13.991 14.2617 11.7524 14.2617 8.99097C14.2617 6.22954 12.0231 3.99097 9.26172 3.99097C6.50029 3.99097 4.26172 6.22954 4.26172 8.99097C4.26172 11.7524 6.50029 13.991 9.26172 13.991Z" fill="#0F1E72"/>
<path d="M9.7308 11.5799V11.2469C9.88739 11.2575 10.0445 11.2358 10.1924 11.1835C10.3403 11.1311 10.476 11.049 10.5911 10.9424C10.7062 10.8357 10.7983 10.7066 10.8617 10.563C10.9251 10.4195 10.9585 10.2645 10.9599 10.1075C10.9612 9.95061 10.9305 9.79507 10.8696 9.65044C10.8087 9.5058 10.7189 9.37514 10.6057 9.26646C10.4924 9.15779 10.3582 9.07338 10.2112 9.01843C10.0642 8.96349 9.90753 8.93917 9.75079 8.94695H8.9138C8.86718 8.94655 8.82109 8.93698 8.77817 8.91878C8.73525 8.90057 8.69633 8.87409 8.66365 8.84085C8.59764 8.77371 8.561 8.6831 8.5618 8.58894C8.56259 8.49479 8.60075 8.40482 8.66789 8.33881C8.73503 8.27279 8.82565 8.23616 8.9198 8.23695H9.7198C9.79191 8.23876 9.8629 8.25511 9.92854 8.285C9.99418 8.3149 10.0531 8.35774 10.1018 8.41095C10.1763 8.4773 10.2729 8.51342 10.3726 8.51222C10.4724 8.51103 10.5681 8.4726 10.641 8.40448C10.7139 8.33636 10.7587 8.24346 10.7666 8.14401C10.7745 8.04457 10.745 7.94574 10.6838 7.86694C10.5615 7.73549 10.4141 7.63002 10.2502 7.55682C10.0863 7.48363 9.90928 7.44422 9.7298 7.44095V7.09995C9.7298 6.99386 9.68765 6.89212 9.61264 6.81711C9.53762 6.74209 9.43589 6.69995 9.3298 6.69995C9.22371 6.69995 9.12196 6.74209 9.04695 6.81711C8.97193 6.89212 8.92979 6.99386 8.92979 7.09995V7.43295C8.77321 7.42245 8.61613 7.44404 8.4682 7.49641C8.32026 7.54879 8.18459 7.63086 8.0695 7.73755C7.95441 7.84424 7.86233 7.97331 7.79892 8.11687C7.7355 8.26042 7.70209 8.41541 7.70073 8.57234C7.69936 8.72927 7.73008 8.88483 7.79098 9.02946C7.85189 9.1741 7.94171 9.30476 8.05493 9.41344C8.16815 9.52211 8.30237 9.60651 8.44937 9.66145C8.59637 9.7164 8.75306 9.74072 8.9098 9.73294H9.74679C9.84095 9.73294 9.93124 9.77035 9.99782 9.83693C10.0644 9.9035 10.1018 9.9938 10.1018 10.088C10.1018 10.1821 10.0644 10.2724 9.99782 10.339C9.93124 10.4055 9.84095 10.4429 9.74679 10.4429H8.8668C8.75908 10.4402 8.65461 10.4054 8.5668 10.3429C8.48004 10.2936 8.37796 10.2785 8.28062 10.3006C8.18328 10.3226 8.09771 10.3803 8.04071 10.4622C7.98371 10.5442 7.95939 10.6444 7.97255 10.7434C7.9857 10.8423 8.03537 10.9328 8.1118 10.9969C8.34942 11.1653 8.63575 11.251 8.9268 11.241V11.5739C8.9268 11.68 8.96894 11.7818 9.04396 11.8568C9.11897 11.9318 9.22071 11.974 9.3268 11.974C9.43288 11.974 9.53462 11.9318 9.60963 11.8568C9.68465 11.7818 9.72679 11.68 9.72679 11.5739L9.7308 11.5799Z" fill="white"/>
</svg>
