<svg xmlns="http://www.w3.org/2000/svg" width="174.821" height="98.5" viewBox="0 0 174.821 98.5">
  <g id="Group_5038" data-name="Group 5038" transform="translate(-278.224 -196.471)">
    <text id="R" transform="translate(448.755 269.787)" fill="#67407e" font-size="4" font-family="Raleway-SemiBold, Raleway" font-weight="600"><tspan x="0" y="0">R</tspan></text>
    <circle id="Ellipse_346" data-name="Ellipse 346" cx="2.84" cy="2.84" r="2.84" transform="translate(447.116 265.585)" fill="none" stroke="#67407e" stroke-miterlimit="10" stroke-width="0.5"/>
    <g id="Group_5037" data-name="Group 5037" transform="translate(278.224 266.557)">
      <path id="Path_13239" data-name="Path 13239" d="M385.864,335.97l5.916-8.624h6.583L388.7,340.011Z" transform="translate(-322.704 -320.639)" fill="#67407e"/>
      <path id="Path_13240" data-name="Path 13240" d="M278.224,343.7V315.915h13.54a11.3,11.3,0,0,1,7.374,2.187q2.666,2.187,2.667,6.645a9.161,9.161,0,0,1-.75,3.6,8.267,8.267,0,0,1-2.208,3.041,7.307,7.307,0,0,1-3.667,1.645l-.417-2.291,8.458,12.957h-8.583l-6.958-12.123,3,2.541h-5.708V343.7Zm6.75-14.54h5.666a4.02,4.02,0,0,0,2.833-.958,5.172,5.172,0,0,0,.1-6.083,3.452,3.452,0,0,0-2.646-1h-5.958Z" transform="translate(-278.224 -315.915)" fill="#67407e"/>
      <path id="Path_13241" data-name="Path 13241" d="M336.9,348.553a11.634,11.634,0,0,1-5.6-1.312,9.292,9.292,0,0,1-3.791-3.75,11.783,11.783,0,0,1-1.354-5.812q0-5.5,2.729-8.519t7.812-3.021a9.662,9.662,0,0,1,5.645,1.5,8.577,8.577,0,0,1,3.145,4.374,20.82,20.82,0,0,1,.959,7H330.4l-.667-3.958h11.582l-.917,1.959a9.227,9.227,0,0,0-.958-4.749,3.339,3.339,0,0,0-3-1.375,3.9,3.9,0,0,0-2.1.583,3.774,3.774,0,0,0-1.458,1.938,10.7,10.7,0,0,0-.52,3.729,6.756,6.756,0,0,0,1.437,4.624q1.437,1.625,4.6,1.625a10.017,10.017,0,0,0,2.312-.27,17.66,17.66,0,0,0,2.145-.646q1-.375,1.708-.667v5.333a19.058,19.058,0,0,1-3.353,1.02A20.868,20.868,0,0,1,336.9,348.553Z" transform="translate(-298.029 -320.14)" fill="#67407e"/>
      <path id="Path_13242" data-name="Path 13242" d="M377.209,346.144l-5.749,8.416h-6.541l9.458-12.373Z" transform="translate(-314.048 -326.771)" fill="#67407e"/>
      <path id="Path_13243" data-name="Path 13243" d="M387.688,348.427h-7.374l-15.04-21.081h7.333Z" transform="translate(-314.195 -320.639)" fill="#67407e"/>
      <path id="Path_13244" data-name="Path 13244" d="M415.168,343.7l-7.791-27.788h7.375l4.874,21.581H418.5l6.25-21.581h5.208l6.374,21.873h-1.25L440,315.915h7.375L439.583,343.7h-6.666l-6.125-20H428l-6.166,20Z" transform="translate(-331.594 -315.915)" fill="#67407e"/>
      <path id="Path_13245" data-name="Path 13245" d="M482.215,348.632V327.843h6.208l.042,20.789Z" transform="translate(-362.519 -320.844)" fill="#67407e"/>
      <path id="Path_13246" data-name="Path 13246" d="M502.308,347.987V329.114a8.737,8.737,0,0,1,2.083-1.145,25.568,25.568,0,0,1,3.437-1.167,14.955,14.955,0,0,1,3.9-.52,12.836,12.836,0,0,1,3.082.292,4.706,4.706,0,0,1,1.709.75v4.541a12.239,12.239,0,0,0-1.791-.249q-1.084-.084-2.25-.1t-2.208.021a13.44,13.44,0,0,0-1.75.167v16.289Z" transform="translate(-370.822 -320.199)" fill="#67407e"/>
      <path id="Path_13247" data-name="Path 13247" d="M540.179,348.553a11.631,11.631,0,0,1-5.6-1.312,9.291,9.291,0,0,1-3.792-3.75,11.783,11.783,0,0,1-1.354-5.812q0-5.5,2.729-8.519t7.812-3.021a9.661,9.661,0,0,1,5.645,1.5,8.585,8.585,0,0,1,3.146,4.374,20.822,20.822,0,0,1,.958,7H533.68l-.667-3.958H544.6l-.917,1.959a9.215,9.215,0,0,0-.958-4.749,3.338,3.338,0,0,0-3-1.375,3.9,3.9,0,0,0-2.1.583,3.772,3.772,0,0,0-1.458,1.938,10.688,10.688,0,0,0-.522,3.729,6.753,6.753,0,0,0,1.438,4.624q1.437,1.625,4.6,1.625a10.014,10.014,0,0,0,2.313-.27,17.675,17.675,0,0,0,2.146-.646q1-.375,1.708-.667v5.333a19.065,19.065,0,0,1-3.354,1.02A20.868,20.868,0,0,1,540.179,348.553Z" transform="translate(-382.029 -320.14)" fill="#67407e"/>
    </g>
    <path id="Path_13248" data-name="Path 13248" d="M409.243,227.529c-9.378,12.113-12.525,6.676-17.5-5.672a49.334,49.334,0,0,1-2.966-10.922c-.234-1.571-.392-3.158-.474-4.77-.018-.34-.035-.68-.042-1.021,1.839-.6,3.715-1.124,5.617-1.551a60.075,60.075,0,0,1,20.333-1.06c1.915.232,3.834.563,5.747.982a58.325,58.325,0,0,1,5.721,1.567,53.946,53.946,0,0,0-.552-6.075q-2.963-.856-5.966-1.411-2.981-.557-5.959-.839a65.171,65.171,0,0,0-18.918.988c-1.971.387-3.925.871-5.842,1.442q-2.957.877-5.791,2.011c-.077,1.73-.076,3.479.015,5.256.014.274.039.559.053.833a55.448,55.448,0,0,0,.708,5.891,54.206,54.206,0,0,0,1.311,5.641,53.4,53.4,0,0,0,1.881,5.391,54.124,54.124,0,0,0,10.994,16.956,42.371,42.371,0,0,0,4.241-3.724,43.408,43.408,0,0,0,7.39-9.911Z" transform="translate(-43.129 0)" fill="#67407e" fill-rule="evenodd"/>
    <path id="Path_13249" data-name="Path 13249" d="M399.354,232.853c15.182,2.062,12.039,7.5,3.832,17.982a48.824,48.824,0,0,1-3.731,4.238,50.579,50.579,0,0,1-4.248,3.8,47.483,47.483,0,0,1-3.893,2.794c-.287.191-.575.37-.852.55q-2.178-1.951-4.156-4.087a59.923,59.923,0,0,1-11.088-17.083q-1.142-2.663-2.028-5.472a59.154,59.154,0,0,1-1.5-5.74,53.6,53.6,0,0,0-4.978,3.521q.747,3,1.752,5.871c.669,1.912,1.424,3.765,2.253,5.581A65.465,65.465,0,0,0,381.026,260.7q2,2.273,4.18,4.339c1.48,1.42,3.033,2.759,4.625,4.008q2.313-1.207,4.55-2.64c.234-.155.468-.31.691-.464a53.3,53.3,0,0,0,4.745-3.552,54.235,54.235,0,0,0,7.968-8.28,54.2,54.2,0,0,0,9.186-18.009,44.831,44.831,0,0,0-5.348-1.806,43.114,43.114,0,0,0-12.269-1.441Z" transform="translate(-36.564 -13.787)" fill="#ffa600" fill-rule="evenodd"/>
    <path id="Path_13250" data-name="Path 13250" d="M408.432,234.115c-5.8-14.175.475-14.176,13.667-12.31a47.8,47.8,0,0,1,10.936,2.895c1.481.584,2.933,1.236,4.378,1.976.293.15.6.31.893.471q-.6,2.851-1.461,5.639a59.79,59.79,0,0,1-9.245,18.144q-1.745,2.316-3.73,4.479a56.452,56.452,0,0,1-4.218,4.174,54.911,54.911,0,0,0,5.54,2.554c1.478-1.428,2.886-2.919,4.2-4.459s2.557-3.11,3.705-4.742a65.018,65.018,0,0,0,8.606-16.879c.651-1.892,1.2-3.822,1.673-5.781.481-1.993.862-4,1.156-6.009-1.467-.936-2.984-1.8-4.566-2.615-.248-.13-.5-.249-.745-.38a58.235,58.235,0,0,0-5.452-2.328,53.177,53.177,0,0,0-5.551-1.685c-1.859-.455-3.725-.81-5.6-1.078a54.422,54.422,0,0,0-20.191,1.053,43.115,43.115,0,0,0,6,16.881Z" transform="translate(-51.327 -7.94)" fill="#67407e" fill-rule="evenodd"/>
  </g>
</svg>
