<svg id="Group_5913" data-name="Group 5913" xmlns="http://www.w3.org/2000/svg" width="146.489" height="24.821" viewBox="0 0 146.489 24.821">
  <path id="Path_13239" data-name="Path 13239" d="M385.864,334.88l5.168-7.534h5.75l-8.444,11.064Z" transform="translate(-330.69 -321.487)" fill="#ffa600"/>
  <path id="Path_13240" data-name="Path 13240" d="M278.224,340.19V315.915h11.828a9.874,9.874,0,0,1,6.442,1.91q2.329,1.911,2.33,5.8a8,8,0,0,1-.655,3.148,7.221,7.221,0,0,1-1.929,2.657,6.383,6.383,0,0,1-3.2,1.437l-.364-2,7.388,11.318h-7.5l-6.078-10.59,2.621,2.22H284.12v8.37Zm5.9-12.7h4.949a3.512,3.512,0,0,0,2.475-.837,4.518,4.518,0,0,0,.091-5.313,3.015,3.015,0,0,0-2.311-.873h-5.2Z" transform="translate(-278.224 -315.915)" fill="#5c3971"/>
  <path id="Path_13241" data-name="Path 13241" d="M335.541,345.719a10.163,10.163,0,0,1-4.9-1.146,8.117,8.117,0,0,1-3.312-3.276,10.293,10.293,0,0,1-1.183-5.077q0-4.8,2.384-7.442a8.724,8.724,0,0,1,6.824-2.639,8.44,8.44,0,0,1,4.931,1.31,7.493,7.493,0,0,1,2.747,3.821,18.188,18.188,0,0,1,.838,6.115H329.863l-.582-3.458H339.4l-.8,1.711a8.06,8.06,0,0,0-.837-4.149,2.917,2.917,0,0,0-2.62-1.2,3.41,3.41,0,0,0-1.838.509,3.3,3.3,0,0,0-1.274,1.693,9.352,9.352,0,0,0-.455,3.257,5.9,5.9,0,0,0,1.255,4.04,5.114,5.114,0,0,0,4.022,1.419,8.749,8.749,0,0,0,2.02-.236,15.423,15.423,0,0,0,1.874-.564q.873-.328,1.492-.582v4.659a16.648,16.648,0,0,1-2.929.891A18.228,18.228,0,0,1,335.541,345.719Z" transform="translate(-301.585 -320.898)" fill="#5c3971"/>
  <path id="Path_13242" data-name="Path 13242" d="M375.655,345.643l-5.022,7.352h-5.714l8.262-10.809Z" transform="translate(-320.48 -328.72)" fill="#5c3971"/>
  <path id="Path_13243" data-name="Path 13243" d="M384.853,345.762h-6.442l-13.139-18.416h6.405Z" transform="translate(-320.653 -321.487)" fill="#5c3971"/>
  <path id="Path_13244" data-name="Path 13244" d="M414.183,340.19l-6.806-24.275h6.442l4.258,18.852h-.983l5.459-18.852H427.1l5.568,19.107h-1.092l4.295-19.107h6.442L435.51,340.19h-5.823l-5.35-17.469h1.055l-5.387,17.469Z" transform="translate(-341.176 -315.915)" fill="#5c3971"/>
  <path id="Path_13245" data-name="Path 13245" d="M482.215,346V327.843h5.423L487.674,346Z" transform="translate(-377.653 -321.729)" fill="#5c3971"/>
  <path id="Path_13246" data-name="Path 13246" d="M502.308,345.242V328.756a7.631,7.631,0,0,1,1.82-1,22.338,22.338,0,0,1,3-1.02,13.066,13.066,0,0,1,3.4-.455,11.213,11.213,0,0,1,2.693.255,4.112,4.112,0,0,1,1.493.655v3.967a10.692,10.692,0,0,0-1.565-.218q-.947-.073-1.966-.091t-1.929.018a11.749,11.749,0,0,0-1.528.146v14.23Z" transform="translate(-387.447 -320.968)" fill="#5c3971"/>
  <path id="Path_13247" data-name="Path 13247" d="M538.82,345.719a10.16,10.16,0,0,1-4.895-1.146,8.116,8.116,0,0,1-3.312-3.276,10.293,10.293,0,0,1-1.183-5.077q0-4.8,2.384-7.442a8.724,8.724,0,0,1,6.824-2.639,8.439,8.439,0,0,1,4.932,1.31,7.5,7.5,0,0,1,2.748,3.821,18.188,18.188,0,0,1,.837,6.115H533.143l-.583-3.458h10.118l-.8,1.711a8.049,8.049,0,0,0-.837-4.149,2.916,2.916,0,0,0-2.62-1.2,3.41,3.41,0,0,0-1.838.509,3.3,3.3,0,0,0-1.274,1.693,9.337,9.337,0,0,0-.456,3.257,5.9,5.9,0,0,0,1.256,4.04,5.113,5.113,0,0,0,4.021,1.419,8.747,8.747,0,0,0,2.02-.236,15.434,15.434,0,0,0,1.874-.564q.874-.328,1.492-.582v4.659a16.653,16.653,0,0,1-2.93.891A18.228,18.228,0,0,1,538.82,345.719Z" transform="translate(-400.667 -320.898)" fill="#5c3971"/>
</svg>
