<svg xmlns="http://www.w3.org/2000/svg" width="57.124" height="85.111" viewBox="0 0 57.124 85.111">
  <g id="_098---Selfies" data-name="098---Selfies" transform="translate(0.493 0.5)">
    <path id="Shape" d="M50.467,37.781H46.261V35.2l4.874-2.014a5.611,5.611,0,0,0-4.144-10.43l-.73.29V5.607A5.607,5.607,0,0,0,40.654,0H14.019A5.607,5.607,0,0,0,8.411,5.607V33.6A8.6,8.6,0,0,0,.328,42.267a125.872,125.872,0,0,1-.07,12.882c-.153,2.8-.342,6.3-.217,7.97a11.156,11.156,0,0,0,2.508,6.928c1.436,2.052,1.183,1.8,2.344,3.562,2.33,3.544,2.117,4.054,2.117,6.3a4.206,4.206,0,0,0,4.206,4.206H28.037a4.206,4.206,0,0,0,4.206-4.206V77.033a1.393,1.393,0,0,1,.7-1.211,21.541,21.541,0,0,0,7.07-5.8h.641A5.607,5.607,0,0,0,46.068,65.8c.066,0,.128.02.193.02h1.444a5.586,5.586,0,0,0,4.242-9.233,5.54,5.54,0,0,0,1.372-8.4,5.6,5.6,0,0,0-2.853-10.409Zm0,2.8a2.8,2.8,0,0,1,0,5.607H46.261a2.8,2.8,0,0,1,0-5.607ZM49.065,54.6h-2.8a2.8,2.8,0,0,1,0-5.607h2.8a2.8,2.8,0,0,1,0,5.607Zm-1.04-29.24a2.807,2.807,0,1,1,2.059,5.223l-3.823,1.581V26.063ZM21.359,5.607a1.392,1.392,0,0,1-1.253-.775L19.09,2.8H35.582L34.567,4.832a1.392,1.392,0,0,1-1.253.775ZM31.57,73.383a4.206,4.206,0,0,0-2.131,3.645v2.878a1.4,1.4,0,0,1-1.4,1.4H11.215a1.4,1.4,0,0,1-1.4-1.4V78.5c0-3.01-1.947-5.368-3.3-7.57C4.019,66.9,3.146,66.976,2.836,62.905c-.163-2.186.313-8.525.376-10.841.035-1.4-.039-6.538-.08-9.835A5.815,5.815,0,0,1,8.91,36.374c3.214,0,4.287,2.019,7.531,2.944a41.43,41.43,0,0,0,6.168,1.2,1.371,1.371,0,0,1,1.228,1.344V42.1c-.01.489-.289,4.766-7.009,4.766a.663.663,0,0,0-.258.027c-1.072.088-5.976-.91-6.9-2.756A1.4,1.4,0,1,0,7.162,45.4a5.089,5.089,0,0,0,1.249,1.549V64.415a5.607,5.607,0,0,0,5.607,5.607H36.26A24.219,24.219,0,0,1,31.57,73.383Zm1.963-49.526L30.195,22.43c.618-.629,1.225-1.3,1.811-2.027a7.079,7.079,0,0,1,1.525,3.454Zm-12.477,1c.223-5.206,4.734-7.828,8.71-6.136a16.946,16.946,0,0,1-8.707,6.136Zm6.828-.359,5.638,2.41c-1.228,8.763-10.5,9.018-12.238.792a16.629,16.629,0,0,0,6.6-3.2Zm8.564,21.486v7.29h-2.8V47.663a1.4,1.4,0,1,0-2.8,0v5.607H23.831c0-6.95,0-5.425-.013-5.668a7.675,7.675,0,0,0,2.816-5.732,4.183,4.183,0,0,0-3.9-4.154,9.175,9.175,0,0,1,13.714,8.264Zm-18.224,7.29V49.609a12.532,12.532,0,0,0,2.8-.536v4.2Zm22.43,13.948H14.019a2.8,2.8,0,0,1-2.8-2.8V48.574a17.1,17.1,0,0,0,4.206,1.047v3.649a2.8,2.8,0,0,0,2.8,2.8H36.448a2.8,2.8,0,0,0,2.8-2.8v-7.29a12.477,12.477,0,0,0-6.973-11.215,11.951,11.951,0,0,0,4.14-8.739v-.021a10.057,10.057,0,0,0-3.746-8.84c-5.961-4.319-14.449-.343-14.449,8.068a12.259,12.259,0,0,0,4.126,9.5,11.787,11.787,0,0,0-3.329,2.34c-.592-.13-1.2-.28-1.814-.453-2.265-.646-3.364-2.124-5.992-2.777V5.607a2.8,2.8,0,0,1,2.8-2.8h1.937L17.6,6.087a4.185,4.185,0,0,0,3.761,2.324H33.314a4.185,4.185,0,0,0,3.761-2.324L38.716,2.8h1.937a2.8,2.8,0,0,1,2.8,2.8V38.561a5.549,5.549,0,0,0-.866,9.034,5.557,5.557,0,0,0-.013,8.422A5.551,5.551,0,0,0,43.393,65a2.8,2.8,0,0,1-2.739,2.215Zm7.051-4.206H46.261a2.8,2.8,0,1,1,0-5.607h1.444a2.8,2.8,0,1,1,0,5.607Z" transform="translate(0 0)" fill="#67407e" stroke="#fff" stroke-width="1"/>
    <path id="Shape-2" data-name="Shape" d="M29.822,44H14.4a1.4,1.4,0,0,0,0,2.8h15.42a1.4,1.4,0,1,0,0-2.8Z" transform="translate(5.224 17.682)" fill="#67407e" stroke="#fff" stroke-width="1"/>
  </g>
</svg>
