<svg xmlns="http://www.w3.org/2000/svg" width="218.56" height="261.426" viewBox="0 0 218.56 261.426">
  <g id="Group_5043" data-name="Group 5043" transform="translate(-78.096 -312.312)">
    <g id="Group_5042" data-name="Group 5042">
      <g id="Group_5041" data-name="Group 5041">
        <g id="Group_5040" data-name="Group 5040">
          <g id="Group_5039" data-name="Group 5039">
            <g id="Group_4530" data-name="Group 4530" transform="translate(78.096 312.312)" opacity="0.27">
              <g id="Group_4396" data-name="Group 4396" transform="translate(0 0)">
                <path id="Path_12414" data-name="Path 12414" d="M947.807,2314.26a2.045,2.045,0,0,1,1.393,1.266,1.853,1.853,0,0,1-1.807,2.43c-1.263.019-2.526,0-3.79.005-1.474,0-2.947-.021-4.421.01a7.818,7.818,0,0,0-7.734,7.754c-.044,2.7-.009,5.4-.014,8.1a1.893,1.893,0,0,1-1.279,1.9,1.846,1.846,0,0,1-2.418-1.748c-.014-1.895-.021-3.789,0-5.683a36.9,36.9,0,0,1,.142-4.062,11.418,11.418,0,0,1,8.941-9.688c.568-.121,1.147-.193,1.721-.288Z" transform="translate(-927.724 -2314.26)" fill="#af9bbb"/>
                <path id="Path_12415" data-name="Path 12415" d="M977.966,2334.331a2.041,2.041,0,0,1-1.265,1.393,1.854,1.854,0,0,1-2.432-1.8c-.019-1.028,0-2.058-.005-3.086,0-1.707.023-3.415-.011-5.119a7.816,7.816,0,0,0-7.743-7.74c-2.7-.045-5.4-.014-8.1-.012a1.892,1.892,0,0,1-1.7-.86,1.834,1.834,0,0,1,.9-2.723c.1-.039.189-.081.284-.121h9.265a1.77,1.77,0,0,0,.267.059,11.509,11.509,0,0,1,10.26,9.062c.118.558.188,1.125.281,1.686Z" transform="translate(-759.405 -2314.26)" fill="#af9bbb"/>
                <path id="Path_12416" data-name="Path 12416" d="M977.966,2353.685c-.095.574-.165,1.155-.288,1.723a11.492,11.492,0,0,1-9.688,8.953,11.066,11.066,0,0,1-1.4.121q-4.158.019-8.316.007a1.846,1.846,0,0,1-1.779-2.419,1.886,1.886,0,0,1,1.895-1.277c2.574,0,5.147-.009,7.72,0a8.06,8.06,0,0,0,3.793-.844,7.7,7.7,0,0,0,4.267-5.928,9.537,9.537,0,0,0,.088-1.468q.013-3.806,0-7.613a1.888,1.888,0,0,1,.858-1.7,1.835,1.835,0,0,1,2.726.9c.037.095.079.19.119.284Z" transform="translate(-770.138 -2103.069)" fill="#af9bbb"/>
                <path id="Path_12417" data-name="Path 12417" d="M943.122,2364.436c-1.6,0-3.209.091-4.8-.018a11.416,11.416,0,0,1-10.288-9,12.512,12.512,0,0,1-.283-2.432c-.035-2.725-.017-5.451-.012-8.176a1.861,1.861,0,0,1,1.477-1.844,1.812,1.812,0,0,1,2.039,1.065,2.5,2.5,0,0,1,.176.953c.014,2.572.009,5.146.007,7.719a7.83,7.83,0,0,0,2.686,6.125,7.29,7.29,0,0,0,4.744,1.928c2.807.063,5.614.024,8.423.032a1.9,1.9,0,0,1,1.909,1.261,1.848,1.848,0,0,1-1.723,2.435c-1.449.018-2.9,0-4.351,0Z" transform="translate(-927.723 -2103.071)" fill="#af9bbb"/>
              </g>
            </g>
          </g>
        </g>
      </g>
    </g>
    <g id="passport" transform="translate(106.5 343.31)">
      <path id="Path_13234" data-name="Path 13234" d="M178.788,0H56.925C47.593,0,40,7.986,40,17.8V181.583c0,9.816,7.593,17.8,16.925,17.8H178.788c9.333,0,16.925-7.986,16.925-17.8V17.8C195.713,7.986,188.121,0,178.788,0Zm10.155,181.583a10.44,10.44,0,0,1-10.155,10.681H56.925A10.44,10.44,0,0,1,46.77,181.583V17.8A10.44,10.44,0,0,1,56.925,7.121H178.788A10.44,10.44,0,0,1,188.943,17.8Z" transform="translate(-40 0)" fill="#67407e" stroke="#fff" stroke-width="4.23"/>
      <path id="Path_13235" data-name="Path 13235" d="M157.813,64C132.551,64,112,86.361,112,113.846s20.551,49.846,45.813,49.846,45.813-22.361,45.813-49.846S183.074,64,157.813,64Zm35.693,67.649H182.331a91.484,91.484,0,0,0,1.6-14.242h13.016A45.383,45.383,0,0,1,193.505,131.649Zm-71.385-35.6h11.175a91.49,91.49,0,0,0-1.6,14.242H118.682A45.383,45.383,0,0,1,122.12,96.044Zm22.6-7.121h-2.738c2.982-8.847,7.469-15.229,12.555-17.177v38.54H138.251a82.893,82.893,0,0,1,1.782-14.242h4.69a3.573,3.573,0,0,0,0-7.121Zm28.916,0H161.085V71.746C166.171,73.694,170.657,80.076,173.64,88.923Zm-54.958,28.484H131.7a91.49,91.49,0,0,0,1.6,14.242H122.12A45.383,45.383,0,0,1,118.682,117.407Zm19.569,0H154.54v14.242H140.033A82.934,82.934,0,0,1,138.251,117.407ZM154.54,138.77v17.177c-5.086-1.948-9.572-8.33-12.555-17.177Zm6.545,17.177V138.77H173.64C170.657,147.617,166.171,154,161.085,155.946Zm0-24.3v-35.6h14.507a82.939,82.939,0,0,1,1.782,14.242H170.9a3.573,3.573,0,0,0,0,7.121h6.472a82.938,82.938,0,0,1-1.782,14.242Zm22.842-21.363a91.484,91.484,0,0,0-1.6-14.242h11.175a45.394,45.394,0,0,1,3.438,14.242Zm5.761-21.363h-9.1a54.109,54.109,0,0,0-6.076-13.738A40.521,40.521,0,0,1,189.688,88.923ZM141.109,75.185a54.1,54.1,0,0,0-6.076,13.738h-9.1A40.519,40.519,0,0,1,141.109,75.185ZM125.937,138.77h9.1a54.094,54.094,0,0,0,6.076,13.738A40.519,40.519,0,0,1,125.937,138.77Zm48.579,13.738a54.081,54.081,0,0,0,6.076-13.738h9.1A40.515,40.515,0,0,1,174.517,152.508Z" transform="translate(-79.956 -35.516)" fill="#67407e" stroke="#fff" stroke-width="4.23"/>
      <path id="Path_13236" data-name="Path 13236" d="M199.465,328h-84.2a3.573,3.573,0,0,0,0,7.121h84.2a3.573,3.573,0,0,0,0-7.121Z" transform="translate(-79.956 -182.021)" fill="#67407e" stroke="#fff" stroke-width="4.23"/>
      <path id="Path_13237" data-name="Path 13237" d="M165.808,360H147.56a3.56,3.56,0,1,0,0,7.121h18.247a3.56,3.56,0,0,0,0-7.121Z" transform="translate(-100.412 -199.78)" fill="#67407e" stroke="#fff" stroke-width="4.23"/>
      <path id="Path_13238" data-name="Path 13238" d="M251.6,360H219.56a3.56,3.56,0,1,0,0,7.121H251.6a3.56,3.56,0,1,0,0-7.121Z" transform="translate(-142.741 -199.78)" fill="#67407e" stroke="#fff" stroke-width="4.23"/>
    </g>
  </g>
</svg>
