<svg xmlns="http://www.w3.org/2000/svg" xmlns:xlink="http://www.w3.org/1999/xlink" width="254.571" height="257.081" viewBox="0 0 254.571 257.081">
  <defs>
    <clipPath id="clip-path">
      <path id="Mask" d="M134.713,254.37a99.64,99.64,0,0,0,75.162-34.093c9.635-11,34.691,14.467,38.762,0,.892-3.169,12.892-42.871,0-79.134C226.532,78.961,173.289,0,134.713,0,59.584,0-35.308,230.672,13.273,254.37c29.016,14.154,48.051-31.909,51.921-28.157A99.554,99.554,0,0,0,134.713,254.37Z" transform="translate(-13.416)" fill="none"/>
    </clipPath>
  </defs>
  <g id="Human" transform="translate(12.429 -0.027)">
    <ellipse id="Background" cx="110.056" cy="109.975" rx="110.056" ry="109.975" transform="translate(15.143 32.619)" fill="#67407e"/>
    <path id="Mask-2" data-name="Mask" d="M124.213,234.543a91.873,91.873,0,0,0,69.3-31.435c8.884-10.144,31.987,13.34,35.74,0,.822-2.922,11.887-39.529,0-72.966C208.874,72.807,159.782,0,124.213,0,54.94,0-32.556,212.691,12.238,234.543c26.754,13.051,44.305-29.422,47.873-25.962A91.794,91.794,0,0,0,124.213,234.543Z" transform="translate(0.987 0.027)" fill="none"/>
    <g id="Human-2" data-name="Human" transform="translate(0.987 0.027)" clip-path="url(#clip-path)">
      <g id="Human-3" data-name="Human" transform="translate(-13.416 -7.689)">
        <g id="Head_Front" data-name="Head/Front" transform="translate(74.739)">
          <path id="Hair_Back" data-name="Hair Back" d="M28.637,58.925c10.417,0,14.205-12.46,20.123-19.3,4.234-4.892,11.461-3.434,13.6-10.283C67.739,12.122,53.343,0,34.561,0S3.116,10.631.382,26.613,9.855,58.925,28.637,58.925Z" transform="translate(26.961 11.838)" fill="#191847"/>
          <g id="Head" transform="translate(49.218 28.23)">
            <path id="Head-2" data-name="Head" d="M0,66.477,7.531,31.408C3.331,26.483.488,20.446.963,13.683c1.369-19.488,28.521-15.2,33.8-5.365S39.42,43.1,32.594,44.861c-2.722.7-8.521-1.016-14.424-4.571l3.7,26.186Z" transform="translate(0 0)" fill="#b28b67"/>
          </g>
          <path id="Hair" d="M11.947,39.617h0c-1.21,0-3.16-1.164-5.089-3.035a23.819,23.819,0,0,1-5.338-7.918A18.944,18.944,0,0,1,.309,17.883c.8-4.274,3.14-8.339,6.965-12.08a20.551,20.551,0,0,1,6.759-4.484,18.857,18.857,0,0,1,7-1.319,26.814,26.814,0,0,1,14.59,4.86c3.738,2.553,6.478,5.714,6.661,7.688a1.407,1.407,0,0,1-1.319,1.628c-4.415.828-12.851,4.982-19.326,10.5a5.739,5.739,0,0,0-2.673-.658,5.545,5.545,0,0,0-5.612,5.463,5.324,5.324,0,0,0,1.125,3.282,17.5,17.5,0,0,0-2.535,6.855Z" transform="translate(44.329 22.427)" fill="#191847"/>
        </g>
        <g id="Bottom_Skinny_Jeans_1" data-name="Bottom/Skinny Jeans 1" transform="translate(0 170.291)">
          <path id="Leg" d="M0,0,34.3,112.032l16.615,95.276H63.941L46.384,0Z" transform="translate(116.665 0)" fill="#997659"/>
          <path id="Leg-2" data-name="Leg" d="M25.5,0c2.33,61.511-.412,93.24-.933,98.829S16.9,140.654,0,209.183l13.882-4.763C40.594,141.568,49.7,108.9,52.761,100.65S63.961,58.847,77.172,0Z" transform="translate(78.898)" fill="#b28b67"/>
          <g id="Left_Shoe" data-name="Left Shoe" transform="translate(76.562 181.219)">
            <path id="shoe" d="M4.077,4.613A1.823,1.823,0,0,0,1.739,5.841L0,11.964a58.452,58.452,0,0,0,.821,7.189H52.229s2-6.619-2.313-7.147-7.173-.953-7.173-.953L18.849.411A.912.912,0,0,0,17.635.9L16.1,4.618s-4,1.863-6.5,1.863Z" transform="translate(0.911 17.273)" fill="#e4e4e4"/>
          </g>
          <g id="Right_Shoe" data-name="Right Shoe" transform="translate(162.238 181.219)">
            <path id="shoe-2" data-name="shoe" d="M4.077,4.613A1.823,1.823,0,0,0,1.739,5.841L0,11.964a58.452,58.452,0,0,0,.821,7.189H52.229s2-6.619-2.313-7.147-7.173-.953-7.173-.953L18.849.411A.912.912,0,0,0,17.635.9L16.1,4.618s-4,1.863-6.5,1.863Z" transform="translate(0.911 17.273)" fill="#e4e4e4"/>
          </g>
          <path id="Bottom" d="M0,0,14.583,57.079H59.126L52.484,0Z" transform="translate(112.108)" fill="#69a1ac"/>
          <path id="Bottom-2" data-name="Bottom" d="M4.476,0c-7.2,21.556-2.734,57.079-2.734,57.079H47.2L59.694,0Z" transform="translate(99.429 0)" fill="#89c5cc"/>
        </g>
        <g id="Body_Long_Sleeve_1" data-name="Body/Long Sleeve 1" transform="translate(24.212 74.201)">
          <path id="Skin" d="M29.206,76.881c-1.354-2.027-2.872-4.054-7.114-2.762C14.541,76.419,8.31,81.631.832,75.433c-.92-.762-1.694-3.254,1.228-4.705C9.341,67.11,20.031,60.491,21.693,58.052,25.092,53.062,44.755,0,44.755,0L60.9,2.342s-25.993,56.345-27.87,59.6c-2.816,4.878.5,13.375,1.79,17.873a5.478,5.478,0,0,1-1.514.236C31.222,80.049,30.264,78.465,29.206,76.881Zm160.5-37.5L161.823,25.472l7.52-15.387,27.513,23.3a78.29,78.29,0,0,1,19.162,9.292c1.167,1.223,2.513,3.627-2.63,2.868s-10.585-1.325-11.422.387,2.144,4.038.536,6.315a.675.675,0,0,1-.583.3Q199.433,52.549,189.71,39.377Z" transform="translate(0 71.08)" fill="#b28b67"/>
          <path id="Coat_Back" data-name="Coat Back" d="M0,4.164,9.677,0c16.469,32.556,39.485,63.435,75.58,88.061l-7.073,15.086C47.057,88.315,17.851,77.232,4.192,52.084-.392,43.644.606,14.683,0,4.164Z" transform="matrix(0.996, 0.087, -0.087, 0.996, 112.59, 1.179)" fill="#feb816"/>
          <path id="Shirt" d="M0,98.621s42.982,4.553,67.662,0c2.039-.376,2.36-3.786,1.415-6.1C54.355,56.48,44.26,25.033,44.26,0,40.208,2.041,30.078.612,30.078.612,11.927,26.409,3.584,56.008,0,98.621Z" transform="translate(77.87 2.023)" fill="#faf8fa"/>
          <path id="Coat_Front" data-name="Coat Front" d="M20.592,196.813c1.958-40.873,17.04-89.752,32.665-131.256-11.53,11.461-24.994,30.672-35.876,62.654L0,123.754C17.712,47.5,69.605,8.17,79.676,1.15L79.97.472h.695C81.132.157,81.38,0,81.38,0l-.027.472h7.564c1.761,10.35,7.316,150.5,24.466,196.341Z" transform="translate(22.083)" fill="#feb816"/>
        </g>
      </g>
    </g>
  </g>
</svg>
