<svg xmlns="http://www.w3.org/2000/svg" width="193.908" height="193.908" viewBox="0 0 193.908 193.908">
  <g id="interface_1_" data-name="interface (1)" transform="translate(0 62)">
    <g id="Group_4459" data-name="Group 4459" transform="translate(0 -62)">
      <g id="Group_4398" data-name="Group 4398" transform="translate(46.041 24.363)">
        <g id="Group_4397" data-name="Group 4397">
          <path id="Path_12418" data-name="Path 12418" d="M263.89,66.474a7.306,7.306,0,0,0-10.334-.012L165.884,153.9l-31.632-34.355a7.308,7.308,0,1,0-10.753,9.9L160.284,169.4a7.3,7.3,0,0,0,5.22,2.356c.053,0,.1,0,.156,0a7.316,7.316,0,0,0,5.159-2.131L263.876,76.81A7.307,7.307,0,0,0,263.89,66.474Z" transform="translate(-121.568 -64.327)" fill="#f87831"/>
        </g>
      </g>
      <g id="Group_4400" data-name="Group 4400">
        <g id="Group_4399" data-name="Group 4399">
          <path id="Path_12419" data-name="Path 12419" d="M186.6,89.646a7.307,7.307,0,0,0-7.308,7.308A82.338,82.338,0,1,1,96.954,14.616,7.308,7.308,0,1,0,96.954,0a96.954,96.954,0,1,0,96.954,96.954A7.308,7.308,0,0,0,186.6,89.646Z" fill="#f87831"/>
        </g>
      </g>
    </g>
  </g>
</svg>
